<?xml version="1.0" encoding="utf-8"?>
<!-- Generator: Adobe Illustrator 19.0.0, SVG Export Plug-In . SVG Version: 6.00 Build 0)  -->
<svg version="1.1" id="Capa_1" xmlns="http://www.w3.org/2000/svg" xmlns:xlink="http://www.w3.org/1999/xlink" x="0px" y="0px"
	 viewBox="-447 17 1024 768" style="enable-background:new -447 17 1024 768;" xml:space="preserve">
<style type="text/css">
	.st0{opacity:6.000000e-002;}
	.st1{fill:#B3B3B3;}
	.st2{fill:#1A1A1A;}
	.st3{fill:#4D4D4D;}
	.st4{fill:#808080;}
</style>
<g id="XMLID_1224_" class="st0">
	<path id="XMLID_1777_" class="st1" d="M502.9,444.9c-1-1.1-2.2-1.9-3.5-2.2c-6.4-1.6-10.3-5.8-11.8-12.8c-0.5-2.5-1.1-4.9-2-7.1
		c-0.9-2.3-1.6-4.6-2.3-7c-1.1-5.6-2.6-11.1-4.4-16.4c-1.8-5.3-3.3-10.8-4.4-16.4c-0.2-0.9-0.5-1.5-0.9-1.9c-1.6-2.4-1.5-5,0.3-7.9
		c0.8-0.7,1-1.4,0.8-2.2s-1-0.9-2.2-0.3c-1,0.5-1.7,0.6-1.9,0.2c-0.2-0.4-0.4-0.9-0.6-1.6c-0.5-2.7-1.3-5.4-2.2-7.9
		c-1-2.6-1.6-5.2-1.8-7.7c-0.7-4.3-1.8-8.5-3.3-12.6c-1.5-4.1-2.6-8.3-3.3-12.6c-0.9-4.3-1.8-8.5-2.7-12.8
		c-0.8-4.3-2.4-8.4-4.7-12.3c1.1-2.2,0.8-4.1-0.7-5.7c-1.5-1.6-2.3-3.3-2.3-5.2s-0.5-3.7-1.5-5.3c-0.9-1.6-1.5-3.4-1.8-5.2
		c-0.4-3.2-1.1-6.5-2-9.8s-1.8-6.5-2.7-9.6c-1.7-4.5-3.9-8.5-6.5-11.9s-6.1-6.2-10.5-8.3c-3.5-1.6-6.9-3.1-10.2-4.5
		c-3.2-1.4-6.8-2.1-10.6-2.2c-3.2-0.3-6.5-1.3-10.1-2.9c-2.5-1.4-5.1-2.9-7.8-4.3c-2.6-1.4-5.2-2.7-7.7-3.9
		c-3.8-1.6-7.1-3.4-9.9-5.4c-2.8-2.1-6-3.8-9.5-5.2c-2.4-0.8-4.6-1.7-6.9-2.9c-2.2-1.2-4.4-2.2-6.5-3c-5.8-2.2-11.6-3.3-17.2-3.4
		c-5.6-0.1-11.3,0.9-17.2,3c-1.5,0.7-2.9,1.4-4.2,2.2s-2.8,1.7-4.4,2.7c-3.4,2.2-7,4.3-10.7,6.4c-3.7,2.1-8.1,2.7-13.1,1.7
		c-4.2-0.7-7-2.9-8.3-6.6c-4.6-9.7-2.3-17.2,6.9-22.6c3.7-2.2,7.2-4.6,10.5-7c3.4-2.5,7.3-4.2,11.7-5.2c0.4-0.1,0.7-0.3,0.9-0.6
		s0.4-0.6,0.8-0.9l2-0.6c1.7,1.7,3,2,4,0.9s2-2,3-2.8l6-1.7c1.2,0.9,2.3,1.1,3.2,0.7c1-0.4,2.1-0.5,3.3-0.4c1.5-0.4,2.7-0.6,3.4-0.6
		c4,0.8,8,1.3,12,1.6s8.1,1,12.1,2c4.4,1.4,8.5,3.1,12.4,5.3c3.8,2.1,7.9,3.9,12.4,5.3c2.4,0.8,4.6,1.9,6.8,3.4s4.4,3.1,6.5,4.6
		c2.4,1.9,5.2,3.2,8.4,3.7c3.1,0.6,6,1.8,8.7,3.6c2,1.3,4.1,2.2,6.3,2.7s4.3,1,6.3,1.6c2,0.4,3.9,0.9,5.7,1.4c1.8,0.6,3.7,0.6,5.7,0
		c2.3-0.4,4.5-0.7,6.7-1s4.5-0.7,6.9-1.4s4.6-0.7,6.6-0.1c2,0.6,4,1.4,6.1,2.2c1.4,0.6,2.3,2,2.9,4.2c0.4,3.2,1.7,5.2,3.8,6.1l1.4,5
		c-0.9,1-1.1,1.7-0.6,2.3s1.1,1.1,1.7,1.7l0.8,3c-0.9,1.9-0.9,3.5-0.1,4.8c0.8,1.3,1.7,2.7,2.6,4.1l2.2,7.9
		c-0.6,1.1-0.8,2.2-0.5,3.2s0.6,2,0.9,3.1c0.2,1.4,0.5,2.7,1.1,4c0.6,1.3,1,2.7,1.2,4.3c0.6,3.9,1.6,7.6,3.1,11.1s2.6,7.2,3.4,11
		c-0.2,1,0.3,1.6,1.5,1.7l1.4,5c-0.8,1.4-0.4,2.7,1.1,4l0.7,2.6c-0.2,1-0.4,1.9-0.5,2.8c-0.1,0.9,0.5,1.6,1.9,2.2l1.4,5
		c0.2,6.6,1.7,12.2,4.7,16.9l1.7,6c-0.2,1.9-0.1,3.8,0.3,5.6c0.4,1.8,1.3,3.4,2.6,5l1.1,4c-0.5,2.5-0.3,4.8,0.6,6.8
		c0.9,2,1.9,4,3,6.1l1.1,4c-0.5,0.8-0.6,1.8-0.3,2.9c2.1,9.4,4.8,18.8,7.8,28.1c0.4,1.3,0.7,2.7,0.9,4c0.3,1.4,1,2.5,2.2,3.3l1.1,4
		c-0.5,0.6-0.8,1.3-0.7,2s0.2,1.3,0.3,1.7c1.3,3,2.2,6,2.7,9.1c0.5,3.1,1.4,6.1,2.7,9.1c1.7,2.6,1.8,4.8,0.4,6.7
		c-1.2,1.5-2.2,3.2-3,5.1c-0.8,1.9-1.9,3.5-3.5,4.9L502.9,444.9z M504.8,385.2c0.1,0.4,0.3,0.6,0.5,0.6c0.5,0.1,0.7-0.2,0.5-0.8
		l-0.5-0.6C504.8,384.4,504.6,384.7,504.8,385.2z M470.4,277.4c0.9-0.2,1.2-0.8,1-1.7c-0.3-1.1-0.9-1.5-1.8-1.3
		c-0.9,0-1.3,0.6-1,1.7C468.8,276.7,469.4,277.2,470.4,277.4z M459.5,240.5c-0.1-0.2-0.2-0.3-0.4-0.2L459.5,240.5l0.4,0.2
		L459.5,240.5z M479.4,315.9c-0.2,0.1-0.3,0.3-0.1,0.8c0.4-0.1,0.8-0.1,1.1,0.1l-0.2-0.7C480.1,315.8,479.8,315.8,479.4,315.9z
		 M456,242.1l0.1-0.8l-0.8-0.5c-0.2,0.3-0.2,0.6-0.1,1.1C455.5,241.9,455.7,242,456,242.1z M466.9,291.5c-0.2,0.3-0.1,0.4,0.1,0.3
		c0.1,0.4,0.3,0.4,0.7-0.2l-0.1-0.3C467.3,291.2,467.1,291.3,466.9,291.5z M457.9,256.6l-0.1-0.3l-0.7,0.2L457.9,256.6z
		 M503.7,426.1c0.7-0.2,0.9-0.6,0.7-1.3c-0.2-0.7-0.5-0.9-0.9-0.8c-0.7,0.2-0.9,0.6-0.7,1.3C502.8,425.5,503.1,425.8,503.7,426.1z
		 M492,386.6c0.3,0.2,0.5,0.2,0.8,0.1c0.3-0.6,0.2-0.9-0.3-1l-0.3,0.1C491.4,386,491.4,386.3,492,386.6z M494.2,409.9
		c0.4,1.3,1,1.9,1.9,1.6c1.2-0.8,1.6-1.8,1.3-2.9c-0.4-1.3-1.1-1.8-2.2-1.5c-0.7,0.2-1,0.6-0.9,1.2
		C494.3,408.8,494.3,409.4,494.2,409.9z M498,413.4l-0.4-0.2l0.2,0.7L498,413.4z M483.6,373.2c-0.4,0.1-0.6,0.4-0.5,0.8
		c0.1,0.4,0.5,0.8,1,1.1c0.7-0.2,0.9-0.6,0.7-1.3C484.7,373.3,484.3,373,483.6,373.2z M460.1,286.3L460,286
		c-0.1-0.2-0.1-0.3-0.3-0.3c-0.1,0-0.1,0.2-0.1,0.4C459.9,286,460,286.1,460.1,286.3z M461.2,296.7l-0.5-0.6l-0.1,0.8L461.2,296.7z
		 M497.6,436.4l0.1,0.3l0.2-0.4L497.6,436.4z M434.8,216l-0.3,0.1l0.4,0.2L434.8,216z M415.2,209.6l0.3-0.1c0.2-0.3,0.1-0.4-0.1-0.3
		c-0.1-0.2-0.1-0.3-0.3-0.3c-0.1,0-0.1,0.2-0.1,0.4L415.2,209.6z M384.8,204.2c0.2,0.9,0.6,1.2,0.9,0.8c0.4-0.1,0.6-0.5,0.4-1.2
		c0.2-0.3,0.2-0.5,0-0.7s-0.4-0.1-0.8,0.2c-0.2,0.1-0.3,0.2-0.2,0.4L384.8,204.2z M379.4,197.8l0.1,0.3l0.3-0.1
		c0.2-0.1,0.3-0.1,0.3-0.3c0-0.1-0.2-0.1-0.4-0.1L379.4,197.8z M377.3,212c-0.7,0.2-0.9,0.6-0.7,1.3c-0.2,1,0.2,1.4,1,1.1
		c0.7,0,1-0.4,0.7-1.3C378.6,212.1,378.2,211.7,377.3,212z M370.5,197.8c-1.2,0.8-1.7,1.7-1.4,2.5c0.4,1.3,1.2,1.6,2.4,0.8
		c1.3-0.4,1.8-1.1,1.5-2.2C372.7,197.8,371.9,197.5,370.5,197.8z M360.9,194.1c0.1,0.4,0.5,0.6,1.2,0.4c0.2-0.1,0.3-0.3,0.1-0.8
		c-0.2-0.7-0.6-0.9-1.3-0.7c0.1,0.2,0.1,0.4,0,0.5C360.9,193.7,360.9,193.9,360.9,194.1z M356.2,202.9c0.1,0.4,0.5,0.6,1.2,0.4
		c0.8-0.7,1-1.2,0.6-1.6c-0.1-0.4-0.5-0.6-1.2-0.4C356.2,201.5,356,202,356.2,202.9z M338.6,201l0.8,0.1c0.2-0.1,0.3-0.3,0.1-0.8
		l-0.8-0.1C338.5,200.3,338.5,200.6,338.6,201z M325.7,178.9c0.2,0.7,0.7,1.1,1.5,1.4c0.7-0.2,1-0.6,1-1.4c-0.3-1.1-0.8-1.6-1.5-1.4
		C326.2,177.5,325.9,177.9,325.7,178.9z M324.9,195.2c0.3,0.4,0.5,0.9,0.6,1.4c0,0.6,0.5,0.7,1.4,0.5s1.2-0.8,1-1.5
		c-0.2-0.8-0.3-1.4-0.2-1.9c-0.5-1.8-1.3-2.5-2.4-2.2c-0.9,0.2-1.2,0.7-0.8,1.5C324.7,193.8,324.9,194.5,324.9,195.2z M317.8,177.6
		c0.2,0.9,0.8,1.2,1.7,1c1,0.2,1.4-0.1,1.1-1c-0.3-1.1-0.9-1.5-1.8-1.3C317.9,176.2,317.6,176.7,317.8,177.6z M317.2,195.9
		c0.7,0.8,1.3,0.8,1.8,0.2c1.1-0.3,1.3-0.9,0.5-1.9c-0.1-0.4-0.5-0.6-1.2-0.4C317.3,194.1,316.9,194.8,317.2,195.9z M315.9,197.7
		c-0.9,0.2-1,0.8-0.3,1.5c0.2,0.9,0.7,1.2,1.4,1c0.9-0.2,1.2-0.7,1-1.4C317.8,198.2,317.1,197.8,315.9,197.7z M310.7,181.7
		c0.4-0.1,0.4-0.3-0.2-0.7c-0.3-0.2-0.5-0.2-0.8-0.1l-0.1,0.8C309.9,181.8,310.3,181.8,310.7,181.7z M306.7,196.7
		c0.2,0.7,0.4,0.7,0.8,0.1l-0.2-0.7C307.1,196.5,306.9,196.6,306.7,196.7z"/>
	<path id="XMLID_1746_" class="st1" d="M396.5,469.4l-1.2,4c-0.7,0-1.2,0.6-1.6,1.7c-1.5,3.6-2.7,7.3-3.6,11.1
		c-0.9,3.8-1.9,7.6-2.9,11.3c-0.3,1.1-0.2,1.9,0.4,2.3l-1.2,4c-0.7,0.8-1.3,1.5-1.9,2.1c-0.6,0.7-0.4,1.6,0.4,2.8l-1.4,4.9
		c-3.5,4.5-5,9.6-4.5,15.5l-1.2,4c-1.4,1.5-2.4,3.2-3,5.2s-1.2,4-1.7,5.9c-0.9,3.1-1.8,6.2-2.6,9.4s-1.8,6.3-2.9,9.4
		c-1.3,4.4-4,7.3-8.3,8.7c-1.9,0.7-3.6,1.2-5.3,1.5c-1.7,0.4-3.4,0.9-5.3,1.5l-4.9-1.4c-0.3-0.6-0.7-1-1.2-1.3s-1-0.6-1.3-0.9
		c-3.4-2.4-5.4-4.6-6.2-6.5s-0.7-4.9,0.3-8.9c0.2-0.7,0.4-1.4,0.6-2.1c0.2-0.8,0-1.5-0.8-2.2l0.9-3c2.6-2.3,3.4-5.2,2.5-8.6l1.2-4
		c2.7-2.8,3.6-5.8,2.6-8.9l1.2-4c1.2-0.1,1.9-0.6,2.1-1.5c0.1-0.9,0.3-1.7,0.5-2.4c0.7-3.1,1.4-6.2,2.1-9c0.7-2.9,1.8-5.8,3.1-8.8
		c0.4-1.3,0.2-2.2-0.6-2.7l0.9-3c1.5-1,2.4-2.8,2.6-5.3c0.5-2.7,1.2-5.3,2.1-7.8c0.8-2.5,1.7-5.1,2.4-7.7c0.3-0.9,0.6-1.6,1-2.2
		c0.4-0.6,1.3-0.7,2.6-0.3c0.9,0.3,1.5-0.3,1.9-1.6c0.1-0.2,0-0.5-0.1-0.8c-0.2-0.3-0.4-0.3-0.7-0.2c-1.2-0.1-1.9-0.4-2.1-0.8
		c-0.2-0.4-0.3-0.9-0.3-1.5c0-0.6,0.1-1.2,0.2-1.7c0-0.6-0.1-1-0.5-1.4l0.9-3c1.5-1.9,2.5-4,2.9-6.1c0.4-2.2,0.7-4.4,0.9-6.7l0.9-3
		c1.6-1.4,2.6-3.2,2.8-5.4c0.3-2.2,1-4.1,2.2-5.6c1-0.9,0.7-1.8-1-2.8l1.3-4.6c2.3-2.2,3-4.5,2-6.9l1.4-4.9c2.6-1.6,3.4-4.3,2.3-7.9
		l3.8-12.9c2.8-3.2,3.8-6.4,2.8-9.6l2-6.9c2.1-1.5,2.6-3.2,1.4-4.9l0.9-3c2.2-2.5,3.5-5.1,3.9-8c0.5-2.8,0.8-5.8,1-8.8l2.2-7.6
		c2.2-0.3,4.1-1.3,5.5-3c2.1-3,4.7-4.1,7.8-3.4c0.4,0.1,1,0.3,1.6,0.5s1.3-0.1,2-0.8l4,1.2c0.1,0.5,0.5,1.1,1.3,1.8
		c6.1,3.5,9.5,8.9,10,16.2c0.2,0.8,0.2,1.6-0.1,2.3c-0.3,0.7-0.2,1.4,0.3,2.1l-0.9,3c-0.4,0.4-0.7,0.7-1,1s-0.5,0.6-0.7,1.1
		c-0.9,3.1-1.8,6.2-2.6,9.4s-1.9,6.4-3.3,9.6c-0.4-0.3-0.6-0.6-0.7-0.7c-0.1-0.1-0.3-0.4-0.7-0.7c-0.2-0.1-0.4,0-0.6,0.2
		c-0.2,0.2-0.2,0.3,0.1,0.4l1.6,0.5c0.5,0.9,0.6,1.7,0.3,2.6c-0.3,0.9-0.3,1.7,0,2.5l-1.2,4c-1.6,1.2-1.9,2.4-1.1,3.6l-3.5,11.9
		c-2.9,2.7-3.9,6-2.9,9.9l-0.9,3c-1.6,0.5-2.5,1.4-2.7,2.6s-0.4,2.4-0.5,3.6c-0.1,2.1-0.5,4.2-1.1,6.1c-0.6,2-1.2,4.1-1.8,6.3
		c-1,2.6-1.9,5.2-2.7,8s-1.6,5.6-2.5,8.4c-0.1,0.4-0.3,0.9-0.4,1.5c-0.2,0.6,0,1.1,0.6,1.8l-1.7,5.9
		C396.4,467.9,396.3,468.6,396.5,469.4z M339.8,549.4l-0.6-0.5l-0.4,0.2c-0.1,0.2,0,0.3,0.1,0.4c0.1,0,0.1,0.2,0.1,0.4L339.8,549.4z
		 M372.2,444.7c0.1-0.2,0.1-0.3,0.3-0.3c0.1,0,0.2-0.1,0.3-0.3c-0.4-0.3-0.7-0.4-1-0.3l-0.1,0.3c0.2,0.1,0.3,0.2,0.3,0.3
		C371.9,444.6,372,444.7,372.2,444.7z M386.2,409.1c0.3-0.9-0.1-1.2-1.1-1c-0.9-0.3-1.5,0.2-1.8,1.3c-0.2,0.7,0.1,1.1,1,1.4
		C385.2,410.7,385.9,410.2,386.2,409.1z M359.8,491.9c-0.1,0.2-0.2,0.3-0.3,0.3s-0.2,0.1-0.3,0.3l0.2,0.4c0.2,0.1,0.3,0,0.4-0.1
		c0-0.1,0.2-0.1,0.4-0.1L359.8,491.9z M346.8,546.1c-0.5-0.6-0.9-0.9-1.2-0.7l-0.5,0.6c0.1,0.5,0.5,0.7,1.2,0.7
		C346.4,546.5,346.6,546.3,346.8,546.1z M364.7,497.3c-0.3-0.8-0.6-1.2-1-1.4c-0.4-0.1-1.3,0.1-2.5,0.7c-1.2,0.6-1.8,1-1.6,1.3
		c-0.2,0.7,0,0.8,0.6,0.5c0.6-0.5,1.4-0.7,2.3-0.4C363.2,498.3,364,498.1,364.7,497.3z M380.5,432.1l-0.5-0.9l-0.7-0.2
		c-0.1,0.2-0.1,0.4,0,0.5c0.1,0.1,0.1,0.3,0,0.5c0.2,0.1,0.4,0.1,0.5,0C380.1,432.1,380.3,432.1,380.5,432.1z M372.2,460.5l-0.4,0.2
		c-0.2,0.7,0,0.8,0.6,0.5l0.1-0.3C372.3,460.8,372.2,460.7,372.2,460.5z M371.1,471.6c0.1-0.2,0-0.4-0.2-0.4l-0.4,0.2l-0.1,0.3
		C370.7,472.3,370.9,472.3,371.1,471.6z M408.2,357.1c-0.3-0.6-0.4-1.2-0.2-1.8c0.2-0.7,0.1-1.1-0.4-1.2c-0.4-0.3-0.8-0.2-1.2,0.4
		c-0.4,0.6-0.7,1.1-0.8,1.6c-0.4,0.4-0.4,0.8-0.2,1.2s0.6,0.7,1,0.8C407.4,358.3,407.9,358,408.2,357.1z M362.6,511.7
		c0.3-0.9,0.2-1.4-0.3-1.5c-0.6-0.4-1-0.2-1.3,0.7l-0.3,1c-0.1,0.2,0,0.4,0.2,0.4C361.8,512.8,362.4,512.6,362.6,511.7z
		 M382.1,454.8c0.2-0.7,0.1-1.1-0.4-1.2c-0.8,0.3-1.2,0.5-1.3,0.7c-0.9,0.5-0.8,0.8,0,1.1C381.4,455.6,382,455.4,382.1,454.8z
		 M413.8,345.2l-0.4,0.2c0.2-0.7,0.2-1,0-1.1l-0.1,0.3C413.4,345,413.6,345.1,413.8,345.2z M390.9,428.7c-1,0.2-1.6,0.7-1.9,1.6
		c0.2,1,0.5,1.5,1,1.4c0.9,0,1.5-0.4,1.8-1.3C392,429.5,391.7,428.9,390.9,428.7z M375.1,480.3l0.1-0.3c-0.3-0.6-0.6-0.5-0.8,0.1
		l0.1,0.8C374.8,480.7,375,480.5,375.1,480.3z M397.8,406c0.7,0,1.2-0.4,1.4-1c0.3-0.9,0.1-1.4-0.6-1.6c-1.3-0.4-1.9,0-1.8,1.3
		C396.6,405.3,397,405.8,397.8,406z M406.3,380.9l-0.2-0.4c-0.3-0.6-0.6-0.5-0.8,0.1c-0.1,0.2,0.1,0.4,0.6,0.5
		C405.9,380.9,406,380.9,406.3,380.9z M370.2,506.8l-0.1-0.8c-0.6-0.4-1-0.3-1.2,0.4l0.1,0.8C369.2,507.2,369.6,507.1,370.2,506.8z
		 M369.8,513.1l-0.1-0.8c-0.6-0.4-1-0.3-1.2,0.4c-0.1,0.4-0.1,0.7,0.1,0.8C368.9,513.8,369.3,513.7,369.8,513.1z M403.7,397
		c0.1-0.2,0.4-0.5,0.9-0.8c0.2-0.7-0.1-1-0.8-0.9c-0.4-0.1-0.8,0.1-0.9,0.8C402.3,396.4,402.6,396.7,403.7,397z M378.1,483.3
		l0.1-0.3c-0.2-0.3-0.4-0.3-0.7-0.2c-0.3,0.2-0.3,0.3-0.1,0.3C377.3,483.6,377.5,483.6,378.1,483.3z M359.8,548.5
		c-0.7-0.2-1.1-0.1-1.2,0.4l-0.2,0.7c-0.1,0.2,0,0.4,0.2,0.4c0.4,0.1,0.9,0,1.5-0.3C360.3,549,360.2,548.6,359.8,548.5z
		 M378.2,489.1l-0.1,0.3c-0.3,0.9,0,0.9,0.7,0.2l-0.2-0.4L378.2,489.1z M365.1,542.5c0.1-0.2,0.1-0.4,0-0.5s-0.1-0.3,0-0.5
		c-0.7-0.2-1.1,0-1.3,0.7l0.1,0.8C364.6,543.1,365,543,365.1,542.5z M392.7,457.9c0.2-0.7,0-1.1-0.7-1.3c-0.5,0.1-1,0-1.4-0.2
		s-0.9-0.2-1.5,0.1c-0.2,0.7,0,1.1,0.7,1.3C391.2,458.1,392.1,458.2,392.7,457.9z M382.7,487.2c0.1-0.2-0.1-0.6-0.4-1.2
		c-0.7-0.2-1.1-0.1-1.2,0.4c-0.2,0.7-0.1,1.1,0.4,1.2C381.7,487.8,382.1,487.7,382.7,487.2z M400,429.2l-0.3-0.1
		c-0.6,0.3-0.7,0.6-0.3,1c0.2,0.1,0.4,0,0.4-0.2C400.3,430,400.3,429.8,400,429.2z M413.1,381.9l-0.1,0.3l0.8-0.1L413.1,381.9z
		 M413.9,392.8c0.2,0.1,0.4-0.1,0.5-0.6l-0.2-0.4l-0.9,0.5c0.2,0.1,0.3,0.2,0.3,0.3C413.6,392.7,413.6,392.8,413.9,392.8z"/>
	<path id="XMLID_1715_" class="st2" d="M-51.9,273.2l-2.2,7.5c-1.4,0.1-2.4,1.1-3,3.2c-2.9,6.9-5.2,13.9-6.9,21.1
		c-1.7,7.2-3.5,14.4-5.6,21.5c-0.6,2.1-0.4,3.5,0.8,4.3l-2.2,7.5c-1.3,1.4-2.5,2.8-3.6,4.1s-0.8,3.1,0.8,5.3l-2.7,9.4
		c-6.6,8.5-9.4,18.3-8.6,29.5l-2.2,7.5c-2.7,2.9-4.5,6.2-5.6,9.9c-1.1,3.8-2.2,7.5-3.3,11.3c-1.7,5.9-3.4,11.8-4.9,18
		c-1.6,6.1-3.4,12-5.5,17.8c-2.4,8.4-7.7,13.9-15.7,16.5c-3.5,1.2-6.9,2.2-10,2.9c-3.2,0.7-6.5,1.6-10,2.9l-9.4-2.7
		c-0.6-1.1-1.4-1.9-2.4-2.4s-1.8-1.1-2.5-1.8c-6.4-4.6-10.3-8.7-11.7-12.3c-1.4-3.6-1.3-9.2,0.5-16.9c0.4-1.3,0.8-2.6,1.2-4.1
		c0.4-1.5-0.1-2.9-1.5-4.2l1.6-5.6c4.9-4.5,6.5-9.9,4.8-16.3l2.2-7.5c5.2-5.3,6.8-10.9,4.9-16.9l2.2-7.5c2.3-0.2,3.6-1.2,3.9-2.9
		s0.6-3.2,1-4.5c1.3-6,2.6-11.7,4-17.2s3.3-11,5.9-16.7c0.7-2.5,0.3-4.2-1.2-5.1l1.6-5.6c2.8-1.9,4.5-5.3,5-10.1
		c1-5.1,2.4-10.1,4-14.8c1.6-4.7,3.2-9.6,4.6-14.6c0.5-1.7,1.1-3.1,1.9-4.2c0.8-1.1,2.4-1.3,4.9-0.6c1.7,0.5,2.9-0.5,3.6-3
		c0.1-0.4,0-0.9-0.3-1.4s-0.7-0.7-1.3-0.4c-2.2-0.2-3.5-0.7-4-1.5c-0.4-0.8-0.6-1.8-0.5-2.9c0.1-1.1,0.2-2.2,0.3-3.3
		c0.1-1.1-0.2-2-0.9-2.7l1.7-5.6c2.9-3.7,4.7-7.6,5.5-11.7c0.7-4.1,1.3-8.4,1.7-12.8l1.6-5.6c3.1-2.7,4.9-6.2,5.4-10.3
		c0.5-4.2,1.9-7.7,4.1-10.7c1.9-1.7,1.2-3.5-1.9-5.3l2.6-8.8c4.4-4.2,5.7-8.6,3.8-13.2l2.7-9.4c5-3.1,6.4-8.1,4.4-15l7.1-24.5
		c5.4-6.1,7.2-12.2,5.3-18.2l3.8-13.2c4-2.9,4.9-6,2.7-9.4l1.6-5.6c4.1-4.7,6.6-9.7,7.5-15.2c0.9-5.4,1.5-11,1.9-16.8l4.2-14.4
		c4.2-0.6,7.8-2.5,10.5-5.8c3.9-5.7,8.9-7.8,14.8-6.5c0.8,0.2,1.9,0.5,3.1,0.9c1.3,0.4,2.5-0.2,3.9-1.6l7.5,2.2c0.2,1,1,2.1,2.4,3.4
		C-0.3,37.2,6,47.4,6.9,61.3c0.5,1.5,0.4,3-0.3,4.4c-0.6,1.4-0.5,2.7,0.6,3.9l-1.6,5.6c-0.7,0.7-1.3,1.3-1.9,1.8s-1,1.2-1.3,2
		C0.7,84.9-1,90.8-2.5,97c-1.6,6.1-3.7,12.2-6.3,18.2c-0.7-0.7-1.1-1.1-1.3-1.4c-0.2-0.3-0.6-0.7-1.3-1.4c-0.4-0.1-0.8,0-1.1,0.4
		c-0.3,0.4-0.3,0.6,0.1,0.7l3.1,0.9c0.9,1.6,1.1,3.3,0.6,4.9c-0.5,1.7-0.5,3.3,0,4.8l-2.2,7.5c-3,2.3-3.6,4.6-2,6.9l-6.6,22.6
		c-5.6,5.2-7.4,11.4-5.5,18.8l-1.7,5.6c-3,0.9-4.7,2.6-5.2,4.9c-0.5,2.4-0.8,4.6-1,6.9c-0.3,4-0.9,7.9-2,11.7s-2.3,7.7-3.5,11.9
		c-1.9,4.9-3.6,10-5.1,15.2s-3.1,10.6-4.7,16c-0.2,0.8-0.5,1.8-0.8,2.8s0,2.2,1.1,3.4l-3.3,11.3C-52.1,270.4-52.4,271.7-51.9,273.2z
		 M-159.8,425.4l-1.1-1l-0.8,0.4c-0.1,0.4-0.1,0.7,0.1,0.7c0.2,0.1,0.3,0.3,0.1,0.7L-159.8,425.4z M-98.1,226.3
		c0.1-0.4,0.3-0.6,0.5-0.5s0.4-0.1,0.5-0.5c-0.7-0.7-1.3-0.8-1.9-0.6l-0.2,0.6c0.4,0.1,0.6,0.3,0.5,0.5
		C-98.7,226-98.6,226.2-98.1,226.3z M-71.5,158.6c0.5-1.7-0.2-2.3-2.1-2c-1.7-0.5-2.8,0.3-3.4,2.4c-0.4,1.3,0.3,2.1,2,2.6
		C-73.3,161.7-72.1,160.6-71.5,158.6z M-121.7,316.1c-0.1,0.4-0.3,0.6-0.5,0.5c-0.2-0.1-0.4,0.1-0.5,0.5l0.4,0.8
		c0.4,0.1,0.7,0.1,0.7-0.1c0.1-0.2,0.3-0.3,0.7-0.1L-121.7,316.1z M-146.3,419.1c-1-1.2-1.8-1.7-2.3-1.4l-1,1.1
		c0.2,1,0.9,1.4,2.3,1.4C-147.2,419.8-146.9,419.4-146.3,419.1z M-112.4,326.3c-0.5-1.5-1.1-2.4-2-2.6c-0.8-0.2-2.4,0.2-4.8,1.3
		c-2.4,1.1-3.4,2-3.1,2.5c-0.4,1.3,0,1.6,1.1,1c1.2-1,2.6-1.3,4.3-0.8C-115.2,328.2-113.7,327.7-112.4,326.3z M-82.3,202.4l-0.9-1.6
		l-1.3-0.4c-0.1,0.4-0.1,0.8,0,1c0.1,0.3,0.2,0.6,0,1c0.4,0.1,0.8,0.1,1,0C-83.1,202.3-82.7,202.2-82.3,202.4z M-98.1,256.3
		l-0.8,0.4c-0.4,1.3,0,1.6,1.1,1l0.2-0.6C-98,257-98.2,256.7-98.1,256.3z M-100.2,277.5c0.1-0.4,0-0.7-0.4-0.8l-0.8,0.4l-0.2,0.6
		C-101,278.8-100.5,278.7-100.2,277.5z M-29.7,59.8c-0.6-1.1-0.7-2.2-0.3-3.5c0.4-1.3,0.1-2-0.7-2.2c-0.7-0.7-1.5-0.4-2.2,0.7
		c-0.8,1.1-1.3,2.1-1.5,3c-0.7,0.7-0.8,1.5-0.3,2.3s1.1,1.3,1.9,1.6C-31.3,62.1-30.2,61.5-29.7,59.8z M-116.3,353.7
		c0.5-1.7,0.3-2.6-0.5-2.9c-1.1-0.8-1.9-0.3-2.4,1.3l-0.5,1.9c-0.1,0.4,0,0.7,0.4,0.8C-117.8,355.8-116.8,355.4-116.3,353.7z
		 M-79.2,245.5c0.4-1.3,0.1-2-0.7-2.2c-1.5,0.5-2.3,0.9-2.4,1.3c-1.6,0.9-1.6,1.6,0.1,2.1C-80.6,247.1-79.6,246.7-79.2,245.5z
		 M-19,37.1l-0.8,0.4c0.4-1.3,0.3-1.9-0.1-2.1l-0.2,0.6C-19.8,36.7-19.4,37-19,37.1z M-62.7,195.8c-1.9,0.4-3.1,1.4-3.6,3
		c0.3,1.9,1,2.8,2,2.6c1.8,0.1,2.9-0.7,3.4-2.4C-60.4,197.4-61,196.3-62.7,195.8z M-92.7,293.9l0.2-0.6c-0.6-1.1-1.1-1-1.4,0.3
		l0.3,1.4C-93.2,294.7-92.8,294.3-92.7,293.9z M-49.4,152.8c1.4,0,2.2-0.7,2.6-2c0.5-1.7,0.1-2.7-1.1-3.1c-2.5-0.7-3.7,0.1-3.4,2.4
		C-51.7,151.4-51.1,152.3-49.4,152.8z M-33.4,105l-0.4-0.8c-0.6-1.1-1.1-1-1.4,0.3c-0.1,0.4,0.2,0.7,1.1,1
		C-34.1,105.1-33.8,104.9-33.4,105z M-102,344.3l-0.3-1.4c-1.1-0.8-1.9-0.5-2.2,0.7l0.3,1.4C-103.8,345.1-103.1,344.9-102,344.3z
		 M-102.8,356.3l-0.3-1.4c-1.1-0.8-1.9-0.6-2.2,0.7c-0.2,0.8-0.2,1.3,0.3,1.4C-104.3,357.7-103.6,357.4-102.8,356.3z M-38.3,135.6
		c0.1-0.4,0.7-0.9,1.8-1.5c0.4-1.3-0.1-1.8-1.5-1.8c-0.8-0.2-1.4,0.3-1.8,1.5C-40.9,134.4-40.4,135-38.3,135.6z M-86.9,299.7
		l0.2-0.6c-0.3-0.5-0.7-0.7-1.3-0.4c-0.5,0.3-0.6,0.5-0.2,0.6C-88.4,300.2-88,300.3-86.9,299.7z M-121.8,423.6
		c-1.3-0.4-2-0.1-2.2,0.7l-0.4,1.3c-0.1,0.4,0,0.7,0.4,0.8c0.8,0.2,1.8,0.1,2.9-0.5C-120.7,424.6-121,423.8-121.8,423.6z
		 M-86.7,310.6l-0.2,0.6c-0.5,1.7-0.1,1.8,1.3,0.4l-0.4-0.8L-86.7,310.6z M-111.7,412.2c0.1-0.4,0.1-0.8,0-1c-0.2-0.3-0.2-0.6,0-1
		c-1.3-0.4-2.1,0.1-2.4,1.3l0.3,1.4C-112.7,413.3-111.9,413.1-111.7,412.2z M-59.2,251.3c0.4-1.3-0.1-2.1-1.3-2.4
		c-1,0.2-1.8,0-2.6-0.4c-0.8-0.5-1.7-0.4-2.8,0.2c-0.4,1.3,0.1,2.1,1.3,2.4C-62,251.8-60.3,251.9-59.2,251.3z M-78.2,307
		c0.1-0.4-0.1-1.2-0.7-2.2c-1.3-0.4-2-0.1-2.2,0.7c-0.4,1.3-0.1,2,0.7,2.2C-80.1,308.3-79.4,308-78.2,307z M-45.3,196.8l-0.6-0.2
		c-1.1,0.6-1.3,1.2-0.5,1.9c0.4,0.1,0.7,0,0.8-0.4C-44.8,198.3-44.7,197.9-45.3,196.8z M-20.3,106.8l-0.2,0.6l1.4-0.3L-20.3,106.8z
		 M-18.9,127.6c0.4,0.1,0.7-0.2,1-1.1l-0.4-0.8l-1.6,0.9c0.4,0.1,0.6,0.3,0.5,0.5C-19.5,127.4-19.3,127.5-18.9,127.6z"/>
	<path id="XMLID_1630_" class="st1" d="M119.8,253.2l6.5,6.5c1.7,0.8,2.7,1.4,3.1,1.9c5.6,3.9,10.4,8.4,14.5,13.5
		c4,5.1,8.6,9.8,13.8,14.2v1.9l2.8,2.8c2.9,1.6,5.5,3.4,7.8,5.3c2.3,1.9,3.9,4.4,5,7.5l7.5,7.5c0.8-0.4,1.7-0.2,2.5,0.6
		c5.8,5,11.4,10.3,16.8,15.9c5.4,5.6,10.7,11.2,15.9,16.8c0.4,0.4,0.9,0.9,1.4,1.4s0.7,1.3,0.4,2.4l1.9,1.9c2.1,0,3.7,0.7,4.8,2.3
		s2.4,2.9,3.9,3.9c0.6,0.6,1.3,1.7,2,3.3c0.7,1.6,1.9,1.1,3.7-1.5c0.8-0.8,1.3-0.6,1.3,0.6c1.2,2.9,0.7,4.7-1.7,5.4l4.7,4.7
		c1.2,0.4,1.9,1,1.9,1.9l4.7,4.7c5.4,1.6,9.1,5.3,10.9,10.9l2.8,2.8c2.5,0.4,4.8,2,6.9,5c2.1,2.5,4.6,3.8,7.7,3.8
		c3.1,0.1,6,0.3,9,0.7c2.3,0.2,4.3-0.3,5.9-1.5c1.6-1.2,3.1-2.7,4.7-4.7c1.1-1.1,2-2.2,2.9-3.5s2.3-1.9,4.5-2l4.8-4.8
		c0-2.1,1.3-3.4,3.9-3.9l3.8-3.8c0.4-3.8,2.3-5.7,5.7-5.7l10.4-10.4c2.5-3.4,4.6-6.8,6.3-10.4c1.7-3.6,3.7-7.1,6-10.7
		c0.4-0.8,0.9-1.6,1.4-2.4c0.5-0.7,0.8-1.5,0.8-2.4c0.9-5,1.7-10.1,2.4-15.1s0.7-10.2,0.2-15.4c-0.2-1.5-0.2-2.9-0.1-4.2
		c0.1-1.4-0.1-2.8-0.7-4.2c-1-4.4-2.4-8.5-4.3-12.2c-1.8-3.8-4.1-7.4-6.8-10.9c-1.2-1.2-1.6-2.4-0.9-3.4l-5.6-5.6
		c-2.5,0.4-3.8-0.8-3.7-3.7l-12.1-12.1c-1.7,0-2.6-0.9-2.8-2.8l-4.4-4.4c-1-0.2-1.9-0.7-2.7-1.4c-0.7-0.7-1.4-1.4-2-2
		c-3.5-4.8-7.7-8.5-12.6-11c-4.9-2.6-10.3-4.5-16.1-5.7c-2.7-0.6-5.6-1.5-8.6-2.6s-6.2-0.8-9.6,0.9c-0.4,0-1.3-0.2-2.5-0.6
		c-2.5-0.8-5-0.6-7.6,0.7c-2.5,0.9-4.9,1.6-7.3,2.3c-2.3,0.7-4.6,0.7-6.9,0.1c-6.9-1.8-11.8-6.3-14.6-13.4
		c-2.5-5.8-4.9-11.7-7.4-17.5s-4.9-11.7-7.4-17.5c-4.7-9.8-9.3-19.6-13.8-29.4c-4.5-9.8-8.9-19.8-13.2-30c-2.3-5.2-4.9-8.9-8.1-10.9
		c-3.1-2.1-7.6-3.1-13.5-3c-1.5-0.2-2.8-0.2-4.1,0s-2.6,0-4.1-0.6l-5.7,5.7c0,0.8-0.3,1.6-0.8,2.4c-0.5,0.7-1,1.5-1.4,2.4
		c-3.6,7-3.3,13.2,1.1,18.9c0.6,0.6,1.1,1.6,1.5,2.8c1.2,3.3,2.3,6.7,3.1,10s2.3,6.5,4.3,9.4c1.2,2.1,2.4,4.1,3.6,6.1
		c1.1,2,1.9,4.2,2.3,6.7c0.4,3.8,1.5,7,3.2,9.8c1.8,2.8,3.3,5.9,4.5,9.2c2.5,7.1,5.3,14,8.6,20.6c3.3,6.7,6.5,13.4,9.6,20.3
		c0.6,1.5,1.1,2.9,1.4,4.2c0.3,1.4,0.7,2.7,1.1,3.9c0.2,1.5,0.1,2.9-0.3,4.4c-0.4,1.5-1.4,2.5-2.8,3.1c-2.5,1.7-4.7,1.8-6.6,0.4
		c-3.1-2.3-6.2-4.6-9.2-7s-5.9-4.9-8.6-7.6c-3.3-3.7-7.1-7.2-11.4-10.4c-4.3-3.2-7.7-7.2-10.4-12c-0.6-1.5-1.7-2.6-3.3-3.3
		s-2.8-1.9-3.6-3.6c-1.9-3.5-5-6.4-9.3-8.7c-2.3-1.4-4.3-3.1-6.1-5.1s-3.4-4.1-4.8-6.4c-3.1-5.2-7.5-8.3-13.3-9.4
		c-5.8-1.1-11.1,0.2-16,3.9c-0.6,0.2-1.1,0.6-1.4,1.1c-0.3,0.5-0.9,0.8-1.7,0.8l-2.9,2.9c-0.4,1.7-0.9,3.5-1.4,5.4s-0.8,3.8-1,5.7
		h1.3c1.3-0.4,2-0.1,2.2,0.9l-0.6,0.6c-0.4,0.4-1.2,0.1-2.2-0.9c-0.2-0.2-0.3-0.5-0.3-0.9c-0.7,1.1-0.8,1.9-0.4,2.5
		c0.4,0.6,0.6,1.4,0.6,2.2c0.4,2.1,1,3.9,2,5.5c0.9,1.6,1.3,3.3,1,5.2l3.7,3.7c4.8,1.8,8.2,5.3,10.3,10.3l4.7,4.7
		c3.3,0.8,5.9,2.6,7.6,5.4c1.7,2.8,4.2,4.7,7.3,5.7c0.4,0,0.6,0.4,0.6,1.3c0.6,2.3,2.4,4.5,5.3,6.5c2.1,0.8,3.1,2.5,3.1,5l1.9,1.9
		c2.3,0.2,3.9,1.1,4.8,2.6C118.1,249.9,118.9,251.5,119.8,253.2z M224.1,348c-0.4,0.4-0.8,0.4-1.3,0l-0.3-0.3h1.3L224.1,348z
		 M214.5,339l0.3-0.3l1.2,1.2c0.2,0.2,0.4,0.2,0.6,0l0.3,0.3l-0.9-0.9C215.2,340.2,214.7,340.1,214.5,339z M73.5,195.5
		c0.2,0.6,0.1,1.2-0.3,1.6c-0.8,0-1.3-0.2-1.3-0.6c-0.2-0.2,0-0.6,0.6-1.3C73.2,194.6,73.5,194.7,73.5,195.5z M147,269.6
		c-0.8,0.8-1.3,0.6-1.3-0.6c-0.8-0.8-0.7-1.4,0.3-1.6c0.4-0.4,0.9-0.3,1.6,0.3C147.8,268.8,147.6,269.4,147,269.6z M180.6,304.5
		l-0.3-0.3h0.6L180.6,304.5z M250,372.6c-0.4,0-0.7-0.1-0.9-0.3l0.3-0.9h1.3c-0.2,0.2-0.3,0.4-0.3,0.6
		C250.3,372.2,250.2,372.4,250,372.6z M120.2,242.2h0.6c0.4,0,0.6,0.1,0.6,0.3s-0.2,0.3-0.6,0.3c-0.2,0.2-0.4,0.2-0.6,0
		C120.4,242.6,120.4,242.4,120.2,242.2z M270.6,389.4c0.4,0.4,0.3,0.9-0.3,1.6c-0.4,0.4-0.9,0.3-1.6-0.3c-0.4-0.4-0.3-0.9,0.3-1.6
		C269.4,388.7,269.9,388.8,270.6,389.4z M198.3,319.7c-0.6-0.6-0.6-1.3,0-1.9c0.2-0.2,0.6,0,1.3,0.6c0.6,0.6,0.6,1,0,1.3H198.3z
		 M237.2,356.7v0.6l-0.3-0.3L237.2,356.7z M94.4,210.1c0.8,0.8,0.9,1.6,0.3,2.2c-0.4,0.8-1,1-1.6,0.3c-1.3-0.4-1.4-1.1-0.3-2.2
		C93.5,209.8,94,209.7,94.4,210.1z M224.2,341.1c0.4,0.4,0.4,0.8,0,1.3h-0.6c-0.4-0.4-0.5-0.7-0.3-0.9s0.4-0.3,0.5-0.2
		C223.8,341.4,224,341.3,224.2,341.1z M282.7,399l-0.9,0.3l0.6-0.6L282.7,399z M149.8,264.9l-0.3-0.3l0.9-0.3L149.8,264.9z
		 M214.3,327.4c-0.4,0.4-0.9,0.3-1.6-0.3c-0.4-0.4-0.4-0.8,0-1.3c0.6-0.6,1.3-0.6,1.9,0C214.8,326.4,214.7,327,214.3,327.4z
		 M281,386.5c0.8,0.8,0.9,1.6,0.3,2.2c-0.8,0.8-1.7,0.9-2.5,0c-1.2-1.2-1.1-2.2,0.3-2.8C279.5,385.4,280.1,385.6,281,386.5z
		 M119.1,228.4c0.2,0.2,0.4,0.2,0.6,0l0.3-0.3c0.2,0.2,0.3,0.4,0.3,0.6c0,0.2,0.1,0.4,0.3,0.6l-0.9,0.3
		C119.3,229.2,119.1,228.8,119.1,228.4z M161.1,267.9l0.3,0.3l-0.3,0.3V267.9z M238.3,342.6l-0.3,0.9c-0.4,0-0.8-0.2-1.3-0.6
		c-0.4-0.4-0.2-0.6,0.6-0.6C237.8,342.2,238.1,342.3,238.3,342.6z M131,235.8l-0.3-0.3l0.3-0.3V235.8z M139.4,237.9
		c0.8-0.8,1.3-0.9,1.3,0c0.4,0.4,0.5,1.1,0.3,2.2c-0.6,0.6-1.3,0.6-1.9,0C138.5,239.5,138.6,238.8,139.4,237.9z M211.7,304.5
		c0.2,1,0,1.9-0.7,2.5c-0.9,1.3-1.8,1.4-2.8,0.3c-1-1-1.1-2-0.3-2.8C208.8,303.7,210,303.6,211.7,304.5z M284.8,380.1
		c0.6,0.6,0.7,1.1,0.3,1.6c-0.4,0.4-0.8,0.4-1.3,0c-1.3,0-1.4-0.5-0.3-1.6H284.8z M227.5,324.7h-0.6l0.3-0.3L227.5,324.7z
		 M93.1,185.9c0.4,0.8,0.4,1.7,0,2.5c-0.4,0.4-1.1,0.4-1.9,0c-0.8-0.8-0.9-1.6-0.3-2.2C91.3,185.8,92.1,185.7,93.1,185.9z
		 M292.3,387c-0.2,0.2-0.3,0.4-0.3,0.6s-0.1,0.4-0.3,0.6l-0.6-0.6c-0.2-0.2-0.1-0.5,0.3-0.9C291.7,386.7,292.1,386.8,292.3,387z
		 M141.7,234.4c0.8-0.8,1.5-1.1,1.9-0.6c0.4,0.4,0.6,1,0.6,1.9c-0.4,0.8-0.9,1.1-1.3,0.6C141.6,235.9,141.2,235.3,141.7,234.4z
		 M175.9,264.3c0.8,1.7,0.9,2.8,0.3,3.5c-0.6,0.6-1.5,0.4-2.5-0.6s-1.1-2-0.3-2.8C173.8,263,174.7,263,175.9,264.3z M260.9,353
		l-0.3,0.3c-0.2-0.2-0.3-0.5-0.3-0.9c0.2,0.2,0.4,0.2,0.6,0V353z M228.8,317.8c0.6,0.6,0.6,1.3,0,1.9c-0.8,0.8-1.4,0.8-1.6-0.3
		c-0.4-0.4-0.3-0.9,0.3-1.6C228,317.4,228.4,317.4,228.8,317.8z M190.3,278c1.5-1.9,2.6-2.4,3.5-1.6c0.8,0.8,0.8,1.7,0,2.5
		c-1.1,1.1-1.9,1.3-2.5,0.7C190.4,278.7,190,278.2,190.3,278z M221.1,307.5c0.8-0.4,1.5,0,1.9,1.2c0,0.8,0.1,1.4,0.3,1.6
		c-0.6-0.2-1.4-0.7-2.2-1.5C220.5,308.2,220.5,307.7,221.1,307.5z M106.5,193.6c-0.2-0.2-0.1-0.5,0.3-0.9h0.6
		c0.4,0.4,0.5,0.7,0.3,0.9H106.5z M172.9,251.1c0.6-0.2,1.2-0.5,1.6-1c0.4-0.4,0.9-0.7,1.6-1c1-0.2,2-0.4,2.8-0.7
		c0.8-0.2,1.7,0.3,2.5,1.5c0.6,1.5,0.5,2.4-0.3,2.8c-0.8,0.4-1.7,0.9-2.5,1.3c-1.1,0.2-1.8,0.8-2.4,1.8c-0.5,0.9-1.3,1.5-2.4,1.8
		c-2.7,0.7-3.8-0.4-3.1-3.1C170.7,253.7,171.4,252.6,172.9,251.1z M181.6,263l0.3,0.9c-0.6,1.1-1.4,1.2-2.2,0.3
		c-1.3,0-1.5-0.4-0.6-1.3c0.4-0.4,0.8-0.5,1.3-0.3C180.8,262.9,181.2,263,181.6,263z M169.5,250.2c0.6,0.6,0.5,1.1-0.3,1.6
		c-0.8,0-1.4-0.1-1.6-0.3c-0.8,0-0.8-0.4,0-1.3C168.4,249.8,169.1,249.8,169.5,250.2z M202.4,285.7h-0.6c-0.2-0.2-0.3-0.5-0.3-0.9
		h0.6C202.3,285,202.4,285.3,202.4,285.7z M199.7,279.1c0.6,0.6,0.5,0.9-0.3,0.9h-0.6l-0.3-0.3c-0.2-0.2-0.2-0.4,0-0.6l0.3-0.3
		C199,278.6,199.3,278.7,199.7,279.1z M290.6,368.1h-1.3c0-0.4,0.2-0.8,0.6-1.3c0.4,0,0.7,0.1,0.9,0.3
		C291.5,367.8,291.4,368.1,290.6,368.1z M211.6,284.7c0.2,1,0,1.9-0.7,2.5c-0.6,0.6-1.4,0.5-2.2-0.3c-0.6-0.6-0.5-1.4,0.3-2.2
		C209.9,284.3,210.7,284.3,211.6,284.7z M294.9,337.7l-0.3-0.3c-1.1,1.1-2.1,2.2-3,3.3c-0.9,1.2-2.1,2.1-3.3,3
		c-1.7,1.3-3.5,2.3-5.3,3.2c-1.9,0.8-3.8,0.8-5.6-0.3c-2.5-0.8-5.1-1.9-7.7-3.2c-2.6-1.3-4.6-3.1-6.1-5.4c-1.4-2.3-3.2-4.3-5.1-6.1
		c-2-1.8-3.9-3.6-5.8-5.4c-2.3-1.9-4.3-3.8-5.9-5.9c-1.7-2.1-3.5-3.9-5.6-5.6c-4.4-3.5-8.4-7.3-12-11.4c-3.6-4.1-6.9-8.6-9.8-13.6
		c-0.8-2.1-0.9-4.3-0.3-6.6c0.6-2.7,1.9-5.1,3.8-7.2c1.9-2.1,3.9-4,6-5.7c1.3-0.8,2.3-1.9,3-3.3c0.7-1.4,1.7-2.5,3-3.3
		c2.5-1.7,5-2.7,7.5-3.2c2.5-0.4,5.1-1,7.8-1.6c4-0.6,7.5-0.3,10.5,1c3,1.3,5.6,3,7.6,5.1c3.7,2.9,7.2,6.1,10.4,9.5
		c3.2,3.4,6.4,6.9,9.5,10.4c2.3,2.3,4.5,4.7,6.7,7.3s5.4,4.1,9.5,4.5c0.4,0,0.8,0.1,1.1,0.5c0.3,0.3,0.3,0.7-0.2,1.1
		c-1.1,1.9-1.2,3.5-0.5,4.9c0.7,1.4,1.2,3,1.4,4.8c0.4,3.7,0.4,7.4-0.1,11c-0.4,3.6-1.8,6.9-4.1,10c-1.1,1.5-2.2,2.8-3.5,4.1
		C297.4,334.5,296.1,336,294.9,337.7z M206,274c0.8,0.4,1,0.8,0.6,1.3c-0.4,1.3-1,1.6-1.6,1c-1.3-0.4-1.5-1-0.6-1.9
		C205.1,273.7,205.6,273.6,206,274z M194.9,255.3c0.4-0.4,0.9-0.3,1.6,0.3c0,0.4-0.1,0.7-0.3,0.9c-0.8,0.8-1.4,0.8-1.6-0.3
		C194.6,255.8,194.7,255.5,194.9,255.3z M186.2,244.7c0.6-0.6,1.3-0.6,1.9,0c0.8,0.4,0.9,0.9,0.3,1.6c-0.8,0-1.4-0.1-1.6-0.3
		C185.6,245.9,185.4,245.5,186.2,244.7z M302,354.8c-1.1,0.6-1.9,0.8-2.5,0.3c-0.6-0.4-1.4-0.8-2.2-1.2c-1-1-1-2.1,0-3.1
		c0.4-0.4,0.9-0.7,1.6-1c0.6-0.2,0.8,0,0.6,0.6c0,1.3,0.6,2,1.9,2.2S302.9,353.5,302,354.8z M198.1,252.1c0.6,0.6,0.8,1,0.6,1.3
		c-0.4,0.4-0.8,0.4-1.3,0c-0.6-0.6-0.8-1.2-0.6-1.9l0.3,0.3c0.2,0.2,0.4,0.3,0.5,0.2C197.7,251.8,197.9,251.9,198.1,252.1z
		 M208.4,256.7c1-0.6,2.1-0.4,3.1,0.6c0.8,0.8,1,1.2,0.6,1.3c-1.7,1.7-3,1.7-3.8,0C207.8,258,207.8,257.3,208.4,256.7z M313,361.3
		c0.6-0.6,1.2-0.7,1.6-0.3c0.6,0.6,0.7,1.1,0.3,1.6c-0.4,0.8-1,1-1.6,0.3C313.1,362.6,313,362.1,313,361.3z M187.2,234.3
		c-1.7-0.4-2.3-1-1.9-1.9c0.6-1.1,1.6-1,2.8,0.3c0.2,0.2,0.3,0.4,0.3,0.6c0,0.2,0.2,0.5,0.6,0.9c0.4-0.8,0.9-1.2,1.6-1l-0.3,0.3
		l-0.9,0.3C188.8,234.2,188.1,234.3,187.2,234.3z M208.8,251.4c-0.4,0-0.8,0.2-1.3,0.6c-0.4,0-0.7,0.1-0.8,0.2
		c-0.1,0.1-0.4,0.2-0.8,0.2c0-0.4-0.1-0.7-0.3-0.9h1.9c0.2-0.2,0.5-0.1,0.9,0.3l0.9-0.3l-0.3,0.3L208.8,251.4z M188.9,227
		c0.6,0.6,0.6,1.3,0,1.9l-0.9-0.3c-0.6-0.6-0.6-1.3,0-1.9L188.9,227z M317.2,352.8c0.4,0.4,0.4,0.6,0,0.6c-0.2,0.2-0.4,0.2-0.6,0
		c-0.6-0.6-0.5-0.9,0.3-0.9L317.2,352.8z M185.5,219.8c0.2,0.2,0.2,0.4,0,0.6c-0.4,0-0.7,0.1-0.9,0.3v-0.6c0.2-0.2,0.4-0.3,0.5-0.2
		C185.1,220.1,185.3,220.1,185.5,219.8z M221.6,254.1c0.8,0,1,0.2,0.6,0.6c-0.4,0.4-0.9,0.6-1.3,0.6c-0.6,0.6-1,0.5-0.9-0.3
		C219.8,254.4,220.4,254.1,221.6,254.1z M220.4,249.7c-0.4,0.4-1,1-1.6,1.6s-1.4,0.3-2.2-0.9c-0.6-0.6-0.4-1.5,0.7-2.5
		c0.6-0.2,1.3-0.6,1.9-1.3c0.6-0.6,1.4-0.5,2.2,0.3c0.8,0.4,0.9,0.8,0.3,1.3C221.1,248.5,220.6,249,220.4,249.7z M209.8,242.2
		c-0.4,0-0.7-0.1-0.9-0.3s-0.1-0.5,0.3-0.9h1.3C210.4,241.4,210.2,241.8,209.8,242.2z M191.5,222.6c-0.6,0.6-1.4,0.5-2.2-0.3
		c-0.4-1.3-0.4-2.1,0-2.5c0.8-0.8,1.8-0.8,2.8,0.3C192.3,221.1,192.1,222,191.5,222.6z M229.8,254v0.6l-0.3,0.3v-0.6L229.8,254z
		 M207.7,230v1.3l-0.6,0.6c-1-0.2-1.1-0.7-0.3-1.6C207.2,230.3,207.5,230.2,207.7,230z M198.4,220h-1.3v-0.6l0.9-0.3
		c0.2,0.2,0.3,0.4,0.2,0.5C198.1,219.7,198.2,219.8,198.4,220z M228.3,247.4l-0.6-0.6h1.3l0.3,0.3
		C228.8,247.5,228.5,247.6,228.3,247.4z M198.8,210.9c1,1,0.9,2.2-0.3,3.5c-0.6,0.6-1.4,0.5-2.2-0.3c-1.5-1.5-1.4-2.5,0-3.1
		C197.1,210.1,198,210.1,198.8,210.9z M183.2,195.3c0.6,0.6,0.5,1.1-0.3,1.6c-0.8,0.8-1.5,0.6-1.9-0.6c-0.2-0.2,0-0.6,0.6-1.3
		C182.3,194.8,182.8,194.9,183.2,195.3z M214,227.4c-0.2,0.2-0.3,0.4-0.2,0.5s0,0.3-0.2,0.5l-0.9-0.3c0-0.4,0.1-0.7,0.3-0.9
		C213.7,226.5,214,226.6,214,227.4z M244.9,254.5c0.2,0.2,0.4,0.3,0.6,0.3c0.2,0,0.4,0.1,0.6,0.3l-0.3,0.9l-0.9-0.3L244.9,254.5z
		 M330.8,335.3c0.8-0.4,1.6-0.3,2.2,0.3c0.2,1,0,1.7-0.6,1.9c-0.8,0.8-1.5,0.6-1.9-0.6C330.1,336.5,330.2,336,330.8,335.3z
		 M158.1,160.7c-0.2,0.2-0.3,0.4-0.2,0.5s0,0.3-0.2,0.5s-0.4,0.2-0.6,0c-0.2-0.2-0.1-0.5,0.3-0.9
		C157.7,160.5,157.9,160.5,158.1,160.7z M253.1,255l0.3,0.3v0.6c-0.6,0.6-1,0.5-0.9-0.3L253.1,255z M325.6,325v0.6
		c-0.4,0.4-0.6,0.2-0.6-0.6C325.2,325.2,325.4,325.2,325.6,325z M243.2,235c0.2,0.2,0.4,0.3,0.5,0.2s0.3-0.1,0.5,0.2l-0.3,0.3
		c-0.6,0.6-1,0.5-0.9-0.3L243.2,235z M174.1,163.4c0.6,0.6,0.8,1,0.6,1.3c-0.6,0.6-1.2,1-1.6,1c-0.4,0-0.6-0.4-0.6-1.3
		C173.2,163.7,173.7,163.4,174.1,163.4z M249.8,234.6c0.6-0.6,1.4-0.5,2.2,0.3c1.5,0.6,1.5,1.2,0,1.9c-0.2,0.2-0.7,0.3-1.6,0.3
		C249.6,236.3,249.4,235.4,249.8,234.6z M343.2,322.3c-0.2,0.2-0.2,0.4,0,0.6s0.2,0.4,0,0.6c-0.6,0.6-1.3,0.6-1.9,0l-0.3-0.9
		C341.5,322.2,342.2,322.1,343.2,322.3z M296.9,273.4c-0.6,0.6-1.3,0.6-1.9,0c-0.8-0.8-0.9-1.6-0.3-2.2c0.8-0.8,1.6-1,2.2-0.3
		C297.7,271.7,297.7,272.6,296.9,273.4z M309.8,275.5c0.6,0.6,0.8,1.5,0.6,2.5c-0.6,0.6-1.3,0.6-1.9,0c-0.8-0.8-0.9-1.8-0.3-2.8
		C308.6,274.8,309.1,274.9,309.8,275.5z M315.7,282c0.8-0.8,1.7-0.9,2.5,0c0.6,0.6,0.6,1.3,0,1.9c-0.8,0.8-1.6,1-2.2,0.3
		C315.1,283.4,315,282.7,315.7,282z M323.4,290.4h0.6c0.4,0.4,0.2,0.6-0.6,0.6C323.6,290.9,323.6,290.6,323.4,290.4z M283.3,249
		c0.4,0,0.7-0.1,0.9-0.3l0.3-0.3c0.4,0.4,0.6,0.8,0.6,1.3c0,0.4-0.5,0.5-1.6,0.3C283.6,249.6,283.5,249.2,283.3,249z M340,300.6
		c0,0.4-0.3,0.9-1,1.6c-0.8,0-1.3-0.2-1.3-0.6c0-0.8,0.2-1.3,0.6-1.3c0.4,0,0.7,0,0.8,0.1C339.3,300.6,339.6,300.6,340,300.6z
		 M308.3,267.6l-0.3,0.3l-0.3-0.3l0.3-0.3L308.3,267.6z M271.9,226.2c0.4-0.4,0.8-0.5,1.3-0.3c0.4,0.2,0.9,0.4,1.6,0.6
		c1.2,1.2,1.4,2.3,0.6,3.1c-1.1,1.1-2.1,1.1-3.1,0C271.4,228.8,271.3,227.7,271.9,226.2z M325.1,280.7h-1.3
		c-0.6-0.6-0.5-0.9,0.3-0.9h0.6C325.2,280.1,325.3,280.5,325.1,280.7z M165.5,119.8v-0.6l0.3,0.3L165.5,119.8z"/>
	<path id="XMLID_1536_" class="st1" d="M204,527.1l2.9,2.9c0.3,0.3,0.5,0.8,0.6,1.6c0.1,0.7,0.6,0.9,1.6,0.6l10.7,10.7
		c0.5,3.4,2.4,5.3,5.8,5.8l2.2,2.2c3.7,6.3,8.3,10.9,13.6,13.6l5.1,5.1c0.3,2.9,1.8,4.4,4.4,4.4l2.2,2.2c-0.2,0.2,0,0.8,0.5,1.9
		c3.1,3.7,6.4,7.2,10,10.4s7.1,6.5,10.7,9.7c0.2,0.2,0.6,0.2,1.2,0.2l2.9,2.9c1.3,2.9,3,5.3,5.2,7.2s4.6,3.6,7.2,5.2l3.6,3.6
		c0.5,1.1,0.9,2.4,1.3,3.8c0.4,1.4,1.4,2.5,3,3.5c1.5,0.8,2,2.3,1.7,4.6c-0.2,1.8-0.6,3.1-1.4,4.1c-0.8,1-1.7,1.9-2.6,2.9
		c-2.1,2.4-4.2,4.8-6.4,7.1s-4.6,4.4-7.3,6.1c-2.8,1.8-4.7,4.5-5.6,8.1l-2.9,2.9c-2,0.7-3.3,1.2-3.9,1.7c-0.7,0.5-1.5,1.5-2.5,3.2
		c-0.2,0.5-0.4,0.8-0.6,0.9c-0.2,0.1-0.5,0.3-0.9,0.6c-0.5,0.8-1.1,1.5-1.7,2.2c-0.7,0.7-1.1,1.5-1.5,2.4l-4.2,4.2
		c-1.6,0-3.1,0.5-4.4,1.5c-1.3,1-2.6,1.8-3.9,2.5c-4.9,1.9-9.8,2.8-14.7,2.6s-9.8-1-14.7-2.3c-3.9-0.7-7.7-1.6-11.3-2.8
		s-6.6-3.8-8.9-7.7c0-0.3-0.2-0.5-0.5-0.5s-0.6-0.1-0.7-0.2c-1.9-2.3-4.1-4.2-6.6-5.8c-2.4-1.6-4.4-3.8-5.8-6.6
		c-1.9-3.9-4.5-6.5-7.8-7.8c-3.4-1.5-6-3.5-7.9-6.2s-3.7-5.4-5.5-8.1c-2.1-3.7-3.8-7.5-5.1-11.4s-1.9-8-1.7-12.4
		c0-0.7,0-1.3-0.1-1.8c-0.1-0.6-0.6-0.7-1.6-0.4c-3.1,0.5-5.9,0.2-8.4-0.9c-2.5-1.1-5.1-2.1-7.7-3c-1.6-0.6-3.3-1.2-5-1.6
		c-1.7-0.4-3.1-1.2-4.3-2.3c-2.3-1.9-4.7-3.7-7.2-5.2s-4.3-3.9-5.2-7.2c-0.6-0.6-1.2-1.1-1.7-1.2c-2.4-1.1-4.4-2.7-5.8-4.6
		c-1.5-1.9-3.2-3.6-5.3-5.1c-0.8-0.5-1.3-1.3-1.6-2.3c-0.2-1.1-0.8-1.8-1.6-2.3c-2.8-2.1-5.4-4.4-7.9-6.9s-4.7-5.3-6.4-8.4
		c-2.1-3.4-4-6.8-5.7-10.1s-2.7-7.1-3-11.3c-0.2-1.1-0.1-2.3,0.2-3.4c0.3-1.1,0.3-2.2,0-3.2c-1-3.9-0.8-7.5,0.5-10.9
		c1.3-3.4,2.7-6.6,4.1-9.7c1.3-2.9,2.8-5.8,4.6-8.4c1.7-2.7,3.9-5,6.5-7c2.4-1.8,4.4-4,6-6.7s3.9-4.6,7-5.8l1-1
		c0.6-2.3,1.8-3.9,3.4-5.1c1.6-1.1,3.2-2.3,4.8-3.6c0.5-0.5,1.1-1,1.9-1.4c0.8-0.5,1.2-1,1.2-1.7c0.6-1.9,1.7-3.2,3.2-3.7
		c1.5-0.6,3.2-0.9,5-1.1c2.1-0.5,4.1-0.4,6.2,0.2c2,0.6,4,1.3,5.9,2.3l2.9,2.9c-0.2,0.8,0,1.5,0.5,1.9c0.5,0.5,0.9,0.9,1.2,1.2
		c3.2,3.6,6.5,7,9.8,10.3s6.6,6.6,9.8,9.8c1.1,1.1,2.2,1.5,3.2,1.2l8.7,8.7c1.8,2.8,3.9,5.3,6.4,7.7c2.5,2.3,4.9,4.8,7.2,7.4
		c0.8,0.8,1.5,1.1,2.2,0.7l2.2,2.2c0,2.6,0.7,4.3,2.2,5.1C200.4,525.8,202.1,526.5,204,527.1z M256.7,587.1c0.6,0,1-0.2,1-0.5v-0.5
		l-0.2-0.2c-0.3-0.3-0.7-0.2-1.2,0.2C255.9,586.8,256.1,587.1,256.7,587.1z M173.4,504.8c-0.2,0.2-0.2,0.3,0,0.5l0.2,0.2
		c0.6,0,0.7-0.2,0.2-0.7H173.4z M198.7,532.5c0.5-0.5,0.5-1,0-1.5s-1-0.5-1.5,0s-0.5,1,0,1.5c0.3,0.3,0.6,0.4,0.7,0.2
		C198.1,532.6,198.3,532.5,198.7,532.5z M260.1,597.4c0.5,0.5,0.9,0.4,1.2-0.2c0-0.3-0.1-0.6-0.2-0.7c-0.5-0.5-1-0.5-1.5,0
		c0.2,0.2,0.2,0.3,0.2,0.5C259.9,597,260,597.2,260.1,597.4z M264.8,603.9c0.8,0.2,1.3,0.2,1.5,0c0.2-0.8,0-1.5-0.5-1.9
		c-0.3-0.3-0.7-0.2-1.2,0.2C264.2,602.9,264.3,603.4,264.8,603.9z M186.8,523.5c-0.5,0.5-0.5,1,0,1.5l0.7,0.2c0.5-0.5,0.5-1,0-1.5
		C187.2,523.7,186.9,523.6,186.8,523.5z M271.1,608.3l0.2,0.2c0.3,0,0.3-0.2,0-0.5L271.1,608.3z M238.5,576.7
		c-0.5,0.5-0.4,0.9,0.2,1.2h0.5c0.6-0.3,0.7-0.7,0.2-1.2C239.2,576.4,238.8,576.4,238.5,576.7z M279.1,620.7c0.8,0.2,1.3,0,1.5-0.5
		c0.2-0.8,0.1-1.2-0.2-1.2c-0.8-0.2-1.3,0-1.5,0.5C278.5,619.8,278.6,620.2,279.1,620.7z M253.6,595.7v-0.5l-0.5,0.5H253.6z
		 M185.5,529.1h0.5c0-0.3-0.1-0.4-0.2-0.2L185.5,529.1z M218.3,561.4h-0.5l0.2,0.2L218.3,561.4z M143.8,486.8l-0.2-0.2l-0.5,0.5h0.5
		L143.8,486.8z M281.5,625.5c-0.2-0.2-0.2-0.3-0.2-0.5s-0.1-0.3-0.2-0.5c-0.6,0-1,0.2-1,0.5l0.2,0.7c0.3,0,0.5,0,0.6-0.1
		C281,625.6,281.2,625.5,281.5,625.5z M224.4,570.4c0.3-1.6,0-2.6-1-2.9c-0.5-0.2-1.1-0.5-1.7-1c-0.6-0.5-1.1-0.4-1.5,0.2
		c-0.6,0.6-0.7,1.3-0.2,1.9c0.5,0.6,1.1,1.3,1.7,1.9C222.6,571.4,223.4,571.4,224.4,570.4z M283.7,632.6c1,1,1.8,1.1,2.4,0.5
		c0.6-0.6,0.8-1.5,0.5-2.4c-0.6-0.6-1.5-0.7-2.7-0.2c-0.6,0.3-0.9,0.6-0.7,1C283.4,631.7,283.5,632.1,283.7,632.6z M262.8,609.3
		l0.7-0.2c0.3-0.3,0.5-0.7,0.5-1c-0.3-0.3-0.7-0.2-1.2,0.2V609.3z M153.2,500.7c0.3,0.3,0.7,0.2,1.2-0.2c0.3-0.3,0.2-0.7-0.2-1.2
		c-0.3-0.3-0.7-0.2-1.2,0.2C152.7,499.8,152.7,500.2,153.2,500.7z M138.4,483.9h-1c-0.3,0.3-0.4,0.6-0.2,0.7
		c0.5,0.5,0.9,0.6,1.2,0.2V483.9z M157.1,507c0.5-0.5,0.6-0.9,0.2-1.2c-0.6-0.3-1.1-0.3-1.5,0c-0.8,0.2-0.9,0.6-0.2,1.2
		C156.1,507.5,156.6,507.5,157.1,507z M122.6,473.4v-0.5l-0.2,0.2L122.6,473.4z M184.8,537.1c-0.5,1.1-0.5,1.9,0,2.4
		s1.1,0.4,1.7-0.2c0.6-0.6,0.6-1.4-0.2-2.2C185.8,536.6,185.3,536.6,184.8,537.1z M264.3,615.6l-0.2,0.2h0.5L264.3,615.6z
		 M234.1,587.9l0.7,0.2c0.5-0.2,0.5-0.5,0-1h-1c0.2,0.2,0.2,0.3,0.1,0.4C233.9,587.6,234,587.7,234.1,587.9z M146.2,499.4v-0.5
		c-0.2-0.2-0.3,0-0.5,0.5C145.9,499.3,146,499.3,146.2,499.4z M219.6,573.3c-0.5-0.5-0.7-0.4-0.7,0.2c-0.2,0.2-0.2,0.3,0,0.5
		c0.2-0.2,0.3-0.2,0.4-0.1c0.1,0.1,0.2,0,0.4-0.1C219.4,573.6,219.4,573.5,219.6,573.3z M194.3,551.4c0-0.7,0.2-1.2,0.5-1.7
		s0.2-1.1-0.5-1.7c-1.3-0.6-2-0.6-2.2,0.2c-0.6,1-0.4,2,0.7,3.2C193.3,552.6,193.8,552.6,194.3,551.4z M214,569.2h-0.5l0.2,0.2
		L214,569.2z M134,491.7c-0.6-0.6-1.5-0.7-2.7-0.2c-0.5,0.2-0.3,0.6,0.5,1.5c0.6,1.3,1.5,1.5,2.4,0.5
		C134.7,492.9,134.6,492.4,134,491.7z M186,548.5c-0.2,0.2-0.1,0.4,0.2,0.7l0.2-0.2c0.2-0.2,0.2-0.4,0.2-0.7
		c-0.2,0.2-0.3,0.2-0.4,0.1C186.3,548.3,186.2,548.4,186,548.5z M193.1,559.9c0.6,0.6,1.2,0.7,1.7,0.2c0.3-0.3,0.6-0.6,1-0.7
		c0.3-0.2,0.5-0.4,0.5-0.7c-0.2-0.5-1-0.7-2.4-0.5C193.3,558.4,193.1,559,193.1,559.9z M175.2,570c3.3-2.3,5.3-5.1,6.1-8.3
		c0.8-3.3,1.3-6.6,1.5-10c0.2-2.1-1-4.4-3.4-6.8c-2.4-2.1-4.9-4.3-7.5-6.6s-4.9-4.9-6.8-7.8c-1-1.6-2.1-3.1-3.3-4.5
		c-1.2-1.4-2.7-2.5-4.5-3.3c-1.9-1-3.5-2.2-4.6-3.6c-1.1-1.5-2.2-3-3.2-4.6l-2.4-2.4c-1.6-1.9-3.6-3.2-5.8-3.6
		c-2.3-0.5-4.5-0.9-6.8-1.2c-2.6,0-5.1,0.2-7.4,0.6c-2.4,0.4-4.4,1.8-6.2,4.3c-0.2,0.5-0.5,0.9-1,1.2s-0.9,0.7-1.2,1
		c-1.3,0.7-2.2,1.6-2.8,2.8c-0.6,1.2-1.1,2.4-1.6,3.5c-1,2.6-1.4,5.1-1.4,7.4c0.1,2.4,0.2,4.8,0.3,7.2c0,3.2,1.3,5.8,3.9,7.8
		c1.6,1.6,3.2,3.2,4.6,4.6c1.5,1.5,2.8,3,4.1,4.6c1.9,2.3,4.1,4.4,6.3,6.3c0.8,0.8,1.7,1.5,2.6,2.1c0.9,0.6,1.7,1.3,2.3,2.3
		c3.1,4.7,6.8,8.3,11.2,10.7c8.3,5,16.1,4.8,23.4-0.6c0.7-0.7,1.3-1.2,2-1.7C174.2,571,174.7,570.5,175.2,570z M220,646.2
		c1.8,1.8,3.2,2.8,4.1,3.2c1,0.3,3.2,0.8,6.8,1.4c4.9,0.6,9-0.1,12.3-2.1c3.3-2.1,6.3-4.9,8.9-8.5c2-2.6,3.2-5.5,3.8-8.7
		c0.6-3.2,0.2-6.4-1.1-9.6c-1.8-3.7-4.4-6.8-7.8-9.2c-1.9-1.3-3.2-2.5-3.6-3.6c-1.6-2.9-3.6-4.9-5.8-5.8c-2.6-1.3-4.8-3-6.7-5.2
		s-3.8-4.4-5.7-6.7c-2.1-2.8-5.4-4.7-9.9-5.9s-8.2-0.8-11.1,1.1c-2.4,1.8-4.9,3.6-7.2,5.5c-2.4,1.9-4.2,4.4-5.5,7.7
		c-0.8,1.8-1.2,3.5-1.1,5.3c0.1,1.7-0.3,3.5-1.1,5.3c1.3,1,2.1,2.2,2.4,3.6c0.3,1.5,0.7,2.9,1.2,4.4c1.1,4.4,3.5,7.4,7,9
		c2.6,1.3,4.8,3.3,6.6,6.1c1.3,1.9,2.7,3.7,4.3,5.2c1.5,1.5,3.3,3,5.2,4.3C218.1,644.1,219.4,645.2,220,646.2z M268.2,633.6
		c-0.2,0.2-0.2,0.3,0,0.5l0.2-0.2L268.2,633.6z M262.1,630.4c-0.5,0.5-0.5,1,0,1.5s0.9,0.6,1.2,0.2c0.6-0.6,0.6-1.3,0-1.9
		C263,629.8,262.6,629.9,262.1,630.4z M117.8,488.5c0.3,0,0.4-0.1,0.2-0.2c0.2-0.2,0.2-0.3,0.1-0.4c-0.1-0.1-0.2,0-0.4,0.1l-0.2,0.2
		L117.8,488.5z M191.4,563.1c0.5-0.5,0.4-1.1-0.2-1.7c-0.6-0.6-1.1-0.6-1.5,0c-0.3,0.6-0.2,1.2,0.2,1.7
		C190.4,563.6,190.9,563.6,191.4,563.1z M203,579.1c1,0.3,1.9,0.3,2.9,0c1.1-0.5,1.2-1.2,0.2-2.2c-0.6-0.6-1.5-0.7-2.7-0.2
		C202.7,577.5,202.6,578.3,203,579.1z M111.2,482.9l-0.2,0.2l0.2,0.2V482.9z M273.5,645.7h-1l-0.2,0.2l-0.2,0.2
		c0.5,0.5,0.9,0.6,1.2,0.2C273.3,646.1,273.3,645.9,273.5,645.7z M127,503.6l-0.2-0.2v0.5L127,503.6z M109.5,491.9
		c0.6,0.6,1.3,0.6,1.9,0c0.5-0.5,0.4-1.1-0.2-1.7c-0.6-0.6-1.3-0.6-1.9,0C108.8,490.7,108.8,491.3,109.5,491.9z M266.2,646.7
		l0.2,0.2c0.6,0,0.7-0.2,0.2-0.7l-0.2-0.2C266.3,646.1,266.2,646.4,266.2,646.7z M269.1,653.5c0.5-0.5,0.6-0.9,0.4-1.3
		c-0.2-0.4-0.4-0.9-0.6-1.3c-0.8-1.5-1.8-1.6-2.9-0.5c-0.6,0.6-0.6,1.4,0.2,2.2C267.3,653.6,268.3,654,269.1,653.5z M255.8,638.2
		l-0.2-0.2l-0.2,0.2H255.8z M197.5,581.3v-1H197c0,0.3,0.2,0.6,0.7,0.7L197.5,581.3z M120.2,507c0.5,0.5,1.1,0.4,1.7-0.2
		c0.3-1,0.2-1.5-0.2-1.7c-0.3-0.3-0.7-0.2-1.2,0.2C119.8,505.9,119.7,506.5,120.2,507z M115.1,500.9h1c-0.2-0.2-0.2-0.3,0-0.5
		c-0.2,0.2-0.3,0.2-0.4,0.1c-0.1-0.1-0.2,0-0.4,0.1L115.1,500.9z M192.8,583.5c0.3,0.6,0,0.9-1,0.7s-1.1,0.2-0.2,1
		c1,0.6,2.3,0.5,3.9-0.5c0.8-0.8,0.9-1.5,0.2-2.2C194.6,581.7,193.6,582,192.8,583.5z M253.1,649.1c1,0.3,1.5,0.2,1.7-0.2
		c0.8-0.8,0.7-1.2-0.2-1.2c-0.8-0.8-1.4-0.7-1.7,0.2C252.5,648.2,252.6,648.6,253.1,649.1z M265.7,660.8c0.6-0.6,0.7-1.2,0.2-1.7
		s-1-0.5-1.5,0s-0.5,1,0,1.5C265,661,265.4,661.1,265.7,660.8z M110.7,503.8l-0.2-0.2l-0.2,0.2H110.7z M184.8,583.3
		c0.3-1,0.2-1.6-0.5-1.9c-0.8-0.8-1.5-0.9-2.2-0.2c-1,1-0.9,1.7,0.2,2.2C183.2,584.1,184,584.1,184.8,583.3z M264.8,664.7
		c0.6-0.6,0.6-1,0-1c-0.6-0.6-1.3-0.8-1.9-0.5c-0.5,0.5-0.6,0.9-0.2,1.2C263.2,665.1,263.9,665.1,264.8,664.7z M253.1,654.5
		c-0.2,0.5-0.3,1-0.5,1.5s0.1,0.9,0.7,1.2c0.3,0.3,0.7,0.2,1.2-0.2c0.3-0.6,0.2-1.5-0.2-2.7C254,653.9,253.6,654,253.1,654.5z
		 M191.6,594.9l-0.2,0.2h0.5L191.6,594.9z M170.2,577.9v0.5l0.2-0.2L170.2,577.9z M164.6,580.1c0-0.3,0-0.5-0.1-0.6
		s-0.1-0.3-0.1-0.6c-0.2,0.2-0.3,0.2-0.5,0.2s-0.3,0.1-0.5,0.2c0.2,0.2,0.2,0.3,0.2,0.5s0.1,0.3,0.2,0.5
		C164.2,580,164.5,579.9,164.6,580.1z M173.9,599.5c0.5,0.5,1,0.5,1.5,0c0.3-1.3,1.3-1.9,2.9-1.9c0.6,0,1.3,0,1.8,0.1
		c0.6,0.1,0.9-0.4,0.9-1.3c-0.3-1.6-1.3-2.4-2.9-2.4c-1-0.3-2,0.2-3.2,1.7c-1.1,1.5-1.5,2.7-1.2,3.6L173.9,599.5z M165.1,584
		c0.8,0.8,1.5,0.9,2.2,0.2c1-0.3,1.1-0.8,0.5-1.5c-0.2-0.5-0.5-0.7-1-0.7s-0.9,0.2-1.2,0.5C165.1,582.7,165,583.2,165.1,584z
		 M102.4,518.4c-1,0.3-1,0.5,0,0.5l0.2-0.2L102.4,518.4z M252.8,673.2c0.6-0.6,0.6-1.1-0.2-1.2c-0.2-0.2-0.3-0.2-0.5,0l-0.2,0.2
		c-0.5,0.5-0.6,0.9-0.2,1.2C252,673.7,252.4,673.6,252.8,673.2z M186,607.3l0.2-0.7c-0.2-0.5-0.6-0.7-1.2-0.7
		c-0.5,0.5-0.6,0.9-0.2,1.2C185,607.2,185.4,607.3,186,607.3z M167.6,589.3h-0.5l0.2,0.2L167.6,589.3z M176.8,609.7
		c1,0.3,1.6,0.3,1.9,0c0.6-0.6,0.7-1.2,0.2-1.7c-0.5-1.1-1.2-1.2-2.2-0.2C176.5,608.4,176.5,609.1,176.8,609.7z M165.6,594.7
		c-0.5-0.5-1-0.5-1.5,0c-0.3,0.3-0.3,0.6,0,1c0,0.3,0.4,0.4,1.2,0.2C165.7,595.6,165.8,595.2,165.6,594.7z M88.8,522.8
		c0.3,0,0.6-0.1,0.7-0.2l-0.2-0.7l-0.7,0.2C88.4,522.2,88.5,522.4,88.8,522.8z M158.8,592.7v-1c-0.2-0.8-0.6-0.9-1.2-0.2
		c-0.3,0.3-0.3,0.6,0,1L158.8,592.7z M130.4,564.3l-0.2,0.7l0.7,0.7l0.2-0.7L130.4,564.3z M222.2,660c0.8-0.8,1-1.5,0.5-1.9
		c-0.6-0.6-1.2-0.7-1.7-0.2c-0.6,0.6-0.7,1.2-0.2,1.7C221.4,660.2,221.9,660.4,222.2,660z M123.3,558.7l-0.2,0.2
		c0,0.3,0.2,0.5,0.5,0.5v-0.5L123.3,558.7z M219.1,655.9h-0.5c0.2,0.2,0.2,0.3,0,0.5l0.2-0.2L219.1,655.9z M174.4,617.5
		c0.3,0.3,0.7,0.7,1.1,1.1c0.4,0.4,0.9,0.4,1.3-0.1c1.1-0.5,1.2-1.2,0.2-2.2c-0.8-0.8-1.8-1-2.9-0.5
		C173.6,616.3,173.7,616.9,174.4,617.5z M104.4,545.1h1l-0.5-0.5c-0.2-0.2-0.3-0.2-0.5,0C104.1,544.6,104.1,544.8,104.4,545.1z
		 M224.4,665.1l0.2-0.2c0-0.3-0.1-0.4-0.2-0.2l-0.2,0.2L224.4,665.1z M227.6,669.8c-0.5,0.5-0.4,0.9,0.2,1.2h1
		c0.5-0.5,0.6-0.9,0.2-1.2C228.6,669.3,228.1,669.3,227.6,669.8z M232.7,675.3c0.2-0.8,0.2-1.3,0-1.5c-0.5-0.5-0.9-0.6-1.2-0.2
		c-0.6,0.6-0.6,1.1,0,1.5C232,675.6,232.4,675.7,232.7,675.3z M204,647.2l0.2,0.2l0.2-0.2c0.3-0.3,0.2-0.5-0.5-0.5
		C204.2,646.8,204.2,647,204,647.2z M122.1,564.8c-0.3,0.3-0.4,0.6-0.2,0.7l0.5,0.5c0.6-0.3,0.8-0.6,0.5-1c-0.2-0.2-0.3-0.2-0.4-0.1
		C122.4,565,122.3,565,122.1,564.8z M144.5,591c0.3,0,0.6-0.2,1-0.5l-0.7,0.7c-0.3-0.3-0.6-0.6-0.7-1c-0.2-0.3-0.6-0.3-1.2,0
		c0,0.3,0.1,0.6,0.2,0.7C143.5,591.5,144,591.5,144.5,591z M218.3,665.9c0.5-0.8,0.5-1.5,0-1.9c-0.6-0.6-1.4-0.6-2.2,0.2
		c-0.3,0.6-0.2,1.2,0.2,1.7C217.4,666.2,218,666.2,218.3,665.9z M207.4,654.5V654l-0.2-0.2v0.5L207.4,654.5z M164.2,610.7l-0.2,0.2
		l0.2,0.2V610.7z M85.2,533.2L85,533v0.5L85.2,533.2z M112.9,562.4h0.5l0.2-0.2c0-0.7-0.2-0.7-0.7-0.2
		C113.1,562,113.1,562.2,112.9,562.4z M119.1,576.6c-0.1,0.1-0.3,0.1-0.6,0.1l0.2,0.2c0.2,0.2,0.3,0.2,0.5,0.2s0.3,0.1,0.5,0.2v-1
		C119.4,576.5,119.2,576.5,119.1,576.6z M133.3,591.5l0.2-0.2c0.3-0.3,0.2-0.5-0.5-0.5c-0.2,0.2-0.2,0.3,0,0.5L133.3,591.5z
		 M139.4,598.1c0.5-0.5,0.4-0.7-0.2-0.7c-0.2-0.2-0.4-0.1-0.7,0.2l0.2,0.7C138.8,598.5,139.1,598.4,139.4,598.1z M91.8,550.9
		c0.2-0.2,0.3-0.2,0.5,0H91.8c-0.3-0.3-0.7-0.7-1.1-1.1c-0.4-0.4-0.9-0.3-1.6,0.4c-0.5,0.5-0.5,1,0,1.5
		C89.7,552.3,90.6,552.1,91.8,550.9z M102.2,564.8l0.2,0.2h0.5L102.2,564.8z M118,582c0-0.7-0.1-1.1-0.2-1.2c-0.5-0.5-1-0.5-1.5,0
		s-0.4,1.1,0.2,1.7C117,582.7,117.5,582.5,118,582z M201.8,666.8l0.2,0.2h0.5c0-0.7-0.2-0.8-0.5-0.5L201.8,666.8z"/>
	<path id="XMLID_1494_" class="st1" d="M118.4,597.8l6.6,6.6c1.1,3.7,3.3,5.9,6.6,6.6l3.6,3.6c1,1.6,2.1,3.2,3.4,4.9
		c1.3,1.6,3,2.8,5.1,3.6l4.4,4.4c0.3,1.3,0.9,2.5,1.6,3.5c0.7,1,1.9,1.6,3.5,1.6l6.6,6.6c-0.2,0.8,0,1.2,0.4,1.1
		c0.4-0.1,0.8,0,1.1,0.4l0.7,0.7c0.8,1.5,1.6,2.8,2.3,4s2.1,2,4,2.3l13.1,13.1c0,1.9,1,2.9,2.9,2.9l2.9,2.9
		c-0.3,0.6-0.1,1.4,0.7,2.2c2.3,2.6,4.6,5.2,7,7.8s4.9,5,7.5,7.3c1.5,1.1,2.8,2.3,4,3.5s2.5,2.5,3.8,3.8c2.8,2.4,4.7,5.3,5.7,8.6
		c1.1,3.3,2.3,6.5,3.8,9.6c1.9,4.5,2.6,9,2.1,13.5c-0.6,4.5-0.7,8.9-0.4,13.5c0,0.3-0.2,0.6-0.5,1c-1.8,3.4-3.2,6.8-4.3,10.3
		s-3,6.6-5.7,9.4l-10.2,10c-0.5-0.5-0.9-0.6-1.2-0.2c-1.1,1.5-2.4,2.5-3.9,3.2c-1.5,0.6-3.1,1.2-4.9,1.7c-1.8,0.5-3.4,1.2-4.9,2.2
		s-3.2,1.2-5.3,0.7c-3.7,2.4-7.5,3.4-11.3,3s-7.7-0.9-11.5-1.6c-4.5-1-8.8-2.6-12.8-4.7c-4-2.2-7.7-4.7-11.3-7.7
		c-0.6-0.6-1.3-1.2-1.9-1.7c-0.6-0.5-1.5-0.6-2.4-0.2l-0.7-0.7c-0.3-1.6-1-3-1.9-4.1c-1-1.1-2-2.3-3.2-3.4c-2.4-2.4-3.8-5-4.3-7.7
		c-0.4-2.7-0.3-5.6,0.4-8.9c0.3-1.6,1.2-2.5,2.7-2.7h-0.5c0.8-2.4,2.7-4.3,5.6-5.6c3.1-1.5,6-1.8,8.7-1c2.8,0.8,5.2,2.4,7.3,4.9
		c2.1,2.1,4.3,4,6.4,5.7c2.2,1.7,4.7,3.1,7.4,4.3c3.9,2.3,8.3,3.2,13.1,2.9c2.4,0.2,4.7,0,6.8-0.5s3.8-1.9,5.1-4.1l1.2-1.2
		c1.9-1,3.4-2.2,4.3-3.8c0.9-1.5,1.7-3.3,2.3-5.2c1-2.9,1.3-5.6,0.9-7.9c-0.4-2.4-1.1-4.6-2.1-6.7c-1-2.1-2.1-4.2-3.5-6.2
		s-2.6-4.2-3.5-6.4c-1.9-0.7-3.4-1.9-4.5-3.8c-1.1-1.9-2.5-3.4-4.3-4.5c-4.2-3.2-8.2-6.9-11.9-10.9c-3.7-4.1-7.4-8.1-11.2-12.1
		c-0.8-0.8-1.9-1.6-3.2-2.4c-1.3-0.8-1.9-2.1-1.7-3.9c-1.6,0-2.8-0.5-3.6-1.5s-1.6-1.9-2.4-2.7c-2.8-2.4-5.2-5.1-7.4-7.9
		c-2.2-2.8-4.8-5.3-7.9-7.4c-0.6-0.3-1.4-0.7-2.2-1.2s-1.4-1.1-1.7-1.7c-0.5-1.1-1.1-2.1-1.8-2.8s-0.9-1.7-0.6-3
		c-1.3,0-2.3-0.3-3.2-1c-0.8-0.6-1.6-1.4-2.4-2.2c-1.3-1-2.4-2.1-3.4-3.4c-1-1.3-2-2.7-3.2-4.1c-1.9-2.3-4.1-4.3-6.4-6
		c-2.3-1.7-4.5-3.7-6.4-6c-2.1-2.1-4.3-3.8-6.7-5.2s-4.7-2.9-6.9-4.5c-2.1-1.5-4.2-2.1-6.3-1.9c-2.1,0.2-4.4,0.3-6.8,0.5
		c-4.9,0.3-9,2.5-12.4,6.6c-3.4,4-5,8.1-4.9,12.1c0.2,10.5,3.6,19.4,10.4,26.5l3.6,3.6c2.3,2.3,3.4,4.7,3.5,7.2s-0.4,5.1-1.3,7.7
		c-0.5,1.5-1.5,2.7-3,3.8s-3.2,1.9-5.1,2.7c-1.9,0.7-3.8,1.2-5.7,1.3c-1.9,0.2-3.6-0.1-4.9-0.7c-4.1-2.4-7.6-5.2-10.6-8.4
		s-6-6.5-8.9-10.1c-0.6-1-1-2-1-3.2c0-1.1-0.4-2.1-1.2-2.9c-3.1-3.4-5-7.1-5.7-11.1s-1.1-7.9-1.1-11.8c-0.2-5,0.3-10,1.3-14.9
		c1.1-4.9,3.1-9.6,6.2-14c1.1-1.5,2.3-2.9,3.4-4.4s2.2-3,3.2-4.6c3.9-5.8,9.3-10,16.3-12.4c1-0.3,1.9-0.6,2.8-0.9
		c0.9-0.2,1.9-0.6,3-1.1c2.8-1.5,5.6-2.4,8.5-2.7c2.9-0.3,6-0.5,9.2-0.5c2.6,0,5.1,0.3,7.7,0.9c2.5,0.6,5,1.4,7.4,2.6
		c3.1,1.5,6.1,2.9,9.1,4.3c3,1.4,5.8,3.2,8.4,5.5c0.8,0.8,1.7,1.2,2.7,1.2l2.9,2.9c0.6,1.6,1.5,2.9,2.7,3.9c1.1,1,2.2,2.1,3.2,3.4
		C116.3,597.8,117.2,598.3,118.4,597.8z M133.2,619.9l0.2-0.7l-0.7-0.2c-1,0-1.1,0.3-0.5,1C132.5,620.2,132.9,620.2,133.2,619.9z
		 M154.6,642.3c0.5-0.5,0.6-0.9,0.2-1.2c-0.3,0-0.6,0.1-0.7,0.2c-0.6,0.6-0.8,1.1-0.5,1.5C153.7,642.9,154.1,642.7,154.6,642.3z
		 M209.7,697.4l0.2-0.2l-0.2-0.2V697.4z M174.2,663.4c0.2-0.2,0.3-0.2,0.5,0l-0.2-0.2l-0.2-0.2C174.1,663.1,174.1,663.2,174.2,663.4
		z M199.8,693.3h0.5c-0.2-0.2-0.2-0.3,0-0.5c-0.5-0.5-0.7-0.4-0.7,0.2L199.8,693.3z M204.4,700.3c0.3,0,0.6-0.2,1-0.5
		c0-0.3-0.2-0.5-0.5-0.5c-0.5-0.5-0.7-0.4-0.7,0.2C204.5,699.9,204.5,700.2,204.4,700.3z M124.9,625.2c0.6,0.6,1.4,0.7,2.2,0.2
		c1-0.3,1.1-0.8,0.5-1.5c-0.6-1.3-1.5-1.5-2.4-0.5C124.5,624.2,124.4,624.8,124.9,625.2z M113,611.9c-0.6,0.6-0.6,1.1,0,1.5
		c0.3,0.3,0.6,0.3,1,0c0.5-0.5,0.5-1,0-1.5C113.7,611.6,113.3,611.6,113,611.9z M172.3,672.6c0.3,0,0.6-0.1,0.7-0.2l-0.2-0.2h-0.5
		C172.1,672.3,172.1,672.5,172.3,672.6z M98.9,599.2c0.3-0.3,0.2-0.5-0.5-0.5v0.5H98.9z M160.4,662.2l-0.2-0.7c-0.6-0.3-1-0.2-1,0.5
		c0,0.3,0.1,0.6,0.2,0.7c0.2-0.2,0.3-0.2,0.5-0.2C160.1,662.4,160.2,662.3,160.4,662.2z M164.5,672.1c-0.2,0.5-0.3,0.9-0.5,1.2
		s0.1,0.6,0.7,1c0.3,0,0.9-0.1,1.7-0.2c1-1,1.1-1.8,0.5-2.4C166.1,671.2,165.3,671.3,164.5,672.1z M86.3,593.9
		c0.3,0,0.6-0.1,0.7-0.2c0-0.3-0.1-0.6-0.2-0.7c-0.2-0.2-0.4-0.1-0.7,0.2C86,593.5,86.1,593.7,86.3,593.9z M160.1,667.8
		c0.3-0.3,0.2-0.5-0.5-0.5v0.5H160.1z M171.6,682.6c0.8-0.5,0.9-1.1,0.2-1.7c-0.3-0.3-0.6-0.4-0.7-0.2c-0.8,0.2-1.1,0.7-0.7,1.7
		C170.8,682.8,171.2,682.9,171.6,682.6z M61.7,576.7c0.3,0.3,0.7,0.2,1.2-0.2c0.3-0.3,0.3-0.6,0-1c0-1-0.4-1.1-1.2-0.2
		C61.6,575.4,61.6,575.8,61.7,576.7z M192.5,708.8c0.3,0.3,0.9,0.4,1.7,0.2c0.5-0.5,0.5-1,0-1.5c-0.6-0.6-1.2-0.7-1.7-0.2
		C192,707.9,192,708.3,192.5,708.8z M133.7,649.1c0.5-0.5,0.6-0.9,0.2-1.2c-0.5-0.5-0.9-0.6-1.2-0.2c-0.5,0.5-0.6,0.9-0.2,1.2
		C132.4,649.8,132.9,649.9,133.7,649.1z M199.8,715.6v-0.5l-0.2,0.2L199.8,715.6z M89.4,606.3v-1c-0.5-0.5-0.7-0.4-0.7,0.2v0.5
		C89,606.4,89.3,606.5,89.4,606.3z M212.1,736.3c-0.3,0.3-0.3,1.1,0,2.4c0.6,0.6,1.1,0.9,1.2,0.7c0.6-0.6,0.7-1.5,0.2-2.7
		C213.1,736.3,212.6,736.1,212.1,736.3z M195.1,734.8c0.3,0.3,0.6,0.5,1,0.5c0.5-0.5,0.6-0.9,0.2-1.2l-0.2-0.2
		c-0.2-0.2-0.3-0.2-0.5,0C195.3,733.9,195.1,734.2,195.1,734.8z M196.8,740.4c0.3,0,0.6-0.1,0.7-0.2l0.2-0.2c-0.5-0.5-0.8-0.6-1-0.5
		C196.5,739.8,196.5,740.1,196.8,740.4z M202.7,747.7c0.5-1.1,0.5-1.9,0-2.4c-0.2-0.5-0.6-0.6-1.2-0.5c-0.6,0.2-1.1,0.4-1.5,0.7
		c-0.6,0.6-0.6,1.4,0.2,2.2S201.9,748.5,202.7,747.7z M54.2,599.7c0.3-0.3,0.4-0.6,0.2-0.7l-0.2-0.2c-0.6,0-0.8,0.2-0.5,0.5
		L54.2,599.7z M38.4,587.8c0.3,0.3,0.6,0.4,0.7,0.2c0-0.3-0.1-0.4-0.2-0.2C38.7,587.7,38.6,587.7,38.4,587.8z M48.6,608.2
		c0.3,0.3,0.7,0.2,1.2-0.2c0.3-0.3,0.3-0.6,0-1c-0.6-0.6-1.3-0.6-1.9,0C47.9,607.3,48.1,607.8,48.6,608.2z M178.6,746v0.5
		c0.2,0.2,0.3,0.2,0.5,0c-0.2-0.2-0.2-0.3,0-0.5C178.9,746.2,178.8,746.2,178.6,746z M188.3,761.6c0.6,0,1-0.2,1-0.5l-0.2-0.2
		c0-0.3-0.2-0.3-0.5,0C188.3,761.1,188.2,761.4,188.3,761.6z M25.8,605.3c-0.2,0.8-0.1,1.2,0.2,1.2c0.3,0.3,0.7,0.2,1.2-0.2
		c0.3-0.3,0.2-0.7-0.2-1.2C26.3,605.1,25.9,605.2,25.8,605.3z M183,767.9c1.3,0.6,2.1,0.8,2.4,0.5c0.6-0.6,0.7-1.2,0.2-1.7
		s-0.8-1-1-1.5c-1-1-1.7-0.9-2.2,0.2C181.9,766.1,182,766.9,183,767.9z M171.6,753.1v-0.5l-0.2,0.2L171.6,753.1z M38.2,621.6
		c0.2-0.8,0.1-1.4-0.2-1.7c-0.5-0.2-1,0-1.5,0.5c-0.8,0.8-0.7,1.4,0.2,1.7C37.2,622.2,37.7,622.1,38.2,621.6z M31.9,615.3v0.5
		l0.2-0.2L31.9,615.3z M169.1,763.7c0.6,0.6,1.2,0.7,1.7,0.2c0.6-0.6,0.7-1.2,0.2-1.7c-0.6-0.6-1.3-0.6-1.9,0
		C168.3,762.4,168.3,762.9,169.1,763.7z M159.4,756c0.5,0.5,1.1,0.4,1.7-0.2v-1.5c-0.6-0.6-1.2-0.7-1.7-0.2
		C158.8,754.7,158.8,755.3,159.4,756z M169.6,771.5c0.3,0.3,0.6,0.2,1-0.5c0-0.7-0.1-1.2-0.2-1.7c-0.2-0.5-0.5-0.5-1,0
		C169.1,770.3,169.1,771,169.6,771.5z M35.7,636.2c-0.2-0.2-0.2-0.4-0.2-0.7c-0.3,0-0.4,0.1-0.2,0.2c-0.3,0.3-0.4,0.6-0.2,0.7
		C35.3,636.4,35.6,636.3,35.7,636.2z M30.6,639.3c0.3,0.3,0.8,0.5,1.5,0.5c0.5-0.5,0.5-1,0-1.5c-0.3-0.3-0.6-0.3-1,0
		C30.2,638.4,30,638.7,30.6,639.3z M43.8,657.3c-0.2-0.2-0.2-0.3-0.1-0.4c0.1-0.1,0-0.2-0.1-0.4h-0.5c-0.2,0.2-0.2,0.3-0.1,0.4
		c0.1,0.1,0,0.2-0.1,0.4H43.8z"/>
	<path id="XMLID_1425_" class="st3" d="M181.9,337.5l5.8,5.8c1.5,2.7,3.6,4.9,6.6,6.6l2.9,2.9c1.5,3.1,3.4,5.7,5.8,8
		c2.4,2.3,4.8,4.5,7,6.8c4.5,4.5,9.2,9,13.8,13.4c4.7,4.4,9.2,9.1,13.6,14.1c0.8,0.8,1.6,1.6,2.4,2.4c0.8,0.8,1.9,1.3,3.4,1.5
		l2.2,2.2c0,2.6,1.2,3.8,3.6,3.6l2.9,2.9c0,2.3,1.2,3.5,3.6,3.6l15.8,15.8c0,0.6,0.2,1,0.5,1s0.6,0.2,1,0.5l3.6,3.6
		c1,3.2,3.2,5.4,6.6,6.6l3.6,3.6c-0.2,1.5,0.3,2.4,1.5,2.9c1.1,0.5,1.8,1.1,1.9,1.9c0.5,2.1,1.3,3.4,2.6,4c1.2,0.6,2.6,0.9,4,1.1
		l1.5,1.5c0.5,2.4,1.7,3.6,3.6,3.6l2.9,2.9c0.3,1.9,1.1,3.4,2.3,4.3c1.2,0.9,2.6,1.7,4.3,2.3l2.9,2.9c0.6,1.6,1.4,3,2.3,4.3
		c0.9,1.2,2.3,2,4.3,2.3l2.7,2.7c0.3,1.3,0.9,2.2,1.6,2.8c0.7,0.6,1.4,1.3,2.1,2.3c1.8,2.8,3.2,5,4.3,6.7s1.5,3.2,1.5,4.6
		c-0.1,1.4-0.7,2.8-1.8,4.3s-2.9,3.4-5.3,5.8c-1.5,1.5-3.1,2.9-5,4.3c-1.9,1.4-3.3,2.9-4.3,4.5c-1.9,2.9-4.2,5.5-6.7,7.9
		c-2.5,2.3-5.2,4.7-8.1,6.9c-1.1,1.1-1.3,2.1-0.5,2.9l-4.4,4.4c-0.6,0-1.3,0.2-1.9,0.7c-0.6,0.5-1.2,1-1.7,1.5
		c-1.6,1.9-3.5,3.4-5.7,4.3c-2.2,0.9-4.4,1.8-6.7,2.8c-0.8,0.2-1.6,0.3-2.4,0.5c-0.8,0.2-1.5-0.2-2.2-1.2c-1-2.3-1.7-2.2-2.2,0.2
		c0,0.6-0.3,1-0.9,1.1c-0.6,0.1-1.1,0.2-1.6,0.4c-1.9,0.3-3.8,0.4-5.5,0.4c-1.7-0.1-3.5-0.1-5.5-0.1c-3.9,0-7.5-0.7-10.7-2.2
		s-6.6-2.9-10-4.4c-2.6-1-4.8-2.4-6.6-4.4c-1.8-1.9-3.6-4-5.3-6.1c-1.6-2.3-3.4-4.3-5.3-6.1c-1.9-1.8-3.9-3.6-5.8-5.6
		c-1.3-1.6-2.8-3.2-4.4-4.6c-1.6-1.5-3-2.9-4.1-4.4c-1.6-1.9-3.4-3.6-5.3-5.1c-1.9-1.5-3.7-3.2-5.3-5.1c-0.8-1.1-1.7-2.3-2.6-3.5
		c-0.9-1.2-1.9-2.1-3-2.6c-1.6-0.6-2.9-1.5-3.9-2.7c-1-1.1-1.9-2.3-2.7-3.4c-0.5-1.1-1.2-2.1-2.2-2.9s-1.9-1.5-2.9-2.2
		c-2.4-1.8-4.7-3.6-6.8-5.6c-2.1-1.9-4-4.2-5.6-6.8c-1.9-3.2-4.1-5.6-6.6-7c-2.3-1.3-4.1-2.7-5.5-4.3c-1.4-1.5-2.8-3.4-4.3-5.5
		c-0.6-1.3-1.5-2.3-2.4-2.9c-3.4-1.8-6.2-4.1-8.3-7c-2.1-2.9-4.7-5.4-7.8-7.5c-1.1-0.8-2.3-1.5-3.6-2.2c-1.3-0.6-2.4-1.7-3.2-3.2
		c-1.6-2.6-3.4-5-5.5-7.2c-2-2.2-3-5.1-3-8.6c-0.3-1-0.7-1.7-1.2-2.2c-1-1.6-1.6-3.2-1.9-4.9c-0.3-1.6-0.6-3.2-1-4.9
		c-0.6-2.9-0.7-5.8-0.2-8.5c0.5-2.8,1-5.5,1.5-8.3c0.3-3.9,1.2-7.6,2.7-11.2c1.5-3.6,3.6-6.8,6.6-9.7c0.8-0.8,1.6-1.7,2.3-2.6
		c0.7-0.9,1.1-2,1.1-3.3l0.7-0.7c1.1-0.5,2.2-1.3,3.3-2.3c1.1-1.1,2.1-1.9,3-2.6c4.1-2.4,7.6-5.5,10.6-9.1c3-3.6,5.8-7.4,8.4-11.3
		l1.5-1.5c1.6-1,3.2-1.6,4.9-1.9c1.6-0.3,3.3-0.6,5.1-0.7c4.5-1,8,0.4,10.4,4.1c0.6,1,1.5,2,2.4,3.2
		C179,336.9,180.3,337.5,181.9,337.5z M223.2,384.1c0,0.3,0.1,0.6,0.2,0.7c-0.2,0.2-0.2,0.2,0,0.2s0.3-0.1,0.5-0.2
		c0.2-0.2,0.1-0.4-0.2-0.7S223.2,383.8,223.2,384.1z M210.6,372.9c0.3,0,0.6-0.2,1-0.5c-0.2-0.2-0.2-0.4-0.2-0.7l-0.7,0.2
		L210.6,372.9L210.6,372.9z M329.7,492l0.2,0.2v-0.5L329.7,492z M297.4,460.2c-0.2,0.2-0.2,0.3,0,0.5c0.3,0,0.6,0.1,0.7,0.2v-1
		L297.4,460.2z M214.3,376.1l-0.2-0.2c-0.6,0-0.8,0.2-0.5,0.5c0.2,0.2,0.3,0.2,0.5,0L214.3,376.1z M245.1,413.8c1,0.3,1.6,0.3,1.9,0
		c0.3-0.6,0.3-1.3,0-1.9c-0.5-0.5-1.1-0.4-1.7,0.2C245,412.4,245,413,245.1,413.8z M204.3,371c0.3,0,0.6-0.1,0.7-0.2
		c0-0.7-0.1-1.1-0.2-1.2c-0.2-0.2-0.4-0.1-0.7,0.2c0,0.3,0,0.5,0.1,0.6C204.3,370.5,204.3,370.7,204.3,371z M185.8,355.9
		c0.3,0.3,0.6,0.6,0.7,1c0.2,0.3,0.6,0.3,1.2,0c0.6-0.6,0.5-1.5-0.5-2.4c-1-1-1.7-1.2-2.2-0.7c-0.8,0.5-0.9,0.8-0.4,1.1
		C185.3,355.1,185.7,355.4,185.8,355.9z M271.6,445.6c0.5,0.5,1.1,0.4,1.7-0.2c0.6-1.3,0.6-2.2-0.2-2.7c-0.5-0.5-1.1-0.4-1.7,0.2
		C270.5,443.7,270.6,444.6,271.6,445.6z M313.9,486.4c0.3,0,0.6-0.2,1-0.5c0.3-0.3,0.2-0.7-0.2-1.2c-0.3,0-0.6,0.1-0.7,0.2
		C313.4,485.4,313.4,485.9,313.9,486.4z M293.5,467.9c-0.8,1.1-0.9,1.8-0.1,2.1c0.7,0.2,1.5,0.4,2.3,0.6c0.6,0,1.2,0,1.7,0
		s0.7-0.5,0.7-1.5c-0.2-0.8-0.5-1.2-1-1.2s-1.1,0-1.7,0c-1,0-1.7-0.1-2.2-0.2v-0.5C293.4,467.4,293.5,467.6,293.5,467.9z
		 M199.2,371.7c0.2-0.2,0.1-0.4-0.2-0.7h-0.5l-0.2,0.7C198.5,372.1,198.9,372.1,199.2,371.7z M191.2,364.2c-0.3,0-0.5,0.1-0.6,0.4
		c-0.1,0.2,0.1,0.4,0.6,0.6c0.2,0.2,0.6,0.2,1.2,0.2c0.3-0.3,0.3-0.6,0-1C191.9,364,191.5,363.9,191.2,364.2z M290.6,464.1l-0.2-0.2
		v0.5L290.6,464.1z M187,363l0.2,0.2c0.3-0.3,0.4-0.6,0.2-0.7c-0.2-0.2-0.3-0.2-0.5,0L187,363L187,363z M283.5,459.9
		c-0.2-0.2-0.3-0.2-0.5,0l-0.2,0.2c-0.5,0.5-0.5,1,0,1.5l0.2-0.2l0.7-0.2C284.4,460.5,284.3,460.1,283.5,459.9z M163.5,344.3
		c1,0.3,1.7,0.1,2.2-0.7c0.5-0.5,0.5-1,0-1.5c-1-0.7-1.7-0.4-2.2,0.7C163,343.3,163,343.8,163.5,344.3z M276.2,453.6
		c-0.2,0.5-0.2,0.9,0,1.2c0.2,0.3,0.3,0.7,0.5,1.2c0.2,0.2,0.4,0.3,0.6,0.4c0.2,0.1,0.4,0.2,0.6,0.4c0.5-0.5,0.5-0.9,0.1-1.1
		s-0.6-0.7-0.6-1.3C277.4,453.7,277,453.5,276.2,453.6z M301.2,480.6c-0.2,0.5-0.1,0.9,0.2,1.2c0.3,0.3,0.6,0.3,1,0
		c0.5-0.5,0.6-0.9,0.2-1.2c-0.3-0.3-0.6-0.4-0.7-0.2C301.8,480.5,301.6,480.6,301.2,480.6z M248.8,427.1v0.5h0.5v-0.5H248.8z
		 M220.6,401.4c0.8,0.2,1.4,0.1,1.7-0.2c0.2-0.5,0.1-0.9-0.2-1.2c-0.8-0.8-1.4-0.7-1.7,0.2C220,400.5,220.1,400.9,220.6,401.4z
		 M201.4,381.2v-1c0.3-0.3,0.2-0.5-0.5-0.5c-0.5,0.5-0.6,1-0.5,1.5H201.4z M229.1,407.9l-0.2-0.2l0.2-0.2l0.2,0.2L229.1,407.9z
		 M315.6,497.8c0.8,0.2,1.3,0,1.5-0.5c0.5-0.5,0.5-1,0-1.5c-0.8-0.8-1.4-0.7-1.7,0.2C314.9,496.6,314.9,497.2,315.6,497.8z
		 M156.9,338.2c0.3,1,0.8,1.1,1.5,0.5c0.6,0,0.6-0.3,0-1c-0.5-0.5-0.8-0.6-1-0.5C156.6,337.4,156.4,337.7,156.9,338.2z M261.2,442
		c0.3-0.6,0.2-1-0.5-1c-0.6,0-0.9,0.1-0.7,0.2c-0.6,0.6-0.5,1,0.5,1C260.6,442.4,260.8,442.3,261.2,442z M175.4,360.1
		c0.6,0.6,1.4,0.7,2.2,0.2c1-0.3,1.1-0.8,0.5-1.5c-0.5-1.1-1.2-1.2-2.2-0.2C174.9,358.9,174.7,359.4,175.4,360.1z M290.1,471.4
		c-0.2,0.2-0.2,0.3,0,0.5l0.2-0.2l0.2-0.2L290.1,471.4L290.1,471.4z M278.4,460.7c-0.2-0.2-0.4-0.1-0.7,0.2c0,0.3,0.1,0.6,0.2,0.7
		l0.7-0.2L278.4,460.7z M270.4,453.1l0.2-0.2l-0.2-0.2V453.1z M181.7,364.9v1c0.2,0.2,0.3,0.2,0.5,0s0.3-0.2,0.5,0v-1
		c-0.2-0.2-0.3-0.2-0.5,0S181.9,365.1,181.7,364.9z M323.1,506.8l0.2-0.2l0.2-0.2c-0.2-0.2-0.3-0.2-0.5,0L323.1,506.8z M266.5,452.2
		c-0.8,0.2-0.9,0.6-0.2,1.2l0.7,0.2c1,0,1.1-0.3,0.5-1C267.3,451.8,267,451.7,266.5,452.2z M313.2,505.6c0.8,0.8,1.5,1,1.9,0.5
		c0.8-0.8,0.9-1.5,0.2-2.2c-1-1-1.9-1.1-2.7-0.2C312.2,504.2,312.3,504.8,313.2,505.6z M190.4,380l0.2-0.7l-0.2-0.2l-0.2,0.7
		L190.4,380z M159.8,350.3l-0.2,0.2c0.3-0.3,0.5-0.7,0.5-1v0.5L159.8,350.3z M279.1,471.6l0.2,0.2l0.2-0.2H279.1z M163.7,370.8
		c-1.5,0.5-2.8,1.1-4.1,1.7c-1.3,0.6-2.4,1.8-3.4,3.4c-0.2,0.5-0.8,1-1.9,1.5c-3.7,2.4-6.4,5.1-7.9,7.9s-1.8,6.7-0.9,11.5
		c0.5,2.7,1.1,5.5,1.8,8.4c0.7,2.8,2.6,5,5.7,6.4c0.8,0.2,1.5,0.6,1.9,1.5c0.5,0.8,1,1.6,1.5,2.4c1.1,2.4,2.7,4.1,4.6,5.1
		c3.2,1.9,6,4.4,8.3,7.3c2.3,2.9,4.9,5.5,7.8,7.8c1,1,1.1,1.9,0.5,2.9s-0.8,1.5-0.5,1.7s0.9,0.2,1.7,0c1.8-0.5,2.9,0.2,3.4,1.9
		c1.1,1.8,2.8,3.2,4.9,4.1c2.1,1,3.3,2.8,3.6,5.3c-0.3,0.3,0,0.5,1,0.5c3.4,2.1,6.4,4.7,9.1,7.7c2.7,3,5.3,5.9,7.9,8.9
		c3.2,3.2,6.6,6.5,10.1,9.8s6.9,6.5,10.3,9.6c1.8,1.8,3.5,3.6,5.2,5.5c1.7,1.9,3.6,3.5,5.7,5c2.9,2.3,5.5,4.7,7.9,7.4
		s4.8,5.3,7.4,7.9c1,1,1.9,1.5,2.7,1.7c2.8,0.8,5.5,0.9,8.3,0.2s5.5-1.1,8.3-1.3c0.3,0,0.7-0.2,1.2-0.7c2.6-2,5.1-4,7.5-6
		s4.3-4.6,5.8-7.7c1.5-3.4,1.7-6.7,0.5-9.8c-0.8-1.5-1.6-3-2.3-4.5s-1.9-2.8-3.5-3.8c-4.2-3.2-8-6.9-11.3-11.1
		c-3.3-4.1-7-7.9-11.1-11.3c-3.2-2.6-6.4-5.5-9.6-8.6c-3.2-3.1-6-6.6-8.4-10.3c-0.2-0.8-0.6-1.3-1.5-1.5c-1.8-0.2-3.2-0.9-4.3-2.1
		s-2.1-2.5-3-3.8c-1.1-1.8-2.5-3.4-4-5c-1.5-1.5-3-3-4.5-4.5c-2.4-2.1-4.7-4.3-6.7-6.4c-2-2.2-4.3-4.3-6.7-6.4
		c-2.9-2.6-5.5-5.3-7.8-8c-2.3-2.8-4.8-5.3-7.5-7.8c-3.1-2.4-5.9-5.1-8.5-8c-2.6-2.9-5.3-5.7-8.3-8.3c-2.6-1.9-5.1-3.9-7.6-6
		c-2.4-2.1-5.7-2.8-9.9-2.2c0.3-1,0.3-1.6-0.2-1.7c-0.3,0-0.5,0.2-0.5,0.5C162.3,370,162.7,370.4,163.7,370.8z M157.2,356.4
		c-0.6,0.6-0.6,1.4,0.2,2.2c0.5,0.5,1,0.5,1.5,0c0.8-0.8,0.8-1.5,0-1.9C158.2,356,157.6,355.9,157.2,356.4z M309,508.8
		c0.3-0.3,0.6-0.4,0.7-0.2c0-0.7-0.2-1-0.5-1c-0.2,0.2-0.4,0.2-0.7,0.2c0.2,0.2,0.2,0.3,0.2,0.5C308.8,508.4,308.9,508.6,309,508.8z
		 M314.1,513.9c0.5,0.5,0.7,0.4,0.7-0.2v-0.5h-1C313.9,513.5,314,513.7,314.1,513.9z M155.5,366.9l0.2,0.2l0.2-0.2H155.5z
		 M298.6,512.4c0.3,0.3,0.6,0.4,0.7,0.2l0.2-0.2v-0.5c-0.3,0-0.6-0.1-0.7-0.2c-0.2,0.2-0.2,0.3-0.1,0.4
		C298.8,512.1,298.7,512.3,298.6,512.4z M149.4,366.1c-0.3,1-0.2,1.5,0.2,1.7c0.5,0.5,1,0.5,1.5,0c0.6-0.6,0.7-1.2,0.2-1.7
		C150.7,365.5,150,365.5,149.4,366.1z M149.1,374.6c0.6,0.6,1.2,0.7,1.7,0.2s0.6-1.1,0.2-1.7c-0.3-0.6-0.8-0.6-1.5,0
		C149,373.8,148.8,374.3,149.1,374.6z M285.9,519.7c0.8-0.2,1.4,0.2,1.7,1s0.8,1.1,1.5,0.7c0.6-0.6,0.7-1.3,0.2-1.9
		c-0.5-0.7-0.9-1.1-1.2-1.5c-0.6-1-1.5-0.9-2.7,0.2C284.8,518.9,285,519.4,285.9,519.7z M294.2,531.4c0.6,0.6,1,0.6,1,0
		c0.3-0.3,0.3-0.6,0-1c-0.5-0.5-0.9-0.6-1.2-0.2C293.6,530.5,293.7,530.9,294.2,531.4z M140.2,385.6c0.5,0.5,1,0.5,1.5,0
		s0.5-1,0-1.5s-1.1-0.4-1.7,0.2C139.9,385,140,385.4,140.2,385.6z M287.6,532.1v0.5l0.2-0.2L287.6,532.1z M127.3,377.6l0.5,0.5
		c0.6,0,0.7-0.2,0.2-0.7c-0.2-0.2-0.3-0.2-0.5,0L127.3,377.6z M165.7,427.6c-0.2-0.2-0.4-0.1-0.7,0.2c0.3,0.3,0.6,0.4,0.7,0.2V427.6
		z M261.9,524.8v0.5l0.2-0.2L261.9,524.8z M211.6,477.4c0.2,0.2,0.4,0.1,0.7-0.2v-0.5c-0.2-0.2-0.3-0.2-0.5,0
		C211.5,476.7,211.4,476.9,211.6,477.4z M216.4,489.1c0.8,0.2,1.4,0.1,1.7-0.2c1.1-0.5,1.4-1.1,0.7-1.7c-0.2-0.8-0.8-1-1.9-0.5
		C216.1,487.5,216,488.3,216.4,489.1z M139.2,408.4c0-0.3-0.2-0.5-0.5-0.5s-0.6,0.1-0.7,0.2l0.2,0.7
		C138.5,408.9,138.9,408.7,139.2,408.4z M212.1,482.8l0.2-0.2h-0.5L212.1,482.8z M222.8,497.8c0.6,0,1.1-0.2,1.5-0.5
		c0-0.7-0.1-1.1-0.2-1.2c-0.3-0.6-0.8-0.6-1.5,0C222.2,496.8,222.3,497.3,222.8,497.8z M244.4,522.4c-0.5,0.5-0.4,1.1,0.2,1.7h1.5
		c0.6-0.6,0.7-1.2,0.2-1.7C245.7,521.7,245,521.7,244.4,522.4z M186.1,464.1c0.5-0.5,0.6-0.9,0.2-1.2c-0.6-0.6-1.3-0.8-1.9-0.5
		c-0.5,0.5-0.5,1,0,1.5C184.5,464.3,185.1,464.4,186.1,464.1z M251.4,530.4h0.5v-0.5L251.4,530.4z M140.6,421.1
		c0,0.6,0.2,0.7,0.7,0.2c0-0.3,0.1-0.6,0.2-0.7c-0.2-0.2-0.4-0.2-0.7-0.2C140.7,420.5,140.6,420.7,140.6,421.1z M168.8,454.1
		c0.2-0.5,0.5-0.8,1-1s0.6-0.4,0.2-0.7c-0.8-0.8-1.8-0.6-2.9,0.5c-1.1,0.5-1.3,1.1-0.5,1.9c0.5,0.5,0.9,0.6,1.2,0.2
		C168.2,454.7,168.5,454.4,168.8,454.1z M196.3,480.1c-0.3,0.3-0.4,0.9-0.2,1.7c0.5,0.5,0.9,0.6,1.2,0.2c0.5-0.5,0.5-1,0-1.5
		C196.9,480.3,196.6,480.1,196.3,480.1z M224.7,515.3c-0.6,0.6-0.6,1.1,0,1.5c0.5,0.5,0.9,0.6,1.2,0.2c0.6-0.6,0.6-1.2-0.2-1.7
		C225.4,515,225,515,224.7,515.3z M166.9,461.9c0.6-0.6,0.6-1.1-0.2-1.2c-0.3,0-0.6,0.1-0.7,0.2c-0.5,0.5-0.5,1,0,1.5
		C166.6,462.4,166.9,462.2,166.9,461.9z M229.1,526.5l0.2,0.2l0.2-0.2H229.1z M234.2,532.6l-0.2-0.2c-0.6,0-0.7,0.2-0.2,0.7
		c0.2,0.2,0.3,0.2,0.5,0C234,532.9,234,532.7,234.2,532.6z"/>
	<path id="XMLID_1367_" class="st1" d="M-73.5,600.7l-1.1,0.9l-1.1,0.9l-5.5,4.7c-1.4,0.4-2.6,0.7-3.5,1.1c-0.9,0.4-1.5,1.5-1.6,3.3
		l-10,8.5c-3.1,1.4-6,2.9-8.6,4.5s-4.6,4.2-5.8,7.8l-4.4,3.8c-1.4,0.4-2.5,0.8-3.2,1.5c-4.1,2.7-8.2,4.3-12.3,4.8
		c-4.1,0.5-8.3-0.6-12.7-3.2c-0.9-0.1-1.7-0.4-2.3-0.9c-0.6-0.5-1.4-0.8-2.3-0.9l-4.7-5.5c-1.5-4.2-4.9-8.2-10.1-11.8l-5.7-6.6
		c0.2-2.7-1.4-4.6-4.7-5.5l-1.9-2.2c-0.1-1.6-0.7-3-1.7-4.3l-14.6-17c-0.6-0.7-1.4-1.6-2.2-2.6c-0.8-1-1.8-1.4-3-1.3l-11.4-13.3
		c0.8-1.1,0.4-2.5-1.1-4.2c-3.7-5.3-5.6-9.7-5.5-13.2c0-3.4,1.6-7.6,4.7-12.4c0.3-0.7,0.6-1.3,0.8-2c0.3-0.7,0.3-1.4,0.2-2.1
		l6.6-5.7c1.6,0.8,2.9,1.1,4.1,1c1.2-0.1,2.3-0.3,3.5-0.4c3.9,0.1,7.6,0.6,11.1,1.7c3.5,1.1,6.4,3,8.7,5.7c2.7,3.7,5.5,7.2,8.3,10.8
		c2.8,3.5,5.9,6.9,9,10.2c3.2,3.2,6.2,6.6,9,10.2c2.8,3.5,6.2,6.6,10.2,9.2c4.1,3.3,8.2,4.3,12.2,3s7.9-2.8,11.5-4.5
		c3.7-1.7,7.1-3.9,10.3-6.6c3.7-3.6,7.5-6.9,11.4-9.8c3.9-2.9,7.7-6.2,11.4-9.8c2-2.1,4.3-4.1,6.8-5.9c2.6-1.8,4.7-3.8,6.5-6.2
		c3.6-5.2,5.5-10.7,5.5-16.3c0.1-5.6-1.7-11.1-5.5-16.4c-2.5-3.9-5.3-7.6-8.4-11.3c-3.2-3.7-6.2-7.2-9.2-10.7
		c-5.5-6.4-7-12.9-4.6-19.5c2.5-6.6,6.4-11.2,11.9-13.7c4.3-1.5,8.9-1.7,14-0.5s9.5,3.8,13.4,7.7c4.1,3.8,7.7,7.9,10.9,12.4
		c3.2,4.5,7,8.5,11.3,12.1c1.7,1.5,3.3,2.5,4.8,2.9c1.5,0.5,3.1,0.8,4.9,0.9c2,0.4,4,0.5,5.8,0.4c1.8-0.1,3.6-0.6,5.3-1.7
		c2.4-1.2,4.7-2.5,6.8-4c2.2-1.4,4-3.3,5.6-5.4c1.8-2.8,4-4.7,6.6-5.7s4.6-2.2,6.1-3.7s3-3.1,4.5-4.8c1.1-1.8,2.1-2.8,3-3.2
		c4.8-2.4,8.9-5.6,12.3-9.6s7.2-7.6,11.3-10.7c3.9-2.9,6.3-6.2,7.3-9.8c1-3.6,1.4-7.5,1.2-11.6c-0.3-1.9-0.6-3.5-1-4.9
		c-0.3-1.4-1.3-2.7-2.8-4c-4.1-3.8-7.4-7.9-9.9-12.3c-2.5-4.4-6.1-8.3-10.7-11.7c-0.6-0.7-0.9-1.3-0.9-1.8c-0.6-1.7-1.3-2.8-2.3-3.5
		s-2-1.6-3.1-2.8c-3-3.4-5.6-7.1-7.9-11.1s-3-8.6-1.9-13.8c0.4-2.5,1.2-4.7,2.2-6.7c1.1-2,2-4,2.9-6l2.2-1.9
		c0.9,0.1,2.3-0.1,4.2-0.4c4.3-1.5,8.2-2.4,11.8-2.7c3.6-0.3,7.2,1.2,10.9,4.4c0.4,0.5,1,0.9,1.6,1.2c0.7,0.3,1.5,0.2,2.4-0.2
		l5.7,6.6c0.9,3.1,2.4,5.8,4.5,8.3s4.1,4.8,6,7c1.5,1.7,2.9,2.4,4.3,2.1l5.7,6.6c0.6,6.7,3.8,10.4,9.5,11.1l2.8,3.3
		c-0.2,2.7,1.1,4.2,3.8,4.4l4.7,5.5c-0.6,1.3-0.3,2.3,0.6,3c1,0.7,1.7,1.5,2.1,2.4c2.5,3.9,5.3,7.5,8.7,10.8
		c3.3,3.4,5.5,7.6,6.4,12.7c0.3,2.8,0.3,5.1,0.2,6.9s-1.1,3.7-2.8,5.6c-1,1.3-1.6,2.5-1.8,3.5s-0.4,2.1-0.8,3.2l-7.7,6.6
		c-3.3,0.7-5.8,2.1-7.7,4.4s-3.6,4.5-5.2,6.7l-6.6,5.7c-4.8,2.8-9.2,6-13.3,9.5s-8.3,6.9-12.7,10.2c-1.2,1.1-1.8,2.4-1.7,4l-8.8,7.6
		l-2.1-0.2c-3.9,2.5-7.5,5.3-11,8.5s-6.9,6.2-10.3,9.2c-1,0.8-1.9,1.6-2.8,2.4c-0.9,0.7-1.2,1.9-1.1,3.5L4.7,533.5
		c-5.2,1.4-8.5,4.3-10,8.5l-4.4,3.8c-3.9,0.4-6.1,2.3-6.6,5.7l-3.3,2.8c-3.1,1.8-6.1,3.6-8.8,5.4c-2.8,1.7-5,4.4-6.6,7.9l-8.5,7.3
		c-3.4-0.5-5.2,1.1-5.5,4.7l-2.2,1.9c-0.7-0.3-1.3-0.6-2-0.8c-0.7-0.3-1,0-1.1,0.9c-0.8,1.5-1.7,2.7-2.8,3.4
		c-1.1,0.7-2.3,1.5-3.8,2.3c-2.1,1-2.9,2.5-2.4,4.6l-4.4,3.8C-70.7,595.7-72.5,597.3-73.5,600.7z M10.7,521.9
		c-1,0.8-1.2,1.6-0.5,2.4c0.4,0.5,1,0.4,1.7-0.2c1.2-1.1,1.3-1.7,0.2-2.1C11.7,521.6,11.2,521.5,10.7,521.9z M-10,540.4
		c-1.5-0.8-2.7-0.9-3.4-0.3s-0.7,1.4,0.2,2.4c0.4,0.5,1.3,0.6,2.7,0.2C-9.8,542.1-9.6,541.3-10,540.4z M-22.8,545.6
		c0.4,0.5,1,0.4,1.7-0.2l-0.3-1.1c-0.4-0.5-1-0.4-1.7,0.2C-23.1,545-23,545.3-22.8,545.6z M44.3,488.6l0.4-0.3
		c-0.4-0.5-0.8-0.6-1-0.4l-0.4,1C43.6,489.4,44,489.3,44.3,488.6z M-72.7,580.7c-0.7,0.6-0.8,1.3-0.2,2.1c0.8,1,1.6,1.2,2.4,0.5
		c0.7-0.6,0.8-1.3,0.2-2.1C-70.7,580.8-71.5,580.6-72.7,580.7z M-57.8,570.5l0.1-1.4l-0.4,0.3c-0.2,0.2-0.3,0.4-0.2,0.5
		c0.1,0.1,0,0.3-0.2,0.5L-57.8,570.5z M27,493.9c0.4,0.5,1,0.4,1.7-0.2c0.5-0.4,0.4-1-0.2-1.7c-0.4-0.5-1-0.4-1.7,0.2
		C26.3,492.6,26.4,493.1,27,493.9z M44.9,475.3c-0.3,1.1-0.4,1.8-0.2,2.1c0.6,0.7,1.3,0.8,2.1,0.2s0.8-1.3,0.2-2.1
		C46.8,475.2,46.1,475.1,44.9,475.3z M-135.3,630.1c-0.5,0.4-0.6,0.8-0.4,1l0.3,0.4l0.7,0.1c0-0.5,0.2-0.8,0.4-1
		c-0.2-0.2-0.4-0.3-0.5-0.2C-135,630.4-135.1,630.3-135.3,630.1z M-87.7,588.5l-0.1,1.4l1,0.4c0.7-0.6,0.9-1.2,0.5-1.7
		c-0.2-0.2-0.4-0.3-0.7-0.1C-87.3,588.8-87.5,588.8-87.7,588.5z M40.8,479.4c-0.2-0.2-0.6-0.2-1.1,0.3c0.4,0.5,0.5,0.8,0.3,1.1
		l1.1-0.3C41.3,480.3,41.3,479.9,40.8,479.4z M5.4,510.5l0.7-0.6c-0.4-0.5-0.8-0.6-1-0.4l-0.4,0.3L5.4,510.5z M-16.3,519.5
		c-1.2,1.1-1.4,2.1-0.6,3.1c0.4,0.5,1,1.2,1.7,2c0.7,0.9,1.6,1.1,2.5,0.7c1.5-1.3,1.5-2.8,0-4.5C-13.2,519.2-14.4,518.8-16.3,519.5z
		 M49.1,465.2c-0.4,0-0.7,0.4-0.8,1.3c-0.1,1.4,0.5,2.1,1.9,2.2c1.4,0.1,1.7-0.6,0.8-2C50.7,465.8,50.1,465.3,49.1,465.2z M75.1,441
		c-0.9-0.1-2.1,0.5-3.6,1.8c-2.1,1-2.4,1.9-0.9,2.7c0.8,1,2.1,0.7,3.8-0.7C75.2,444.1,75.4,442.9,75.1,441z M-125.6,610.8
		c1.1,0.8,2.1,0.7,3.1-0.1c0-0.5-0.1-0.8-0.3-1.1c-1.1-1.2-2.1-1.4-3.1-0.6C-126.3,609.5-126.2,610.1-125.6,610.8z M-59.6,554.2
		c-1.5-0.8-2.8-0.8-3.8,0.1c-0.7,0.6-0.8,1.3-0.2,2.1c1.8,1,3,1.3,3.7,0.6C-59.3,556.5-59.3,555.6-59.6,554.2z M-101.4,587.5
		c1.1,1.2,2,1.5,2.7,0.9c1-0.8,1.4-1.8,1.3-3s0.2-2.3,0.9-3.4c-0.6-0.7-1.6-0.9-3.1-0.6C-101.3,582.9-101.9,584.9-101.4,587.5z
		 M48.2,459c-0.2,0.2-0.2,0.6,0.3,1.1c0.2-0.2,0.4-0.3,0.5-0.1c0.1,0.1,0.3,0.1,0.5-0.1s0.2-0.6-0.3-1.1
		C48.9,458.7,48.5,458.8,48.2,459z M58.3,449.1c-0.7,0.6-0.9,1.2-0.5,1.7c0.6,0.7,1.2,0.9,1.7,0.5c0.2-0.2,0.4-1,0.5-2.4
		C59.6,448.4,59,448.4,58.3,449.1z M-91.4,578.3l-0.7-0.1l0.3,0.4L-91.4,578.3z M62.1,443.8c-0.2,0.2-0.3,0.4-0.1,0.7l0.7,0.1
		l0.1-0.7C62.6,443.6,62.4,443.6,62.1,443.8z M-85.8,568.4c-0.9-0.1-1.2,0.1-0.7,0.6l0.6,0.7l0.7-0.6
		C-85.1,568.2-85.4,567.9-85.8,568.4z M91.1,412.6c-0.5,0.4-0.7,1.2-0.5,2.4c0.8,1,1.7,1.3,2.7,0.9c1-0.8,1.1-1.8,0.2-2.7
		C92.6,412.1,91.8,412,91.1,412.6z M-76.2,559.4c0.2,0.2,0.2,0.5-0.1,0.7l0.7,0.1l0.1-0.7C-75.8,559.7-76,559.7-76.2,559.4z
		 M-35.2,523.6l-0.7-0.1c0.4,0.5,0.5,0.8,0.3,1.1l0.7,0.1C-34.2,524-34.3,523.7-35.2,523.6z M-5.7,498.3l-0.1,0.7
		C-5.3,499-5.3,498.8-5.7,498.3z M-118,592.1c-0.7,0.6-0.8,1.3-0.2,2.1c0.4,0.5,1,0.4,1.7-0.2s0.9-1.2,0.5-1.7
		C-116.6,591.5-117.2,591.5-118,592.1z M4.8,486.7c-1,0.8-1.3,1.5-0.8,2c0.6,0.7,1.2,0.9,1.7,0.5c0.7-0.6,0.9-1.2,0.5-1.7
		C6,486.3,5.5,486.1,4.8,486.7z M-141.9,612.7c0.8,1,1.8,1,2.7,0.2c0.7-0.6,0.7-1.4-0.2-2.4c-0.8-1-1.8-1.1-2.7-0.2
		C-142.8,610.9-142.8,611.7-141.9,612.7z M99,403.9c-0.7,0.6-0.8,1.3-0.2,2.1c0.6,0.8,1.3,0.8,2.1,0.2c1-0.8,1.2-1.6,0.5-2.4
		C100.7,403,99.9,403.1,99,403.9z M35.7,460.8l0.3,0.4l-0.4,0.3l-0.3-0.4L35.7,460.8z M-57.4,538.1c-1,0.8-1,1.3-0.1,1.4
		c0.4,0.5,0.9,0.5,1.4,0.1c1-0.8,0.9-1.4-0.2-1.7C-56.5,537.6-56.9,537.7-57.4,538.1z M68.9,427.8c-0.6-0.7-1.2-0.9-1.7-0.5
		c-0.8,1.5-0.9,2.7-0.3,3.4c0.8,1,1.6,1.2,2.4,0.5C70.1,430.2,69.9,429,68.9,427.8z M-34.9,518.8l0.3,0.4l0.1-0.7L-34.9,518.8z
		 M-155.6,620.6c0,0.5,0.1,0.8,0.3,1.1l1.1-0.3l-0.3-1.1C-154.8,620.1-155.1,620.2-155.6,620.6z M-86.3,561.1l-0.1,0.7
		c0.2,0.2,0.6,0.4,1,0.4l0.1-0.7c-0.2-0.2-0.4-0.3-0.5-0.2S-86.1,561.3-86.3,561.1z M-152.8,606c-0.8,1.5-0.9,2.7-0.3,3.4
		c1.3,1.5,2.3,1.4,3.1-0.1c0.7-0.6,0.8-1.8,0.3-3.4C-150.5,604.9-151.6,604.9-152.8,606z M-156.1,599.9c-0.2,0.2-0.4,0.5-0.4,1
		l1,0.4c1.2-0.1,1.3-0.7,0.5-1.7C-155.5,599.6-155.9,599.7-156.1,599.9z M-165.3,607.8c0.6,0.7,1.3,0.8,2.1,0.2
		c0.5-0.4,0.5-0.9,0.1-1.4c0-0.5-0.4-0.7-1.3-0.8C-165,605.8-165.2,606.4-165.3,607.8z M73.4,404c1-0.8,1.2-1.6,0.5-2.4
		c-1.1-0.8-2.1-0.7-3.1,0.1c-0.6,1.3-0.4,2.3,0.5,2.8C71.8,405.1,72.5,404.9,73.4,404z M-46.7,493.1c-1,0.8-1.2,1.6-0.5,2.4
		c0.8,1,1.6,1.2,2.4,0.5c0.7-0.2,0.9-1,0.5-2.4C-44.7,493.1-45.5,493-46.7,493.1z M59.7,399.2l-0.3-0.4l-0.4,0.3L59.7,399.2z
		 M-161.2,585c0,0.5,0.2,0.9,0.6,1.4c0.2-0.2,0.6-0.3,1.1-0.3c-0.2-0.2-0.3-0.5-0.3-0.7s-0.1-0.5-0.3-0.7l-0.4,0.3
		C-160.8,585.3-161,585.3-161.2,585z M-64.7,503.5c0-0.5,0.2-0.8,0.4-1c-0.4-0.5-0.8-0.6-1-0.4c-0.9-0.1-1.2,0.4-0.8,1.3
		L-64.7,503.5z M59.7,390.2c-0.7,0.2-1,0.8-0.8,2c0.6,0.7,1.2,1.1,1.6,1.2c1.2-0.1,1.6-0.9,1.2-2.3
		C61.5,390.4,60.8,390.1,59.7,390.2z M-60.3,490.7l0.3,1.1c0.6,0.7,1,0.7,1.1-0.3c0.2-0.2,0.2-0.6-0.3-1.1
		C-59.7,490.4-60.1,490.5-60.3,490.7z M49.4,389.4c-0.7,0.6-0.8,1.3-0.2,2.1l2.1,0.2c0.7-0.2,1-0.4,0.9-0.8
		c-0.1-0.4-0.4-0.5-0.8-0.6C51,389.8,50.3,389.5,49.4,389.4z M-171.9,571.1c0.9,0.1,1.7-0.1,2.5-0.5c0.7-0.4,1.4-0.7,2.1-0.9
		c1-0.8,1-1.9-0.1-3.1c-1.3-1.5-2.2-1.1-2.8,1.2c-0.3,0.7-0.8,1.1-1.5,1.3S-172.5,569.9-171.9,571.1z M-187.1,576.5
		c-0.7,0.6-0.9,1.2-0.5,1.7c-0.1,1.4,0.5,1.5,1.7,0.5c1-0.8,1.2-1.6,0.5-2.4C-185.8,575.8-186.4,575.9-187.1,576.5z M-63.3,470.8
		c-0.5,0.4-0.6,0.8-0.4,1c0.4,0.5,0.8,0.6,1,0.4c0.5,0,0.8-0.1,1.1-0.3c0.2-0.2,0-0.5-0.6-0.7c-0.2-0.2-0.4-0.3-0.5-0.2
		C-62.9,471.1-63.1,471.1-63.3,470.8z M37,375.8c-0.6-0.7-1.2-0.9-1.7-0.5c-0.5,0.4-0.5,0.9-0.1,1.4c0,0.5,0.4,0.7,1.3,0.8
		C37.3,376.8,37.4,376.3,37,375.8z M-72.9,461.1l1,0.4l0.1-0.7c-0.4-0.5-0.9-0.8-1.3-0.8C-72.9,460.3-72.8,460.7-72.9,461.1z
		 M47.6,358.3l0.7,0.1L48,358L47.6,358.3z M-204,549.4c0.7,0.3,1.4,0.1,2.1-0.5c0-0.5-0.2-0.9-0.6-1.4c-0.9-0.1-1.5,0.2-1.8,0.9
		C-204.5,548.5-204.4,548.9-204,549.4z M30.2,338.7c0.2-0.2,0.4-0.3,0.5-0.1c0.1,0.1,0.3,0.1,0.5-0.1l0.1-0.7
		c-0.4-0.5-0.8-0.6-1-0.4C29.8,337.8,29.7,338.2,30.2,338.7z"/>
	<path id="XMLID_1288_" class="st2" d="M528.9,486.3l-0.6,4.1c-1.4,1.9-2.2,3.9-2.1,6.1c0,2.2-0.2,4.3-0.8,6.3
		c-0.2,1.6-0.6,3.1-1,4.5c-0.4,1.4-0.2,2.9,0.7,4.5l-1.3,8.8c-1.3,1-1.5,2-0.5,3.1l-0.8,5.1c-1.8,1.3-2.1,3-0.8,5.1l-1.2,8.2
		c-2.7,2.4-3.1,5.4-1.4,9.2l-0.5,3.1c-1.6,1.4-2.3,2.8-2.1,4.4c0.2,1.5,0.5,3,0.7,4.5l-0.6,4.1c-1.1,1-1.8,1.9-2.2,2.8
		c-0.4,0.9,0,2,1.2,3.3l-0.3,2c-1,0.8-1.5,1.4-1.3,1.9c-0.1,2.1-0.3,4.1-0.7,6s-0.7,3.8-1,5.6c-0.1,0.7,0.2,1.3,0.8,1.9l-0.2,1
		c-0.6,1.1-1.1,2-1.3,2.9s-0.1,1.9,0.4,3.2l-1.2,7.8c-2.5,4.3-3.1,8.3-1.9,12.2l-2.2,14.3c-1.2,0.5-1.7,1.5-1.5,2.9
		c0,1.8-0.3,3.7-0.9,5.6c-0.5,1.9-0.9,3.7-1.2,5.6c-0.5,1.8-1,3.7-1.4,5.7s-1.1,3.9-2.1,5.6c-2.2,4.1-5.2,8.1-8.8,12.2
		c-1.4,1.4-2.6,2.8-3.6,4.3s-2.3,2.8-3.9,3.9c-1.3,0.7-2.5,1.2-3.7,1.3c-1.2,0.2-2.3,0.6-3.3,1.4c-5.3,4.3-11.5,6.2-18.6,5.8
		c-0.9,0.1-1.9,0.1-2.8,0.1c-0.9,0-1.7,0.4-2.3,1.2l-5.1-0.8c0.1-0.5,0.1-1,0.1-1.6s-0.3-0.8-0.8-0.6c-1.2,0.3-2.3,0.3-3.3,0.2
		c-1-0.2-2,0.1-3.1,0.9l-2-0.3c-0.5-1-1.6-1.6-3.2-1.9c-4.2-1.6-7.9-3.5-11.3-5.9c-3.3-2.4-6.8-4.7-10.4-7.1
		c-0.9-0.4-1.6-1.2-2.1-2.4s-1.1-2.3-1.8-3.2s-1.4-1.9-2.2-2.9c-2.9-3.7-4.8-7.7-5.6-12s-1.6-8.7-2.3-13.2c-0.6-3.3-0.5-6.6,0.5-9.8
		s1.7-6.5,2.2-9.9c0.7-2.9,1.3-5.8,1.8-8.6s0.8-5.6,0.8-8.4c0-4.6,0.7-9.2,1.9-13.8c1.3-4.6,1.7-9.2,1.2-13.9c1.6-3,2.5-6.2,2.5-9.5
		c0.1-3.4,0.4-6.6,1.1-9.7c0.3-1.8,0.7-3.7,1.2-5.7s0.6-4.1,0.3-6.2c0-1.4,0.4-2.8,1.4-4.3c1-2.2,1.4-4.3,1-6.5
		c-0.1-4,0.3-7.7,1-11.3c0.8-3.6,1.2-7.3,1.4-11.3c0.1-2.1,0.6-4,1.6-5.8s1.4-3.7,1.2-5.6c0-1.6,0.1-3.2,0.2-4.7
		c0.1-1.5,0.5-3.1,1.3-4.8c0.7-1.3,0.9-2.5,0.6-3.7c-0.8-3.6-0.6-7,0.7-10.3s2-6.6,2.1-10.1c0.1-1.8,0.3-3.7,0.9-5.6
		c0.5-1.9,0.9-3.9,1.2-5.9c0.5-1.6,0.9-3.2,1.4-4.8c0.5-1.7,1.4-3,2.7-3.9c1.6-1.2,3.1-2.3,4.5-3.5c1.5-1.2,3.1-2,5.1-2.4l1,0.2
		c0.3,1,0.9,1.5,1.7,1.5s1.6,0.1,2.2,0.2c4,0.9,7.2,2.9,9.5,6.3c2.3,3.4,3.1,7.1,2.5,11.2c-1.2,6.5-2.3,13-3.3,19.3
		s-1.7,12.8-2.3,19.5c-0.3,1.8-0.6,3.7-0.9,5.8c-0.3,2-0.8,3.9-1.6,5.7c-0.7,1.7-1.1,2.9-1.2,3.5c-0.1,0.6,0.2,1.7,0.9,3.4
		c0.2,0.5,0.3,0.9,0.5,1.3c0.2,0.4,0.2,0.8,0.2,1.2c0,3.2,1,5.7,3,7.4c2.1,1.7,4.4,3,7.1,3.9c3.7,1.7,7.4,2.5,11.1,2.4
		c3.7-0.1,7.4,0,11.1,0.3c0.5-0.2,0.8-0.3,1-0.5s0.4-0.4,0.6-0.6c1.7-2.3,3.5-4.7,5.3-7.2s2.6-5.4,2.4-8.7c0.1-0.7,0.3-1.1,0.5-1.3
		c1.1-1.2,1.7-2.6,1.8-4.1s0.1-3.1-0.1-4.7c-0.3-2.4,0.4-4,2.1-4.9c0.5-0.4,1-0.8,1.4-1.2c0.4-0.4,0.4-1,0.1-1.7
		c-1.9-2.8-2.4-5.6-1.7-8.4c0.8-2.8,1.8-5.6,3.2-8.4c0.4-0.9,0.5-1.8,0.4-2.7c-0.7-2.7-0.9-5.3-0.3-8c0.5-2.7,1.1-5.4,1.8-8.1
		c0.3-2.3,1.8-4.4,4.3-6.5c2.5-2,4.9-3.1,7.3-3.2c2.8,0,5.4,0.2,7.7,0.7c2.4,0.5,4.7,1.8,6.9,4c1,1.1,1.8,2.1,2.3,3.1
		s0.9,2.2,1.2,3.7c0.4,3.5,0.3,7-0.4,10.4c-0.6,3.4-1.4,6.7-2.4,10.1c-0.5-0.1-0.8,0-1.1,0.2c0.3-0.2,0.6-0.3,1.1-0.2
		c0.4,0.7,0.3,1.6,0,2.6C527.5,484.8,527.8,485.6,528.9,486.3z M515.8,553.8l-0.7,0.2c-0.3,0.2-0.2,0.5,0.2,1.1
		c0.5,0.1,0.7-0.1,0.8-0.6C515.8,554.3,515.7,554,515.8,553.8z M524.9,489.2l0.3,0.1L524.9,489.2c0-0.2,0.1-0.4,0.3-0.7
		c0.2-0.2,0.2-0.4,0.3-0.7c0.1-0.9-0.1-1.4-0.8-1.5c-0.6-0.8-0.9-0.7-1.1,0.2c-0.8,0.6-0.6,1.2,0.4,1.8c0.2,0.3,0.3,0.4,0.5,0.4
		C524.6,488.8,524.8,488.9,524.9,489.2z M514.6,527.2c0.4,0.7,0.8,1,1.3,0.9c0.7,0.1,1.1-0.2,1.2-0.9c0.1-0.7-0.3-1.1-1.2-1.2
		C515.2,525.9,514.8,526.3,514.6,527.2z M508.4,570.1c-0.1,0.5,0.2,0.7,0.9,0.8l0.3,0.1l0.4-0.3c0-0.2-0.1-0.6-0.5-1.1
		C509.1,569.5,508.7,569.6,508.4,570.1z M496.3,647.1c1.2-0.3,1.7-0.7,1.6-1.2l-0.3-0.4C496.9,645.7,496.5,646.2,496.3,647.1
		l-1.4-0.2l0.3,0.4c0.2,0,0.4,0,0.5-0.1C495.9,647.1,496.1,647.1,496.3,647.1z M522.2,468.2c0.5,0.1,0.7-0.2,0.8-0.9
		c-0.1-0.7-0.5-1.1-1.2-1.2c-1.1-0.2-1.4,0.1-0.8,0.9C520.9,468.1,521.3,468.5,522.2,468.2z M499.7,595.5c-0.1,0.5,0.1,0.8,0.4,0.9
		c0.3,0.2,0.7,0.4,1.1,0.7c0.8,0.6,1.3,0.7,1.4,0.2c-0.1-0.7-0.8-1.4-2.1-2.1C500.2,595.4,499.9,595.5,499.7,595.5z M495.7,630.7
		l-0.7,0.2c-0.1,0.5,0,0.7,0.2,0.7l0.7,0.1C496,631.3,495.9,630.9,495.7,630.7z M505.8,555.4c-0.2,0-0.4,0.2-0.4,0.6
		c-0.3,0.2-0.3,0.4-0.1,0.5s0.4,0.1,0.7-0.1l0.4-0.6C506.5,555.6,506.3,555.5,505.8,555.4z M488.7,665.4c0.2,0.3,0.3,0.5,0.2,0.7
		l0.4-0.3c0.1-0.5-0.1-0.7-0.6-0.8L488.7,665.4z M515.4,481.1c-0.1,0.7,0.1,1.1,0.5,1.1c0.5,0.1,0.7-0.1,0.8-0.6
		c0.3-0.2,0.2-0.6-0.2-1.1C515.8,480.5,515.5,480.6,515.4,481.1z M513.6,493c0,0.2,0,0.4,0.1,0.5c0.1,0.1,0.1,0.3,0.1,0.5l0.7-0.2
		c0.1-0.5,0-0.7-0.2-0.7L513.6,493z M493.8,617.9c0.7,0.1,1.2-0.1,1.5-0.5c0.1-0.9-0.1-1.3-0.9-1.2c-0.7-0.1-1.1,0.1-1.1,0.5
		L493.8,617.9z M499,572.4c0.3,1.2,0.8,1.6,1.5,1.3c0.5-0.4,0.8-0.7,0.8-0.9c0.6-0.6,0.3-1-0.9-1.2
		C499.6,571.5,499.1,571.8,499,572.4z M511.4,502.7c0-0.2,0-0.4-0.1-0.5c-0.1-0.1-0.1-0.3-0.1-0.5c-0.5-0.1-0.8,0-1.1,0.2
		c-0.1,0.7,0.1,1.1,0.5,1.1c0.2,0,0.3,0,0.4-0.1C511.1,502.7,511.2,502.7,511.4,502.7z M506.2,528c0-0.2,0.3-0.3,0.7-0.2
		c0.6-0.6,0.4-1-0.5-1.1l-0.8,0.6L506.2,528z M483.8,672.3c0.1-0.9-0.2-1.2-0.9-0.8c-0.7-0.1-1.1,0.1-1.1,0.5
		c-0.1,0.9,0.3,1.3,1.2,1.2C483.4,673.3,483.7,673,483.8,672.3z M507.7,497.3l0.2,0.7c0.5,0.1,0.7,0,0.7-0.2l0.1-0.7
		c-0.2,0-0.4,0-0.5,0.1C508.1,497.3,507.9,497.3,507.7,497.3z M492.5,595.1l-0.1,0.3c0.4,0.3,0.8,0.3,1,0.2c0.1-0.5-0.1-0.7-0.6-0.8
		C492.8,595,492.7,595.1,492.5,595.1z M484.3,639.7c0.2,0,0.3,0.2,0.3,0.4s0.1,0.4,0.3,0.4c0.4,0.5,0.6,0.3,0.8-0.6
		c0.1-0.5,0-0.8-0.2-1.1C485.2,638.8,484.8,639.1,484.3,639.7z M495.9,563.3l0.2,0.7c0.5,0.1,0.8,0,1.1-0.2c0.1-0.5-0.1-0.7-0.6-0.8
		c-0.2,0-0.3,0-0.4,0.1C496.3,563.3,496.1,563.3,495.9,563.3z M500.4,533.7c-0.1,0.5,0,0.7,0.2,0.7c0.6,0.8,0.9,0.8,1,0.2l0.1-0.7
		c0-0.2-0.1-0.4-0.3-0.4s-0.4,0-0.5,0.1C500.8,533.7,500.6,533.8,500.4,533.7z M487.2,590.5c-0.5-0.1-0.9-0.3-1.5-0.6
		c-0.5-0.3-0.9,0-1,0.9c0,1.4,0.6,1.9,1.7,1.6c1.1-0.3,1.9-0.1,2.5,0.7c0.2,0.5,0.4,0.6,0.8,0.5c0.4-0.2,0.6-0.5,0.7-0.9
		c0-1.2-0.4-1.9-0.9-2C488.9,590.4,488.2,590.4,487.2,590.5z M487.6,604.4l-0.6-0.8l-0.4,0.3c-0.1,0.5,0,0.7,0.2,0.7
		C487.3,604.7,487.5,604.6,487.6,604.4z M491.2,575.8l0.4-0.3c0.1-0.5,0-0.7-0.2-0.7c-0.4-0.3-0.7-0.1-0.8,0.6
		C490.6,575.6,490.8,575.7,491.2,575.8z M489.6,563.4c-0.2,1.4,0.4,2.1,1.7,2.3c0.9,0.1,1.4-0.4,1.6-1.5c-0.2-1.7-0.8-2.6-1.7-2.7
		C490.4,561.4,489.8,562,489.6,563.4z M494.6,546.7c-0.9,0.1-1.5,0.5-1.6,1.2s-0.4,1.2-0.9,1.6c-0.3,0.2-0.3,0.4-0.1,0.5
		s0.3,0.1,0.4-0.1c0.5-0.4,1-0.7,1.5-1s0.9-0.8,1.3-1.7L494.6,546.7z M497.1,528l0.3,0.1l-0.3-0.4V528z M503.6,474.4l0.3,0.4
		l0.3,0.1c0.1-0.5,0-0.7-0.2-0.7L503.6,474.4z M488,567.3l0.4-0.3l-0.3-0.4L488,567.3z M484.2,562.5c-0.9-0.1-1.4,0.4-1.6,1.5
		c-0.1,0.9,0.4,1.4,1.5,1.6c0.9-0.1,1.5-0.8,1.7-2.2C485.5,562.7,484.9,562.4,484.2,562.5z M432.3,624.8c-2.5,8.7-1,16.6,4.3,24
		c2.8,4.1,6.7,6.4,11.5,6.8c4.8,0.4,9-0.2,12.4-1.8c3.8-2,6.9-4.4,9.3-7.3c2.4-2.9,3.8-6.5,4.3-10.8c0.4-2.5,0.9-5,1.5-7.6
		s0.8-5.2,0.5-7.7c-0.3-2.6,0.1-5,1.3-7.3s1.6-4.8,1.3-7.6c-0.5-5.9,0.4-11.6,2.6-17.3c0.6-1.1,0.8-2.2,0.5-3.4
		c-0.5-1.2-0.6-2.5-0.3-3.7s0.6-2.5,0.8-3.9c0.5-1.8,0.7-3.5,0.5-5.3s-0.9-3.3-2.1-4.7c-2-2.2-4.1-4.2-6.2-6
		c-2.2-1.8-4.9-2.4-8.2-1.8c-0.7,0.1-1.7-0.1-3-0.8c-4.2-1.3-8-1.3-11.3,0s-6.5,3.4-9.5,6.2c-0.5,0.4-0.9,1-1.1,1.7
		c-0.2,0.8-0.4,1.5-0.5,2.2c0,1.8-0.2,3.8-0.4,5.9c-0.2,2.1-0.5,4-1.1,5.7c-1.1,4.2-2,8.4-2.8,12.4c-0.7,4.1-1.3,8.3-1.7,12.6
		c-0.3,3.2-0.6,6.4-1.1,9.7C433.3,618.4,432.8,621.7,432.3,624.8z M465.6,673c0,0.2,0.1,0.4,0.3,0.4s0.4-0.1,0.4-0.3
		s-0.1-0.4-0.3-0.4C466,673,465.8,673.1,465.6,673z M463.2,668.1c-0.7-0.1-1.1,0.3-1.2,1.2c-0.1,0.7,0.3,1.1,1.2,1.2
		c0.7,0.1,1.1-0.3,1.2-1.2C464.5,668.7,464.1,668.3,463.2,668.1z M483.1,535.9l0.1-0.3l-0.4,0.3H483.1z M457.2,680.4
		c0.9-0.1,1.5-0.6,1.6-1.5c-0.3-1-0.7-1.5-1.2-1.6c-1.1-0.2-1.6,0.3-1.3,1.5C456.2,679.8,456.5,680.3,457.2,680.4z M477.3,550.7
		c0.7-0.4,1.2-0.8,1.2-1.2c0.1-0.9-0.4-1.4-1.5-1.6c-0.7-0.1-1.1,0.2-1.2,0.9C475.7,549.9,476.2,550.5,477.3,550.7z M459.8,661.3
		l-0.1,0.3l0.3,0.1L459.8,661.3z M457.1,665.1c0.7,0.1,1.1-0.1,1.1-0.5c0.1-0.7-0.2-1.1-0.9-1.2c-0.5-0.1-0.7,0.2-0.8,0.9
		C456.4,664.8,456.6,665,457.1,665.1z M453.2,674.6l0.9,1.2c0.5,0.1,0.7-0.2,0.8-0.9c-0.2-0.3-0.3-0.5-0.2-0.7
		c0-0.2-0.2-0.4-0.6-0.4c-0.3,0.2-0.4,0.3-0.4,0.5C453.6,674.3,453.5,674.4,453.2,674.6z M471.6,533.5c-0.1,0.5,0.3,1,1.2,1.6
		c0.5,0.1,0.7-0.1,0.8-0.6c0.3-0.4,0.1-0.9-0.5-1.5C472.4,532.9,471.9,533.1,471.6,533.5z M450.6,678.4l0.1-0.7
		c-0.2,0-0.4,0.1-0.4,0.3L450.6,678.4z M468,552.8c-0.1,0.9,0,1.4,0.5,1.5c0.7,0.1,1.1-0.2,1.2-0.9s-0.1-1.1-0.5-1.1
		c-0.2,0-0.4,0.1-0.6,0.3C468.4,552.7,468.2,552.8,468,552.8z M446.7,669.4l0.1-0.3l-0.4,0.3H446.7z M443.1,675.1l-0.1,0.3l0.7,0.1
		l0.1-0.3L443.1,675.1z M443.1,658.8c0.4,0.7,0.9,1.2,1.5,1.3c0.5-0.4,0.7-0.8,0.5-1.3c0.1-0.9-0.3-1.2-1.3-0.9
		C443.5,657.8,443.2,658.1,443.1,658.8z M446.5,558.9c0.5-0.2,0.8-0.7,0.9-1.6c0.2-1.1-0.2-1.5-1.2-1.2c-0.5,0.2-0.7,0.4-0.6,0.8
		c0.1,0.4,0.1,0.8,0,1.2C446,558.6,446.3,558.8,446.5,558.9z M447.9,545.5c-1,0.3-1.6,0.6-1.9,0.8c-0.5,0.4-0.6,0.6-0.3,0.7
		c0.3,0.1,0.6,0.1,0.8,0.1c0.9,0.1,1.5-0.1,1.9-0.8L447.9,545.5z M446.3,548.8l-0.1,0.3l0.3,0.4c0.5-0.4,0.6-0.6,0.1-0.7H446.3z
		 M444.5,542.6c0.9,0.1,1.5-0.2,1.9-1.1l0.1-0.7c-1.4-0.2-2.2,0.1-2.6,1L444.5,542.6z M444.5,524.2c-0.9-0.1-1.4,0.1-1.5,0.8
		c-0.3,0.6-0.1,1.3,0.8,1.9c0.9,0.1,1.4-0.2,1.6-1.2C445.7,525,445.4,524.5,444.5,524.2z M423.6,663.5l-0.1,0.3l0.4-0.3H423.6z
		 M444.9,519.4c0.7,0.1,1.1-0.1,1.1-0.5c0.1-0.7-0.2-1.1-0.9-1.2c-0.7-0.1-1.1,0.2-1.2,0.9C443.9,519,444.2,519.2,444.9,519.4z
		 M432,592.8c0.3,1,0.6,1.5,0.8,1.5c0.7,0.1,1.1-0.2,1.2-0.9c0.2-1.1-0.1-1.5-0.9-1.2C432.4,592.2,432,592.3,432,592.8z
		 M419.3,662.1c0.2,0.3,0.4,0.4,0.6,0.4c0.5,0.1,0.7-0.2,0.8-0.9c-0.2-0.3-0.4-0.4-0.6-0.4C419.5,661.1,419.2,661.4,419.3,662.1z
		 M430,582.8c-0.5,0.2-0.9,0.2-1.2,0.2s-0.5,0.1-0.6,0.6c-0.1,0.7,0.3,0.9,1.3,0.5c1.1,0.2,1.8-0.1,1.9-0.8
		C431.4,583.1,430.9,582.9,430,582.8z M437.1,533.8c0.4,0.5,0.7,0.8,0.9,0.8l0.8-0.6c0.1-0.7-0.1-1.1-0.5-1.1
		C438.1,532.9,437.7,533.2,437.1,533.8z M433.1,546.7c0.3,1,0.8,1.5,1.5,1.6s1.1-0.3,1.2-1.2c0.1-0.9-0.1-1.4-0.8-1.5
		C434.1,545.5,433.5,545.9,433.1,546.7z M425.1,608.4l-0.1,0.3l0.7,0.1c0.2,0,0.3,0,0.4-0.1c0-0.1-0.2-0.2-0.7-0.3H425.1z
		 M445.6,476c-0.1,0.5,0,0.6,0.3,0.4l0.1-0.3L445.6,476z M420.8,627.3l0.1-0.7c-0.2,0-0.4,0.1-0.4,0.3l-0.1,0.3L420.8,627.3z
		 M428.7,568.7l-0.3-0.1l-0.4,0.3l0.7,0.1V568.7z M437.2,508.1l0.3,0.1l-0.3-0.4V508.1z M441.1,473.9c-0.6-0.6-1-0.4-1.1,0.5
		c-0.1,0.5,0,0.7,0.2,0.7c0.6,0.8,0.9,0.7,1.1-0.2C441.8,474.4,441.7,474,441.1,473.9z M420.8,590.8c0.4,0.5,0.8,0.8,1.3,0.9
		l0.4-0.6c0.1-0.7-0.1-1.1-0.5-1.1C421.3,589.8,420.9,590.1,420.8,590.8z M441.2,461.4c-0.5,0.4-0.4,0.6,0.2,0.7l0.3,0.1l0.1-0.7
		L441.2,461.4z M411.6,653.6c-0.6-0.6-1-0.4-1.1,0.5l0.2,0.7c0.6,0.3,1,0.3,1.1-0.2C412.3,654.1,412.2,653.8,411.6,653.6z
		 M425.2,561.9c-0.3,0.2-0.4,0.5-0.5,1c0.2,0.3,0.4,0.4,0.6,0.4c0.3-0.2,0.4-0.5,0.5-1C425.4,562.3,425.2,562.1,425.2,561.9z
		 M427.4,538.2c0,0.2,0.2,0.4,0.6,0.4c0-0.2,0.2-0.3,0.4-0.3l-0.3-0.4C427.8,537.5,427.5,537.6,427.4,538.2z M422.7,546.2
		c-0.1,0.9,0.2,1.4,1.2,1.6c0.9-0.1,1.5-0.5,1.6-1.2c-0.1-0.9-0.6-1.5-1.5-1.6C423.3,544.9,422.9,545.3,422.7,546.2z M409.7,645.7
		c-0.7-0.1-1.1,0.1-1.1,0.5c0,0.2,0,0.4,0.1,0.5s0.1,0.3,0.1,0.5c0.7,0.1,1.1-0.2,1.2-0.9C409.7,646.2,409.6,645.9,409.7,645.7z
		 M420.5,533.4c0.7,0.1,1.1-0.1,1.1-0.5c0.6-0.8,0.4-1.3-0.5-1.5c-0.6-0.8-0.9-0.7-1.1,0.2C419.8,532.2,419.9,532.8,420.5,533.4z
		 M412.5,588.4c-0.2-0.3-0.4-0.4-0.6-0.4l-0.1,0.3c0,0.2,0,0.5,0.2,0.7c0-0.2,0.1-0.3,0.2-0.3C412.4,588.8,412.4,588.7,412.5,588.4z
		 M409.8,592.2c-0.3,0.2-0.6,0.3-0.9,0.2s-0.4,0.2-0.3,0.7c0,0.2,0.1,0.4,0.3,0.6c0.2,0.1,0.3,0.1,0.4-0.1c0.9,0.1,1.4-0.1,1.5-0.8
		C410.8,592.5,410.5,592.3,409.8,592.2z M428.4,463.6l-0.7,0.2c-0.8,0.6-0.8,0.9-0.2,1c0.2,0.3,0.6,0.2,1.1-0.2c0-0.2,0-0.4-0.1-0.5
		C428.4,464.1,428.3,463.9,428.4,463.6z M413.2,556.6l-0.1,0.7c0.5,0.1,0.7,0,0.7-0.2l-0.3-0.4L413.2,556.6z M406.2,602.1l0.4-0.3
		c-0.2-0.5-0.4-0.6-0.6-0.4C406,601.6,406,601.8,406.2,602.1z"/>
	<g id="XMLID_1225_">
		<g id="XMLID_1226_">
			<path id="XMLID_1227_" class="st4" d="M-275.6,545.3h-2.1c-2.8-0.9-5.6-1.9-8.4-2.8c-2.8-0.9-5.6-1.2-8.4-0.7
				c-10.3,0.9-19.9-0.3-28.7-3.9c-8.9-3.5-17.3-8.1-25.2-13.7c-5.6-4.2-11.5-8.2-17.5-11.9c-6.2-3.7-10.4-9.5-12.8-17.5l-0.7-0.7
				c-4.7-4.2-7.7-9.2-9.1-15.1c-1.4-5.8-3-11.3-4.9-16.5c-1.4-3.7-2.7-7.7-3.9-11.9c-1.2-4.2-2.5-8.2-3.9-11.9v-4.2
				c2.3-5.1,3.2-10,2.5-14.7c-0.7-4.7-1.5-9.3-2.5-14v-10.5c2.8-1.9,2.8-4,0-6.3v-10.5c1.4-5.1,2.3-10,2.8-14.7s-0.5-9.6-2.8-14.7
				v-16.8c1.4-0.5,2.1-1.2,2.1-2.1c0-0.9,0-1.9,0-2.8v-33c0-2.8-0.7-4.7-2.1-5.6v-21c2.3-4.7,2.3-8.9,0-12.6v-12.6
				c1.9-2.8,1.9-4.7,0-5.6v-10.5c2.8-2.8,3.7-5.6,2.8-8.4c-0.9-2.8-1.9-5.6-2.8-8.4v-10.5c1.9-5.1,3-10,3.5-14.7s-0.7-9.6-3.5-14.7
				v-22.4c2.3-0.5,3.6-1.5,3.9-3.2c0.2-1.6,0.6-3.2,1.1-4.6c2.3-8.9,4.7-17.5,7-25.9c2.3-8.4,6.5-16.4,12.6-23.8
				c2.3-3.3,4.7-6.5,7-9.8c2.3-3.3,4.9-6.3,7.7-9.1c6.5-6.1,13.2-11.1,20-15.1c6.8-4,14.4-6.9,22.8-8.8c7.9-1.4,15.4-3.5,22.4-6.3
				h16.8c0.5,0.5,0.7,0.9,0.7,1.4s0.5,0.7,1.4,0.7c10.3,0.9,20.1,3.4,29.5,7.4c9.3,4,18.2,8.8,26.6,14.4c7,5.1,12.7,11.2,17.2,18.2
				c4.4,7,9.2,13.8,14.4,20.3c0,0.5,0.2,0.9,0.7,1.4c2.3,8.9,4.3,17.9,6,27c1.6,9.1,2,18.4,1.1,27.7c-0.9,10.3-1.1,20.5-0.3,30.5
				c0.7,10.1,0.8,20.2,0.3,30.5c0,3.3,0.7,5.4,2.1,6.3v10.2c-1.4,2.8-2.1,6.3-2.1,10.5c0,6.6-0.1,13.2-0.3,20
				c-0.2,6.8-0.1,13.4,0.3,20c0,3.3-0.2,6.4-0.7,9.5c-0.5,3,0.5,6,2.8,8.8v6.3c-4.2,8.9-4.2,18.5,0,28.7v8.4
				c-0.9,3.7-1.9,7.6-2.8,11.6s-1.2,7.8-0.7,11.6c0.9,6.6,1.3,13.2,1.1,20c-0.2,6.8-0.4,13.4-0.4,20c0,3.7,0.1,7.5,0.4,11.2
				c0.2,3.7,1.1,7.5,2.5,11.2v4.2c-2.3,2.3-3,5.9-2.1,10.5c0.9,5.6,0.2,11-2.1,16.1c-2.3,5.1-4.8,9.9-7.4,14.4
				c-2.6,4.4-5.3,9-8.1,13.7c-5.6,10.8-12.9,19.4-21.7,25.9c-8.9,6.6-18.2,12.4-28,17.5c-2.3,0.9-4.6,1.9-6.7,2.8
				c-2.1,0.9-4.3,1.2-6.7,0.7C-267.6,539.9-271.9,541.6-275.6,545.3z M-394.8,242.4c-0.9,0-1.4,0.5-1.4,1.4s0.2,1.4,0.7,1.4
				c1.4,1.4,2.1,1.2,2.1-0.7C-393.4,243.1-393.9,242.4-394.8,242.4z M-388.5,195.4c-0.9,0-1.4,0.7-1.4,2.1c0.5,0.5,0.9,0.7,1.4,0.7
				c0.9,0,1.4-0.7,1.4-2.1C-387.6,195.7-388,195.4-388.5,195.4z M-387.1,320.9c-1.9,0-2.1,0.7-0.7,2.1c0,1.9,0.7,2.3,2.1,1.4
				c0.9,0,1.4-0.7,1.4-2.1C-385.2,320.9-386.1,320.5-387.1,320.9z M-381.5,279.6c-0.9-1.9-2.3-2.6-4.2-2.1c-1.9,0.9-2.6,2.3-2.1,4.2
				c0.9,0.9,2.1,1.4,3.5,1.4C-382.4,282.1-381.5,281-381.5,279.6z M-380.8,432.4h-0.7v0.7h0.7V432.4z M-378.7,264.1
				c-0.9,0.9-1.4,1.6-1.4,2.1l1.4,0.7c1.4,0,1.9-0.7,1.4-2.1C-377.7,264.8-378.2,264.6-378.7,264.1z M-377.3,391
				c0-0.9-0.2-1.4-0.7-1.4c-0.9-0.9-1.4-0.7-1.4,0.7v0.7c0,0.5,0.2,0.7,0.7,0.7C-378.2,391.7-377.7,391.5-377.3,391z M-370.3,177.2
				c0-1.4-0.5-2.3-1.4-2.8c-1.9,0-2.8,0.7-2.8,2.1c-0.9,1.4-0.5,2.1,1.4,2.1C-371.2,179.5-370.3,179.1-370.3,177.2z M-372.4,203.8
				c0.5,0,0.9-0.2,1.4-0.7c0-0.9-0.5-1.4-1.4-1.4l-0.7,0.7C-373.1,203.4-372.8,203.8-372.4,203.8z M-369.5,367.2
				c0,0.5-0.1,0.8-0.4,1.1c-0.2,0.2-0.3,0.6-0.3,1.1c0,0.9,0.5,1.4,1.4,1.4c1.9,0,2.6-0.7,2.1-2.1
				C-366.7,367.7-367.7,367.2-369.5,367.2z M-369.5,405.1c0.9,0.9,1.6,1.4,2.1,1.4l1.4-1.4c0-1.4-0.5-2.1-1.4-2.1
				C-368.8,403-369.5,403.7-369.5,405.1z M-365.3,395.3l-1.4-1.4l-0.7,0.7l1.4,1.4C-365.6,396.4-365.3,396.2-365.3,395.3z
				 M-364.6,151.9c-0.5,0-0.7-0.1-0.7-0.3s-0.2-0.4-0.7-0.4c-0.9,0.9-1.2,1.6-0.7,2.1c0.5,0,0.9,0.2,1.4,0.7c0-0.5,0.1-0.8,0.3-1.1
				C-364.8,152.8-364.6,152.4-364.6,151.9z M-361.1,293.6c-0.5,0.5-1.3,0.6-2.5,0.4c-1.2-0.2-1.5,0.1-1.1,1.1c0,2.3,1.4,3.5,4.2,3.5
				c1.9,0,2.8-0.9,2.8-2.8C-356.7,293.3-357.9,292.6-361.1,293.6z M-360.4,417.7c0-1.4-0.5-2.1-1.4-2.1c-1.4,0-2.1,0.5-2.1,1.4
				c0,1.4,0.7,2.1,2.1,2.1C-360.9,419.1-360.4,418.6-360.4,417.7z M-354.8,464.7c0-2.3-0.7-3.5-2.1-3.5c-1.4,0-2.1,1.2-2.1,3.5
				s0.7,3.5,2.1,3.5c0.9,0,1.4-0.4,1.4-1.1S-355.3,465.6-354.8,464.7z M-349.9,212.2c0-1.4-0.7-2.1-2.1-2.1c-2.3,0-3.5,0.9-3.5,2.8
				c-0.9,1.4-0.2,2.1,2.1,2.1C-351.1,215-349.9,214.1-349.9,212.2z M-353.4,90.9c-1.4,0-1.6,0.5-0.7,1.4c0,0.5,0.2,0.7,0.7,0.7
				l1.4-1.4C-352.5,91.6-353,91.4-353.4,90.9z M-348.5,148.4c3.3-1.9,3.3-4.4,0-7.7c-1.9-1.9-3.3-2.3-4.2-1.4
				c-2.3,1.4-2.1,3,0.7,4.9c1.4,0.5,2.6,2.1,3.5,4.9V148.4z M-350.6,424v-0.7h-0.7c-0.9,0-0.9,0.5,0,1.4L-350.6,424z M-349.9,443.6
				c0-0.9-0.2-1.4-0.7-1.4s-0.9,0.2-1.4,0.7v0.7c0,0.5,0.2,0.7,0.7,0.7C-350.9,443.9-350.4,443.6-349.9,443.6z M-343.6,515.2h0.7
				c0.5,0,0.7-0.2,0.7-0.7c0-0.9-0.2-1.6-0.7-2.1c-1.4,0-2.1,0.5-2.1,1.4L-343.6,515.2z M-342.2,116.9c0.5,0,0.7-0.5,0.7-1.4
				l-0.7-0.7l-1.4,1.4C-343.1,116.6-342.7,116.9-342.2,116.9z M-342.9,348.3h-0.7c0.5,0.5,0.7,0.9,0.7,1.4h0.7
				C-342.2,348.7-342.4,348.3-342.9,348.3z M-340.8,75.5c1.4-0.5,2.1-1.2,2.1-2.1c0-1.4-0.5-2.1-1.4-2.1c-1.9,0-2.8,0.9-2.8,2.8
				C-342,75-341.3,75.5-340.8,75.5z M-339.4,419.1c-1.4,4.2-1.4,8,0,11.2c2.8,6.1,5.5,12.2,8.1,18.2c2.6,6.1,5.8,11.9,9.5,17.5
				c2.4,3.7,5.5,6.7,9.5,8.8s8.1,3.6,12.4,4.6c11.8,3.3,22,2,30.7-3.9c8.7-5.8,15.7-13.2,20.8-22.1c1.9-2.8,3.5-6.1,4.9-9.8
				s1.6-6.8,0.7-9.1c-2.3-6.5-3-12.9-2.1-18.9c0.9-6.1,1.6-12.2,2.1-18.2c0.5-7,0.1-14.3-1.1-21.7c-1.2-7.5,0.1-14.7,3.9-21.7
				c1.4-1.4,1.2-2.1-0.7-2.1c-3.7-0.9-5.1-2.5-4.2-4.6c0.9-2.1,1.2-4.3,0.7-6.7c0-2.8,0.5-5.5,1.4-8.1c0.9-2.6,0.9-5,0-7.4
				c-0.9-4.2-1.1-8.4-0.4-12.6s0.4-8.2-1.1-11.9c-0.5-0.9-0.5-2.1,0-3.5c0.5-1.4,1.2-2.6,2.1-3.5c1.9-1.9,2.8-3.3,2.8-4.2
				c0-0.9-1.2-1.9-3.5-2.8c-0.9-0.5-1.4-2.1-1.4-4.9c0.9-5.6,1.8-11.2,2.5-16.8s-0.1-11.4-2.5-17.5c-0.9-1.4-1.3-3-1.1-4.9
				s0.6-3.5,1.1-4.9c1.9-3.3,2.3-7.7,1.4-13.3c-0.5-7.9-0.7-15.5-0.7-22.8c0-7.2-0.2-14.8-0.7-22.8c-0.5-5.1-0.5-9.9,0-14.4
				c0.5-4.4,0.2-9.2-0.7-14.4c-0.9-5.6-2-11.2-3.2-16.8c-1.2-5.6-4.4-10.3-9.5-14c-1.9-1.4-3.8-3-5.7-4.9s-4-3.3-6.4-4.2
				c-5.2-2.3-10.5-4.1-15.9-5.3c-5.4-1.2-11.2-0.1-17.3,3.2c-11.8,6.1-20.9,13.8-27.2,23.1c-6.4,9.4-9.5,20.8-9.5,34.4
				c0,4.2-0.5,8.3-1.4,12.3s-0.9,7.8,0,11.6c1.4,6.1,2.1,12.2,2.1,18.2c0,6.1-0.2,12.4-0.7,18.9c0,2.8,0.4,5.6,1.1,8.4
				c0.7,2.8,0.6,5.6-0.4,8.4c-1.9,5.6-2.5,11.3-1.8,17.2c0.7,5.9,1.3,11.8,1.8,17.9c0.5,6.6,0.7,13.2,0.7,20s-0.5,13.4-1.4,20
				c-0.9,6.1-1.2,12-0.7,17.9c0.5,5.9,0.7,11.8,0.7,17.9c0,10.8,0.2,21.6,0.7,32.6C-338.2,397.5-338.5,408.3-339.4,419.1z
				 M-337.3,474.5c1.4,0.9,2.1,0.5,2.1-1.4c-0.5-1.4-1.4-2.3-2.8-2.8c-1.4,0-2.1,0.7-2.1,2.1C-340.1,473.8-339.2,474.5-337.3,474.5z
				 M-323.3,65.7c-0.9-2.3-1.9-3.5-2.8-3.5c-1.4,0-2.1,0.7-2.1,2.1c0,2.3,0.9,3.5,2.8,3.5C-324,68.7-323.3,68-323.3,65.7z
				 M-312.1,67.1c-0.5-0.5-1.2-0.7-2.1-0.7c-0.5,0.5-0.5,0.7,0,0.7c0,0.5,0.2,0.9,0.7,1.4L-312.1,67.1z M-312.8,51.7h-0.7h-0.7
				l0.7,0.7L-312.8,51.7z M-312.1,499.7c-1.4,0-2.1,0.9-2.1,2.8c0,1.4,0.7,2.3,2.1,2.8c1.9,0,2.8-0.9,2.8-2.8
				C-309.2,500.7-310.2,499.7-312.1,499.7z M-293.1,74.8c0,0.5-0.1,0.7-0.4,0.7c-0.2,0-0.3,0.2-0.3,0.7s0.2,0.7,0.7,0.7
				c0.5-0.5,0.9-0.7,1.4-0.7L-293.1,74.8z M-288.2,502.5c1.9-0.9,2.8-1.6,2.8-2.1c0-1.9-0.9-2.8-2.8-2.8c-1.4,0-2.1,0.7-2.1,2.1
				C-290.3,501.6-289.6,502.5-288.2,502.5z M-275.6,487.8c-2.8,0-4.2,0.7-4.2,2.1c-0.9,1.4-0.5,2.1,1.4,2.1c2.3-0.9,3.5-1.6,3.5-2.1
				s-0.1-0.7-0.3-0.7c-0.2,0-0.4-0.2-0.4-0.7V487.8z M-265.1,76.9c-1.4,0-2.6,1.2-3.5,3.5c-0.9,3.3-0.2,5.1,2.1,5.6
				c2.3,1.4,3.5,0.7,3.5-2.1c0-0.9-0.2-2.1-0.7-3.5C-264.1,79-264.6,77.9-265.1,76.9z M-260.9,55.9c0,1.9,0.7,2.3,2.1,1.4
				c0.5-0.5,0.7-0.9,0.7-1.4c0-1.4-0.5-2.1-1.4-2.1C-260.4,53.8-260.9,54.5-260.9,55.9z M-250.3,488.5c0,0.9,0.7,1.4,2.1,1.4
				s2.1-0.9,2.1-2.8c-0.9-0.9-1.6-1.4-2.1-1.4C-249.6,485.7-250.3,486.6-250.3,488.5z M-241.2,471c0-0.9-0.7-1.4-2.1-1.4
				c-0.5,0.5-0.7,0.9-0.7,1.4c0,1.4,0.5,2.1,1.4,2.1C-241.7,473.1-241.2,472.4-241.2,471z M-239.1,128.8c-0.9,0.9-0.9,1.4,0,1.4
				v-0.7V128.8z M-237.7,230.5h0.7l-0.7-0.7V230.5z M-231.4,147.7c-0.9,0-1.4,0.5-1.4,1.4c0,0.5,0.1,0.8,0.3,1.1
				c0.2,0.2,0.4,0.6,0.4,1.1c1.4,0.9,2.1,0.5,2.1-1.4C-229.6,149.4-230,148.7-231.4,147.7z M-226.5,133c0.5-1.4,0-2.1-1.4-2.1
				s-2.1,0.7-2.1,2.1c0,1.9,0.7,2.3,2.1,1.4C-227,134.4-226.5,133.9-226.5,133z M-220.2,355.3c-0.5-1.9-1.6-2.8-3.5-2.8
				c-1.9-0.9-2.8-0.2-2.8,2.1s1.2,3.5,3.5,3.5C-222.1,358.1-221.1,357.2-220.2,355.3z M-222.3,388.2c-1.4,0.9-2.1,1.6-2.1,2.1
				c0,1.4,0.7,2.1,2.1,2.1c1.4,0,2.1-0.9,2.1-2.8C-221.1,388.7-221.8,388.2-222.3,388.2z M-222.3,319.5l-0.7,0.7h0.7V319.5z
				 M-220.9,220l0.7-0.7c-0.5,0-0.7-0.1-0.7-0.3s-0.2-0.4-0.7-0.4h-0.7L-220.9,220z M-220.9,431v0.7h0.7L-220.9,431z M-216.7,252.9
				l-0.7-1.4c-0.9,0-1.4,0.2-1.4,0.7c-0.5,0.5-0.7,0.9-0.7,1.4s0.5,0.5,1.4,0c0.5,0,0.7-0.1,0.7-0.4
				C-217.4,253-217.2,252.9-216.7,252.9z M-207.6,229.1c0-1.9-0.7-2.8-2.1-2.8c-2.8-0.9-4.2-0.2-4.2,2.1c-0.5,0.9,0,1.9,1.4,2.8
				C-209.7,231.2-208,230.5-207.6,229.1z M-209.7,457c-0.5,0-0.8-0.1-1.1-0.3c-0.2-0.2-0.6-0.4-1.1-0.4l-0.7,1.4
				c0.5,0.5,1.2,0.7,2.1,0.7C-210.4,457.9-210.1,457.4-209.7,457z M-210.4,241.7c-1.4,0.5-1.6,1.2-0.7,2.1c0,0.9,0.5,1.4,1.4,1.4
				s1.4-0.7,1.4-2.1C-209.2,242.2-209.9,241.7-210.4,241.7z M-206.2,209.4c1.4-0.5,2.1-1.2,2.1-2.1c0-1.9-0.9-2.3-2.8-1.4
				c-0.9,0-1.4,0.7-1.4,2.1C-207.3,209-206.6,209.4-206.2,209.4z M-197.1,137.9c-0.9-1.9-1.9-2.8-2.8-2.8c-1.4,0-2.1,0.7-2.1,2.1
				c0,1.9,0.9,2.8,2.8,2.8c0.9-0.5,1.4-0.8,1.4-1.1C-197.8,138.7-197.5,138.4-197.1,137.9z M-199.2,313.2c1.4-0.5,2.1-1.2,2.1-2.1
				c0-1.9-0.9-2.8-2.8-2.8c-0.9,0-1.4,0.7-1.4,2.1C-201.3,312.3-200.6,313.2-199.2,313.2z M-196.4,435.9v-0.7h-0.7
				c-0.5,0-0.7,0.1-0.7,0.4c0,0.2,0.2,0.3,0.7,0.3H-196.4L-196.4,435.9z M-188.6,348.3c-0.9,0-1.8-0.1-2.5-0.4
				c-0.7-0.2-1.3,0.1-1.8,1.1c0,1.4,0.9,2.1,2.8,2.1c0.9,0,1.9,0,2.8,0s1.4-0.5,1.4-1.4C-185.4,348.7-186.3,348.3-188.6,348.3z
				 M-188.6,268.3l-1.4-1.4c-0.9-0.9-1.4-0.5-1.4,1.4c0,0.9,0.2,1.4,0.7,1.4C-190.3,270.2-189.6,269.7-188.6,268.3z"/>
		</g>
	</g>
</g>
</svg>
