<?xml version="1.0" encoding="utf-8"?>
<!-- Generator: Adobe Illustrator 21.0.2, SVG Export Plug-In . SVG Version: 6.00 Build 0)  -->
<svg version="1.1" id="Capa_1" xmlns="http://www.w3.org/2000/svg" xmlns:xlink="http://www.w3.org/1999/xlink" x="0px" y="0px"
	 viewBox="0 0 1024 768" style="enable-background:new 0 0 1024 768;" xml:space="preserve">
<style type="text/css">
	.st0{opacity:0.2;}
	.st1{fill:#B3B3B3;}
	.st2{fill:#1A1A1A;}
	.st3{fill:#4D4D4D;}
	.st4{fill:#808080;}
</style>
<g class="st0">
	<path class="st1" d="M960.2,426.1c-1-1.1-2.2-1.9-3.5-2.2c-6.4-1.6-10.3-5.8-11.8-12.8c-0.5-2.5-1.1-4.9-2-7.1
		c-0.9-2.3-1.6-4.6-2.3-7c-1.1-5.6-2.6-11.1-4.4-16.4c-1.8-5.3-3.3-10.8-4.4-16.4c-0.2-0.9-0.5-1.5-0.9-1.9c-1.6-2.4-1.5-5,0.3-7.9
		c0.8-0.7,1-1.4,0.8-2.2c-0.2-0.8-1-0.9-2.2-0.3c-1,0.5-1.7,0.6-1.9,0.2c-0.2-0.4-0.4-0.9-0.6-1.6c-0.5-2.7-1.3-5.4-2.2-7.9
		c-1-2.6-1.6-5.2-1.8-7.7c-0.7-4.3-1.8-8.5-3.3-12.6c-1.5-4.1-2.6-8.3-3.3-12.6c-0.9-4.3-1.8-8.5-2.7-12.8
		c-0.8-4.3-2.4-8.4-4.7-12.3c1.1-2.2,0.8-4.1-0.7-5.7c-1.5-1.6-2.3-3.3-2.3-5.2c0-1.9-0.5-3.7-1.5-5.3c-0.9-1.6-1.5-3.4-1.8-5.2
		c-0.4-3.2-1.1-6.5-2-9.8c-0.9-3.3-1.8-6.5-2.7-9.6c-1.7-4.5-3.9-8.5-6.5-11.9c-2.6-3.4-6.1-6.2-10.5-8.3c-3.5-1.6-6.9-3.1-10.2-4.5
		c-3.2-1.4-6.8-2.1-10.6-2.2c-3.2-0.3-6.5-1.3-10.1-2.9c-2.5-1.4-5.1-2.9-7.8-4.3c-2.6-1.4-5.2-2.7-7.7-3.9
		c-3.8-1.6-7.1-3.4-9.9-5.4c-2.8-2.1-6-3.8-9.5-5.2c-2.4-0.8-4.6-1.7-6.9-2.9c-2.2-1.2-4.4-2.2-6.5-3c-5.8-2.2-11.6-3.3-17.2-3.4
		c-5.6-0.1-11.3,0.9-17.2,3c-1.5,0.7-2.9,1.4-4.2,2.2c-1.3,0.8-2.8,1.7-4.4,2.7c-3.4,2.2-7,4.3-10.7,6.4c-3.7,2.1-8.1,2.7-13.1,1.7
		c-4.2-0.7-7-2.9-8.3-6.6c-4.6-9.7-2.3-17.2,6.9-22.6c3.7-2.2,7.2-4.6,10.5-7c3.4-2.5,7.3-4.2,11.7-5.2c0.4-0.1,0.7-0.3,0.9-0.6
		c0.2-0.3,0.4-0.6,0.8-0.9l2-0.6c1.7,1.7,3,2,4,0.9c1-1.1,2-2,3-2.8l6-1.7c1.2,0.9,2.3,1.1,3.2,0.7c1-0.4,2.1-0.5,3.3-0.4
		c1.5-0.4,2.7-0.6,3.4-0.6c4,0.8,8,1.3,12,1.6c4,0.3,8.1,1,12.1,2c4.4,1.4,8.5,3.1,12.4,5.3c3.8,2.1,7.9,3.9,12.4,5.3
		c2.4,0.8,4.6,1.9,6.8,3.4c2.2,1.5,4.4,3.1,6.5,4.6c2.4,1.9,5.2,3.2,8.4,3.7c3.1,0.6,6,1.8,8.7,3.6c2,1.3,4.1,2.2,6.3,2.7
		c2.2,0.5,4.3,1,6.3,1.6c2,0.4,3.9,0.9,5.7,1.4c1.8,0.6,3.7,0.6,5.7,0c2.3-0.4,4.5-0.7,6.7-1c2.2-0.3,4.5-0.7,6.9-1.4
		c2.4-0.7,4.6-0.7,6.6-0.1c2,0.6,4,1.4,6.1,2.2c1.4,0.6,2.3,2,2.9,4.2c0.4,3.2,1.7,5.2,3.8,6.1l1.4,5c-0.9,1-1.1,1.7-0.6,2.3
		s1.1,1.1,1.7,1.7l0.8,3c-0.9,1.9-0.9,3.5-0.1,4.8c0.8,1.3,1.7,2.7,2.6,4.1l2.2,7.9c-0.6,1.1-0.8,2.2-0.5,3.2c0.3,1,0.6,2,0.9,3.1
		c0.2,1.4,0.5,2.7,1.1,4c0.6,1.3,1,2.7,1.2,4.3c0.6,3.9,1.6,7.6,3.1,11.1c1.5,3.5,2.6,7.2,3.4,11c-0.2,1,0.3,1.6,1.5,1.7l1.4,5
		c-0.8,1.4-0.4,2.7,1.1,4l0.7,2.6c-0.2,1-0.4,1.9-0.5,2.8c-0.1,0.9,0.5,1.6,1.9,2.2l1.4,5c0.2,6.6,1.7,12.2,4.7,16.9l1.7,6
		c-0.2,1.9-0.1,3.8,0.3,5.6c0.4,1.8,1.3,3.4,2.6,5l1.1,4c-0.5,2.5-0.3,4.8,0.6,6.8c0.9,2,1.9,4,3,6.1l1.1,4
		c-0.5,0.8-0.6,1.8-0.3,2.9c2.1,9.4,4.8,18.8,7.8,28.1c0.4,1.3,0.7,2.7,0.9,4c0.3,1.4,1,2.5,2.2,3.3l1.1,4c-0.5,0.6-0.8,1.3-0.7,2
		c0.1,0.7,0.2,1.3,0.3,1.7c1.3,3,2.2,6,2.7,9.1c0.5,3.1,1.4,6.1,2.7,9.1c1.7,2.6,1.8,4.8,0.4,6.7c-1.2,1.5-2.2,3.2-3,5.1
		c-0.8,1.9-1.9,3.5-3.5,4.9L960.2,426.1z M962.1,366.4c0.1,0.4,0.3,0.6,0.5,0.6c0.5,0.1,0.7-0.2,0.5-0.8l-0.5-0.6
		C962.1,365.6,961.9,365.9,962.1,366.4z M927.7,258.6c0.9-0.2,1.2-0.8,1-1.7c-0.3-1.1-0.9-1.5-1.8-1.3c-0.9,0-1.3,0.6-1,1.7
		C926.1,257.9,926.7,258.4,927.7,258.6z M916.8,221.7c-0.1-0.2-0.2-0.3-0.4-0.2L916.8,221.7l0.4,0.2L916.8,221.7z M936.7,297.1
		c-0.2,0.1-0.3,0.3-0.1,0.8c0.4-0.1,0.8-0.1,1.1,0.1l-0.2-0.7C937.4,297,937.1,297,936.7,297.1z M913.3,223.3l0.1-0.8l-0.8-0.5
		c-0.2,0.3-0.2,0.6-0.1,1.1C912.8,223.1,913,223.2,913.3,223.3z M924.2,272.7c-0.2,0.3-0.1,0.4,0.1,0.3c0.1,0.4,0.3,0.4,0.7-0.2
		l-0.1-0.3C924.6,272.4,924.4,272.5,924.2,272.7z M915.2,237.8l-0.1-0.3l-0.7,0.2L915.2,237.8z M961,407.3c0.7-0.2,0.9-0.6,0.7-1.3
		c-0.2-0.7-0.5-0.9-0.9-0.8c-0.7,0.2-0.9,0.6-0.7,1.3C960.1,406.7,960.4,407,961,407.3z M949.3,367.8c0.3,0.2,0.5,0.2,0.8,0.1
		c0.3-0.6,0.2-0.9-0.3-1l-0.3,0.1C948.7,367.2,948.7,367.5,949.3,367.8z M951.5,391.1c0.4,1.3,1,1.9,1.9,1.6
		c1.2-0.8,1.6-1.8,1.3-2.9c-0.4-1.3-1.1-1.8-2.2-1.5c-0.7,0.2-1,0.6-0.9,1.2C951.6,390,951.6,390.6,951.5,391.1z M955.3,394.6
		l-0.4-0.2l0.2,0.7L955.3,394.6z M940.9,354.4c-0.4,0.1-0.6,0.4-0.5,0.8c0.1,0.4,0.5,0.8,1,1.1c0.7-0.2,0.9-0.6,0.7-1.3
		C942,354.5,941.6,354.2,940.9,354.4z M917.4,267.5l-0.1-0.3c-0.1-0.2-0.1-0.3-0.3-0.3c-0.1,0-0.1,0.2-0.1,0.4
		C917.2,267.2,917.3,267.3,917.4,267.5z M918.5,277.9l-0.5-0.6l-0.1,0.8L918.5,277.9z M954.9,417.6l0.1,0.3l0.2-0.4L954.9,417.6z
		 M892.1,197.2l-0.3,0.1l0.4,0.2L892.1,197.2z M872.5,190.8l0.3-0.1c0.2-0.3,0.1-0.4-0.1-0.3c-0.1-0.2-0.1-0.3-0.3-0.3
		c-0.1,0-0.1,0.2-0.1,0.4L872.5,190.8z M842.1,185.4c0.2,0.9,0.6,1.2,0.9,0.8c0.4-0.1,0.6-0.5,0.4-1.2c0.2-0.3,0.2-0.5,0-0.7
		c-0.2-0.2-0.4-0.1-0.8,0.2c-0.2,0.1-0.3,0.2-0.2,0.4L842.1,185.4z M836.7,179l0.1,0.3l0.3-0.1c0.2-0.1,0.3-0.1,0.3-0.3
		c0-0.1-0.2-0.1-0.4-0.1L836.7,179z M834.6,193.2c-0.7,0.2-0.9,0.6-0.7,1.3c-0.2,1,0.2,1.4,1,1.1c0.7,0,1-0.4,0.7-1.3
		C835.9,193.3,835.5,192.9,834.6,193.2z M827.8,179c-1.2,0.8-1.7,1.7-1.4,2.5c0.4,1.3,1.2,1.6,2.4,0.8c1.3-0.4,1.8-1.1,1.5-2.2
		C830,179,829.2,178.7,827.8,179z M818.2,175.3c0.1,0.4,0.5,0.6,1.2,0.4c0.2-0.1,0.3-0.3,0.1-0.8c-0.2-0.7-0.6-0.9-1.3-0.7
		c0.1,0.2,0.1,0.4,0,0.5C818.2,174.9,818.2,175.1,818.2,175.3z M813.5,184.1c0.1,0.4,0.5,0.6,1.2,0.4c0.8-0.7,1-1.2,0.6-1.6
		c-0.1-0.4-0.5-0.6-1.2-0.4C813.5,182.7,813.3,183.2,813.5,184.1z M795.9,182.2l0.8,0.1c0.2-0.1,0.3-0.3,0.1-0.8l-0.8-0.1
		C795.8,181.5,795.8,181.8,795.9,182.2z M783,160.1c0.2,0.7,0.7,1.1,1.5,1.4c0.7-0.2,1-0.6,1-1.4c-0.3-1.1-0.8-1.6-1.5-1.4
		C783.5,158.7,783.2,159.1,783,160.1z M782.2,176.4c0.3,0.4,0.5,0.9,0.6,1.4c0,0.6,0.5,0.7,1.4,0.5c0.9-0.2,1.2-0.8,1-1.5
		c-0.2-0.8-0.3-1.4-0.2-1.9c-0.5-1.8-1.3-2.5-2.4-2.2c-0.9,0.2-1.2,0.7-0.8,1.5C782,175,782.2,175.7,782.2,176.4z M775.1,158.8
		c0.2,0.9,0.8,1.2,1.7,1c1,0.2,1.4-0.1,1.1-1c-0.3-1.1-0.9-1.5-1.8-1.3C775.2,157.4,774.9,157.9,775.1,158.8z M774.5,177.1
		c0.7,0.8,1.3,0.8,1.8,0.2c1.1-0.3,1.3-0.9,0.5-1.9c-0.1-0.4-0.5-0.6-1.2-0.4C774.6,175.3,774.2,176,774.5,177.1z M773.2,178.9
		c-0.9,0.2-1,0.8-0.3,1.5c0.2,0.9,0.7,1.2,1.4,1c0.9-0.2,1.2-0.7,1-1.4C775.1,179.4,774.4,179,773.2,178.9z M768,162.9
		c0.4-0.1,0.4-0.3-0.2-0.7c-0.3-0.2-0.5-0.2-0.8-0.1l-0.1,0.8C767.2,163,767.6,163,768,162.9z M764,177.9c0.2,0.7,0.4,0.7,0.8,0.1
		l-0.2-0.7C764.4,177.7,764.2,177.8,764,177.9z"/>
	<path class="st1" d="M853.8,450.6l-1.2,4c-0.7,0-1.2,0.6-1.6,1.7c-1.5,3.6-2.7,7.3-3.6,11.1c-0.9,3.8-1.9,7.6-2.9,11.3
		c-0.3,1.1-0.2,1.9,0.4,2.3l-1.2,4c-0.7,0.8-1.3,1.5-1.9,2.1c-0.6,0.7-0.4,1.6,0.4,2.8l-1.4,4.9c-3.5,4.5-5,9.6-4.5,15.5l-1.2,4
		c-1.4,1.5-2.4,3.2-3,5.2c-0.6,2-1.2,4-1.7,5.9c-0.9,3.1-1.8,6.2-2.6,9.4c-0.8,3.2-1.8,6.3-2.9,9.4c-1.3,4.4-4,7.3-8.3,8.7
		c-1.9,0.7-3.6,1.2-5.3,1.5c-1.7,0.4-3.4,0.9-5.3,1.5l-4.9-1.4c-0.3-0.6-0.7-1-1.2-1.3c-0.5-0.3-1-0.6-1.3-0.9
		c-3.4-2.4-5.4-4.6-6.2-6.5c-0.8-1.9-0.7-4.9,0.3-8.9c0.2-0.7,0.4-1.4,0.6-2.1c0.2-0.8,0-1.5-0.8-2.2l0.9-3c2.6-2.3,3.4-5.2,2.5-8.6
		l1.2-4c2.7-2.8,3.6-5.8,2.6-8.9l1.2-4c1.2-0.1,1.9-0.6,2.1-1.5c0.1-0.9,0.3-1.7,0.5-2.4c0.7-3.1,1.4-6.2,2.1-9
		c0.7-2.9,1.8-5.8,3.1-8.8c0.4-1.3,0.2-2.2-0.6-2.7l0.9-3c1.5-1,2.4-2.8,2.6-5.3c0.5-2.7,1.2-5.3,2.1-7.8c0.8-2.5,1.7-5.1,2.4-7.7
		c0.3-0.9,0.6-1.6,1-2.2c0.4-0.6,1.3-0.7,2.6-0.3c0.9,0.3,1.5-0.3,1.9-1.6c0.1-0.2,0-0.5-0.1-0.8c-0.2-0.3-0.4-0.3-0.7-0.2
		c-1.2-0.1-1.9-0.4-2.1-0.8c-0.2-0.4-0.3-0.9-0.3-1.5c0-0.6,0.1-1.2,0.2-1.7c0-0.6-0.1-1-0.5-1.4l0.9-3c1.5-1.9,2.5-4,2.9-6.1
		c0.4-2.2,0.7-4.4,0.9-6.7l0.9-3c1.6-1.4,2.6-3.2,2.8-5.4c0.3-2.2,1-4.1,2.2-5.6c1-0.9,0.7-1.8-1-2.8l1.3-4.6c2.3-2.2,3-4.5,2-6.9
		l1.4-4.9c2.6-1.6,3.4-4.3,2.3-7.9l3.8-12.9c2.8-3.2,3.8-6.4,2.8-9.6l2-6.9c2.1-1.5,2.6-3.2,1.4-4.9l0.9-3c2.2-2.5,3.5-5.1,3.9-8
		c0.5-2.8,0.8-5.8,1-8.8l2.2-7.6c2.2-0.3,4.1-1.3,5.5-3c2.1-3,4.7-4.1,7.8-3.4c0.4,0.1,1,0.3,1.6,0.5s1.3-0.1,2-0.8l4,1.2
		c0.1,0.5,0.5,1.1,1.3,1.8c6.1,3.5,9.5,8.9,10,16.2c0.2,0.8,0.2,1.6-0.1,2.3c-0.3,0.7-0.2,1.4,0.3,2.1l-0.9,3c-0.4,0.4-0.7,0.7-1,1
		c-0.3,0.3-0.5,0.6-0.7,1.1c-0.9,3.1-1.8,6.2-2.6,9.4c-0.8,3.2-1.9,6.4-3.3,9.6c-0.4-0.3-0.6-0.6-0.7-0.7c-0.1-0.1-0.3-0.4-0.7-0.7
		c-0.2-0.1-0.4,0-0.6,0.2c-0.2,0.2-0.2,0.3,0.1,0.4l1.6,0.5c0.5,0.9,0.6,1.7,0.3,2.6c-0.3,0.9-0.3,1.7,0,2.5l-1.2,4
		c-1.6,1.2-1.9,2.4-1.1,3.6l-3.5,11.9c-2.9,2.7-3.9,6-2.9,9.9l-0.9,3c-1.6,0.5-2.5,1.4-2.7,2.6c-0.2,1.2-0.4,2.4-0.5,3.6
		c-0.1,2.1-0.5,4.2-1.1,6.1c-0.6,2-1.2,4.1-1.8,6.3c-1,2.6-1.9,5.2-2.7,8c-0.8,2.8-1.6,5.6-2.5,8.4c-0.1,0.4-0.3,0.9-0.4,1.5
		c-0.2,0.6,0,1.1,0.6,1.8l-1.7,5.9C853.7,449.1,853.6,449.8,853.8,450.6z M797.1,530.6l-0.6-0.5l-0.4,0.2c-0.1,0.2,0,0.3,0.1,0.4
		c0.1,0,0.1,0.2,0.1,0.4L797.1,530.6z M829.5,425.9c0.1-0.2,0.1-0.3,0.3-0.3c0.1,0,0.2-0.1,0.3-0.3c-0.4-0.3-0.7-0.4-1-0.3l-0.1,0.3
		c0.2,0.1,0.3,0.2,0.3,0.3C829.2,425.8,829.3,425.9,829.5,425.9z M843.5,390.3c0.3-0.9-0.1-1.2-1.1-1c-0.9-0.3-1.5,0.2-1.8,1.3
		c-0.2,0.7,0.1,1.1,1,1.4C842.5,391.9,843.2,391.4,843.5,390.3z M817.1,473.1c-0.1,0.2-0.2,0.3-0.3,0.3c-0.1,0-0.2,0.1-0.3,0.3
		l0.2,0.4c0.2,0.1,0.3,0,0.4-0.1c0-0.1,0.2-0.1,0.4-0.1L817.1,473.1z M804.1,527.3c-0.5-0.6-0.9-0.9-1.2-0.7l-0.5,0.6
		c0.1,0.5,0.5,0.7,1.2,0.7C803.7,527.7,803.9,527.5,804.1,527.3z M822,478.5c-0.3-0.8-0.6-1.2-1-1.4c-0.4-0.1-1.3,0.1-2.5,0.7
		c-1.2,0.6-1.8,1-1.6,1.3c-0.2,0.7,0,0.8,0.6,0.5c0.6-0.5,1.4-0.7,2.3-0.4C820.5,479.5,821.3,479.3,822,478.5z M837.8,413.3
		l-0.5-0.9l-0.7-0.2c-0.1,0.2-0.1,0.4,0,0.5c0.1,0.1,0.1,0.3,0,0.5c0.2,0.1,0.4,0.1,0.5,0C837.4,413.3,837.6,413.3,837.8,413.3z
		 M829.5,441.7l-0.4,0.2c-0.2,0.7,0,0.8,0.6,0.5l0.1-0.3C829.6,442,829.5,441.9,829.5,441.7z M828.4,452.8c0.1-0.2,0-0.4-0.2-0.4
		l-0.4,0.2l-0.1,0.3C828,453.5,828.2,453.5,828.4,452.8z M865.5,338.3c-0.3-0.6-0.4-1.2-0.2-1.8c0.2-0.7,0.1-1.1-0.4-1.2
		c-0.4-0.3-0.8-0.2-1.2,0.4c-0.4,0.6-0.7,1.1-0.8,1.6c-0.4,0.4-0.4,0.8-0.2,1.2s0.6,0.7,1,0.8C864.7,339.5,865.2,339.2,865.5,338.3z
		 M819.9,492.9c0.3-0.9,0.2-1.4-0.3-1.5c-0.6-0.4-1-0.2-1.3,0.7l-0.3,1c-0.1,0.2,0,0.4,0.2,0.4C819.1,494,819.7,493.8,819.9,492.9z
		 M839.4,436c0.2-0.7,0.1-1.1-0.4-1.2c-0.8,0.3-1.2,0.5-1.3,0.7c-0.9,0.5-0.8,0.8,0,1.1C838.7,436.8,839.3,436.6,839.4,436z
		 M871.1,326.4l-0.4,0.2c0.2-0.7,0.2-1,0-1.1l-0.1,0.3C870.7,326.2,870.9,326.3,871.1,326.4z M848.2,409.9c-1,0.2-1.6,0.7-1.9,1.6
		c0.2,1,0.5,1.5,1,1.4c0.9,0,1.5-0.4,1.8-1.3C849.3,410.7,849,410.1,848.2,409.9z M832.4,461.5l0.1-0.3c-0.3-0.6-0.6-0.5-0.8,0.1
		l0.1,0.8C832.1,461.9,832.3,461.7,832.4,461.5z M855.1,387.2c0.7,0,1.2-0.4,1.4-1c0.3-0.9,0.1-1.4-0.6-1.6c-1.3-0.4-1.9,0-1.8,1.3
		C853.9,386.5,854.3,387,855.1,387.2z M863.6,362.1l-0.2-0.4c-0.3-0.6-0.6-0.5-0.8,0.1c-0.1,0.2,0.1,0.4,0.6,0.5
		C863.2,362.1,863.3,362.1,863.6,362.1z M827.5,488l-0.1-0.8c-0.6-0.4-1-0.3-1.2,0.4l0.1,0.8C826.5,488.4,826.9,488.3,827.5,488z
		 M827.1,494.3l-0.1-0.8c-0.6-0.4-1-0.3-1.2,0.4c-0.1,0.4-0.1,0.7,0.1,0.8C826.2,495,826.6,494.9,827.1,494.3z M861,378.2
		c0.1-0.2,0.4-0.5,0.9-0.8c0.2-0.7-0.1-1-0.8-0.9c-0.4-0.1-0.8,0.1-0.9,0.8C859.6,377.6,859.9,377.9,861,378.2z M835.4,464.5
		l0.1-0.3c-0.2-0.3-0.4-0.3-0.7-0.2c-0.3,0.2-0.3,0.3-0.1,0.3C834.6,464.8,834.8,464.8,835.4,464.5z M817.1,529.7
		c-0.7-0.2-1.1-0.1-1.2,0.4l-0.2,0.7c-0.1,0.2,0,0.4,0.2,0.4c0.4,0.1,0.9,0,1.5-0.3C817.6,530.2,817.5,529.8,817.1,529.7z
		 M835.5,470.3l-0.1,0.3c-0.3,0.9,0,0.9,0.7,0.2l-0.2-0.4L835.5,470.3z M822.4,523.7c0.1-0.2,0.1-0.4,0-0.5c-0.1-0.1-0.1-0.3,0-0.5
		c-0.7-0.2-1.1,0-1.3,0.7l0.1,0.8C821.9,524.3,822.3,524.2,822.4,523.7z M850,439.1c0.2-0.7,0-1.1-0.7-1.3c-0.5,0.1-1,0-1.4-0.2
		c-0.4-0.2-0.9-0.2-1.5,0.1c-0.2,0.7,0,1.1,0.7,1.3C848.5,439.3,849.4,439.4,850,439.1z M840,468.4c0.1-0.2-0.1-0.6-0.4-1.2
		c-0.7-0.2-1.1-0.1-1.2,0.4c-0.2,0.7-0.1,1.1,0.4,1.2C839,469,839.4,468.9,840,468.4z M857.3,410.4l-0.3-0.1c-0.6,0.3-0.7,0.6-0.3,1
		c0.2,0.1,0.4,0,0.4-0.2C857.6,411.2,857.6,411,857.3,410.4z M870.4,363.1l-0.1,0.3l0.8-0.1L870.4,363.1z M871.2,374
		c0.2,0.1,0.4-0.1,0.5-0.6l-0.2-0.4l-0.9,0.5c0.2,0.1,0.3,0.2,0.3,0.3C870.9,373.9,870.9,374,871.2,374z"/>
	<path class="st2" d="M405.4,254.4l-2.2,7.5c-1.4,0.1-2.4,1.1-3,3.2c-2.9,6.9-5.2,13.9-6.9,21.1c-1.7,7.2-3.5,14.4-5.6,21.5
		c-0.6,2.1-0.4,3.5,0.8,4.3l-2.2,7.5c-1.3,1.4-2.5,2.8-3.6,4.1c-1.1,1.3-0.8,3.1,0.8,5.3l-2.7,9.4c-6.6,8.5-9.4,18.3-8.6,29.5
		l-2.2,7.5c-2.7,2.9-4.5,6.2-5.6,9.9c-1.1,3.8-2.2,7.5-3.3,11.3c-1.7,5.9-3.4,11.8-4.9,18c-1.6,6.1-3.4,12-5.5,17.8
		c-2.4,8.4-7.7,13.9-15.7,16.5c-3.5,1.2-6.9,2.2-10,2.9c-3.2,0.7-6.5,1.6-10,2.9l-9.4-2.7c-0.6-1.1-1.4-1.9-2.4-2.4
		c-1-0.5-1.8-1.1-2.5-1.8c-6.4-4.6-10.3-8.7-11.7-12.3c-1.4-3.6-1.3-9.2,0.5-16.9c0.4-1.3,0.8-2.6,1.2-4.1c0.4-1.5-0.1-2.9-1.5-4.2
		l1.6-5.6c4.9-4.5,6.5-9.9,4.8-16.3l2.2-7.5c5.2-5.3,6.8-10.9,4.9-16.9l2.2-7.5c2.3-0.2,3.6-1.2,3.9-2.9c0.3-1.7,0.6-3.2,1-4.5
		c1.3-6,2.6-11.7,4-17.2c1.4-5.5,3.3-11,5.9-16.7c0.7-2.5,0.3-4.2-1.2-5.1l1.6-5.6c2.8-1.9,4.5-5.3,5-10.1c1-5.1,2.4-10.1,4-14.8
		c1.6-4.7,3.2-9.6,4.6-14.6c0.5-1.7,1.1-3.1,1.9-4.2c0.8-1.1,2.4-1.3,4.9-0.6c1.7,0.5,2.9-0.5,3.6-3c0.1-0.4,0-0.9-0.3-1.4
		c-0.3-0.5-0.7-0.7-1.3-0.4c-2.2-0.2-3.5-0.7-4-1.5c-0.4-0.8-0.6-1.8-0.5-2.9c0.1-1.1,0.2-2.2,0.3-3.3c0.1-1.1-0.2-2-0.9-2.7
		l1.7-5.6c2.9-3.7,4.7-7.6,5.5-11.7c0.7-4.1,1.3-8.4,1.7-12.8l1.6-5.6c3.1-2.7,4.9-6.2,5.4-10.3c0.5-4.2,1.9-7.7,4.1-10.7
		c1.9-1.7,1.2-3.5-1.9-5.3l2.6-8.8c4.4-4.2,5.7-8.6,3.8-13.2l2.7-9.4c5-3.1,6.4-8.1,4.4-15l7.1-24.5c5.4-6.1,7.2-12.2,5.3-18.2
		l3.8-13.2c4-2.9,4.9-6,2.7-9.4l1.6-5.6c4.1-4.7,6.6-9.7,7.5-15.2c0.9-5.4,1.5-11,1.9-16.8l4.2-14.4c4.2-0.6,7.8-2.5,10.5-5.8
		c3.9-5.7,8.9-7.8,14.8-6.5c0.8,0.2,1.9,0.5,3.1,0.9c1.3,0.4,2.5-0.2,3.9-1.6l7.5,2.2c0.2,1,1,2.1,2.4,3.4
		c11.7,6.6,18,16.8,18.9,30.7c0.5,1.5,0.4,3-0.3,4.4c-0.6,1.4-0.5,2.7,0.6,3.9l-1.6,5.6c-0.7,0.7-1.3,1.3-1.9,1.8
		c-0.6,0.5-1,1.2-1.3,2c-1.7,5.9-3.4,11.8-4.9,18c-1.6,6.1-3.7,12.2-6.3,18.2c-0.7-0.7-1.1-1.1-1.3-1.4c-0.2-0.3-0.6-0.7-1.3-1.4
		c-0.4-0.1-0.8,0-1.1,0.4c-0.3,0.4-0.3,0.6,0.1,0.7l3.1,0.9c0.9,1.6,1.1,3.3,0.6,4.9c-0.5,1.7-0.5,3.3,0,4.8l-2.2,7.5
		c-3,2.3-3.6,4.6-2,6.9l-6.6,22.6c-5.6,5.2-7.4,11.4-5.5,18.8l-1.7,5.6c-3,0.9-4.7,2.6-5.2,4.9c-0.5,2.4-0.8,4.6-1,6.9
		c-0.3,4-0.9,7.9-2,11.7c-1.1,3.8-2.3,7.7-3.5,11.9c-1.9,4.9-3.6,10-5.1,15.2c-1.5,5.2-3.1,10.6-4.7,16c-0.2,0.8-0.5,1.8-0.8,2.8
		c-0.3,1,0,2.2,1.1,3.4l-3.3,11.3C405.2,251.6,404.9,252.9,405.4,254.4z M297.5,406.6l-1.1-1l-0.8,0.4c-0.1,0.4-0.1,0.7,0.1,0.7
		c0.2,0.1,0.3,0.3,0.1,0.7L297.5,406.6z M359.2,207.5c0.1-0.4,0.3-0.6,0.5-0.5c0.2,0.1,0.4-0.1,0.5-0.5c-0.7-0.7-1.3-0.8-1.9-0.6
		l-0.2,0.6c0.4,0.1,0.6,0.3,0.5,0.5C358.6,207.2,358.7,207.4,359.2,207.5z M385.8,139.8c0.5-1.7-0.2-2.3-2.1-2
		c-1.7-0.5-2.8,0.3-3.4,2.4c-0.4,1.3,0.3,2.1,2,2.6C384,142.9,385.2,141.8,385.8,139.8z M335.6,297.3c-0.1,0.4-0.3,0.6-0.5,0.5
		c-0.2-0.1-0.4,0.1-0.5,0.5l0.4,0.8c0.4,0.1,0.7,0.1,0.7-0.1c0.1-0.2,0.3-0.3,0.7-0.1L335.6,297.3z M311,400.3
		c-1-1.2-1.8-1.7-2.3-1.4l-1,1.1c0.2,1,0.9,1.4,2.3,1.4C310.1,401,310.4,400.6,311,400.3z M344.9,307.5c-0.5-1.5-1.1-2.4-2-2.6
		c-0.8-0.2-2.4,0.2-4.8,1.3c-2.4,1.1-3.4,2-3.1,2.5c-0.4,1.3,0,1.6,1.1,1c1.2-1,2.6-1.3,4.3-0.8
		C342.1,309.4,343.6,308.9,344.9,307.5z M375,183.6l-0.9-1.6l-1.3-0.4c-0.1,0.4-0.1,0.8,0,1c0.1,0.3,0.2,0.6,0,1
		c0.4,0.1,0.8,0.1,1,0C374.2,183.5,374.6,183.4,375,183.6z M359.2,237.5l-0.8,0.4c-0.4,1.3,0,1.6,1.1,1l0.2-0.6
		C359.3,238.2,359.1,237.9,359.2,237.5z M357.1,258.7c0.1-0.4,0-0.7-0.4-0.8l-0.8,0.4l-0.2,0.6C356.3,260,356.8,259.9,357.1,258.7z
		 M427.6,41c-0.6-1.1-0.7-2.2-0.3-3.5c0.4-1.3,0.1-2-0.7-2.2c-0.7-0.7-1.5-0.4-2.2,0.7c-0.8,1.1-1.3,2.1-1.5,3
		c-0.7,0.7-0.8,1.5-0.3,2.3s1.1,1.3,1.9,1.6C426,43.3,427.1,42.7,427.6,41z M341,334.9c0.5-1.7,0.3-2.6-0.5-2.9
		c-1.1-0.8-1.9-0.3-2.4,1.3l-0.5,1.9c-0.1,0.4,0,0.7,0.4,0.8C339.5,337,340.5,336.6,341,334.9z M378.1,226.7c0.4-1.3,0.1-2-0.7-2.2
		c-1.5,0.5-2.3,0.9-2.4,1.3c-1.6,0.9-1.6,1.6,0.1,2.1C376.7,228.3,377.7,227.9,378.1,226.7z M438.3,18.3l-0.8,0.4
		c0.4-1.3,0.3-1.9-0.1-2.1l-0.2,0.6C437.5,17.9,437.9,18.2,438.3,18.3z M394.6,177c-1.9,0.4-3.1,1.4-3.6,3c0.3,1.9,1,2.8,2,2.6
		c1.8,0.1,2.9-0.7,3.4-2.4C396.9,178.6,396.3,177.5,394.6,177z M364.6,275.1l0.2-0.6c-0.6-1.1-1.1-1-1.4,0.3l0.3,1.4
		C364.1,275.9,364.5,275.5,364.6,275.1z M407.9,134c1.4,0,2.2-0.7,2.6-2c0.5-1.7,0.1-2.7-1.1-3.1c-2.5-0.7-3.7,0.1-3.4,2.4
		C405.6,132.6,406.2,133.5,407.9,134z M423.9,86.2l-0.4-0.8c-0.6-1.1-1.1-1-1.4,0.3c-0.1,0.4,0.2,0.7,1.1,1
		C423.2,86.3,423.5,86.1,423.9,86.2z M355.3,325.5l-0.3-1.4c-1.1-0.8-1.9-0.5-2.2,0.7l0.3,1.4C353.5,326.3,354.2,326.1,355.3,325.5z
		 M354.5,337.5l-0.3-1.4c-1.1-0.8-1.9-0.6-2.2,0.7c-0.2,0.8-0.2,1.3,0.3,1.4C353,338.9,353.7,338.6,354.5,337.5z M419,116.8
		c0.1-0.4,0.7-0.9,1.8-1.5c0.4-1.3-0.1-1.8-1.5-1.8c-0.8-0.2-1.4,0.3-1.8,1.5C416.4,115.6,416.9,116.2,419,116.8z M370.4,280.9
		l0.2-0.6c-0.3-0.5-0.7-0.7-1.3-0.4c-0.5,0.3-0.6,0.5-0.2,0.6C368.9,281.4,369.3,281.5,370.4,280.9z M335.5,404.8
		c-1.3-0.4-2-0.1-2.2,0.7l-0.4,1.3c-0.1,0.4,0,0.7,0.4,0.8c0.8,0.2,1.8,0.1,2.9-0.5C336.6,405.8,336.3,405,335.5,404.8z
		 M370.6,291.8l-0.2,0.6c-0.5,1.7-0.1,1.8,1.3,0.4l-0.4-0.8L370.6,291.8z M345.6,393.4c0.1-0.4,0.1-0.8,0-1c-0.2-0.3-0.2-0.6,0-1
		c-1.3-0.4-2.1,0.1-2.4,1.3l0.3,1.4C344.6,394.5,345.4,394.3,345.6,393.4z M398.1,232.5c0.4-1.3-0.1-2.1-1.3-2.4
		c-1,0.2-1.8,0-2.6-0.4c-0.8-0.5-1.7-0.4-2.8,0.2c-0.4,1.3,0.1,2.1,1.3,2.4C395.3,233,397,233.1,398.1,232.5z M379.1,288.2
		c0.1-0.4-0.1-1.2-0.7-2.2c-1.3-0.4-2-0.1-2.2,0.7c-0.4,1.3-0.1,2,0.7,2.2C377.2,289.5,377.9,289.2,379.1,288.2z M412,178l-0.6-0.2
		c-1.1,0.6-1.3,1.2-0.5,1.9c0.4,0.1,0.7,0,0.8-0.4C412.5,179.5,412.6,179.1,412,178z M437,88l-0.2,0.6l1.4-0.3L437,88z M438.4,108.8
		c0.4,0.1,0.7-0.2,1-1.1l-0.4-0.8l-1.6,0.9c0.4,0.1,0.6,0.3,0.5,0.5C437.8,108.6,438,108.7,438.4,108.8z"/>
	<path class="st1" d="M577.1,234.4l6.5,6.5c1.7,0.8,2.7,1.4,3.1,1.9c5.6,3.9,10.4,8.4,14.5,13.5c4,5.1,8.6,9.8,13.8,14.2l0,1.9
		l2.8,2.8c2.9,1.6,5.5,3.4,7.8,5.3c2.3,1.9,3.9,4.4,5,7.5l7.5,7.5c0.8-0.4,1.7-0.2,2.5,0.6c5.8,5,11.4,10.3,16.8,15.9
		c5.4,5.6,10.7,11.2,15.9,16.8c0.4,0.4,0.9,0.9,1.4,1.4c0.5,0.5,0.7,1.3,0.4,2.4l1.9,1.9c2.1,0,3.7,0.7,4.8,2.3
		c1.1,1.6,2.4,2.9,3.9,3.9c0.6,0.6,1.3,1.7,2,3.3c0.7,1.6,1.9,1.1,3.7-1.5c0.8-0.8,1.3-0.6,1.3,0.6c1.2,2.9,0.7,4.7-1.7,5.4l4.7,4.7
		c1.2,0.4,1.9,1,1.9,1.9l4.7,4.7c5.4,1.6,9.1,5.3,10.9,10.9l2.8,2.8c2.5,0.4,4.8,2,6.9,5c2.1,2.5,4.6,3.8,7.7,3.8
		c3.1,0.1,6,0.3,9,0.7c2.3,0.2,4.3-0.3,5.9-1.5c1.6-1.2,3.1-2.7,4.7-4.7c1.1-1.1,2-2.2,2.9-3.5c0.9-1.3,2.3-1.9,4.5-2l4.8-4.8
		c0-2.1,1.3-3.4,3.9-3.9l3.8-3.8c0.4-3.8,2.3-5.7,5.7-5.7l10.4-10.4c2.5-3.4,4.6-6.8,6.3-10.4c1.7-3.6,3.7-7.1,6-10.7
		c0.4-0.8,0.9-1.6,1.4-2.4c0.5-0.7,0.8-1.5,0.8-2.4c0.9-5,1.7-10.1,2.4-15.1c0.7-5,0.7-10.2,0.2-15.4c-0.2-1.5-0.2-2.9-0.1-4.2
		c0.1-1.4-0.1-2.8-0.7-4.2c-1-4.4-2.4-8.5-4.3-12.2c-1.8-3.8-4.1-7.4-6.8-10.9c-1.2-1.2-1.6-2.4-0.9-3.4l-5.6-5.6
		c-2.5,0.4-3.8-0.8-3.7-3.7l-12.1-12.1c-1.7,0-2.6-0.9-2.8-2.8l-4.4-4.4c-1-0.2-1.9-0.7-2.7-1.4c-0.7-0.7-1.4-1.4-2-2
		c-3.5-4.8-7.7-8.5-12.6-11c-4.9-2.6-10.3-4.5-16.1-5.7c-2.7-0.6-5.6-1.5-8.6-2.6c-3-1.1-6.2-0.8-9.6,0.9c-0.4,0-1.3-0.2-2.5-0.6
		c-2.5-0.8-5-0.6-7.6,0.7c-2.5,0.9-4.9,1.6-7.3,2.3c-2.3,0.7-4.6,0.7-6.9,0.1c-6.9-1.8-11.8-6.3-14.6-13.4
		c-2.5-5.8-4.9-11.7-7.4-17.5c-2.5-5.8-4.9-11.7-7.4-17.5c-4.7-9.8-9.3-19.6-13.8-29.4c-4.5-9.8-8.9-19.8-13.2-30
		c-2.3-5.2-4.9-8.9-8.1-10.9c-3.1-2.1-7.6-3.1-13.5-3c-1.5-0.2-2.8-0.2-4.1,0c-1.3,0.2-2.6,0-4.1-0.6l-5.7,5.7
		c0,0.8-0.3,1.6-0.8,2.4c-0.5,0.7-1,1.5-1.4,2.4c-3.6,7-3.3,13.2,1.1,18.9c0.6,0.6,1.1,1.6,1.5,2.8c1.2,3.3,2.3,6.7,3.1,10
		c0.8,3.3,2.3,6.5,4.3,9.4c1.2,2.1,2.4,4.1,3.6,6.1c1.1,2,1.9,4.2,2.3,6.7c0.4,3.8,1.5,7,3.2,9.8c1.8,2.8,3.3,5.9,4.5,9.2
		c2.5,7.1,5.3,14,8.6,20.6c3.3,6.7,6.5,13.4,9.6,20.3c0.6,1.5,1.1,2.9,1.4,4.2c0.3,1.4,0.7,2.7,1.1,3.9c0.2,1.5,0.1,2.9-0.3,4.4
		c-0.4,1.5-1.4,2.5-2.8,3.1c-2.5,1.7-4.7,1.8-6.6,0.4c-3.1-2.3-6.2-4.6-9.2-7c-3-2.4-5.9-4.9-8.6-7.6c-3.3-3.7-7.1-7.2-11.4-10.4
		c-4.3-3.2-7.7-7.2-10.4-12c-0.6-1.5-1.7-2.6-3.3-3.3c-1.6-0.7-2.8-1.9-3.6-3.6c-1.9-3.5-5-6.4-9.3-8.7c-2.3-1.4-4.3-3.1-6.1-5.1
		c-1.8-2-3.4-4.1-4.8-6.4c-3.1-5.2-7.5-8.3-13.3-9.4c-5.8-1.1-11.1,0.2-16,3.9c-0.6,0.2-1.1,0.6-1.4,1.1c-0.3,0.5-0.9,0.8-1.7,0.8
		l-2.9,2.9c-0.4,1.7-0.9,3.5-1.4,5.4c-0.5,1.9-0.8,3.8-1,5.7l1.3,0c1.3-0.4,2-0.1,2.2,0.9l-0.6,0.6c-0.4,0.4-1.2,0.1-2.2-0.9
		c-0.2-0.2-0.3-0.5-0.3-0.9c-0.7,1.1-0.8,1.9-0.4,2.5c0.4,0.6,0.6,1.4,0.6,2.2c0.4,2.1,1,3.9,2,5.5c0.9,1.6,1.3,3.3,1,5.2l3.7,3.7
		c4.8,1.8,8.2,5.3,10.3,10.3l4.7,4.7c3.3,0.8,5.9,2.6,7.6,5.4c1.7,2.8,4.2,4.7,7.3,5.7c0.4,0,0.6,0.4,0.6,1.3
		c0.6,2.3,2.4,4.5,5.3,6.5c2.1,0.8,3.1,2.5,3.1,5l1.9,1.9c2.3,0.2,3.9,1.1,4.8,2.6C575.4,231.1,576.2,232.7,577.1,234.4z
		 M681.4,329.2c-0.4,0.4-0.8,0.4-1.3,0l-0.3-0.3l1.3,0L681.4,329.2z M671.8,320.2l0.3-0.3l1.2,1.2c0.2,0.2,0.4,0.2,0.6,0l0.3,0.3
		l-0.9-0.9C672.5,321.4,672,321.3,671.8,320.2z M530.8,176.7c0.2,0.6,0.1,1.2-0.3,1.6c-0.8,0-1.3-0.2-1.3-0.6
		c-0.2-0.2,0-0.6,0.6-1.3C530.5,175.8,530.8,175.9,530.8,176.7z M604.3,250.8c-0.8,0.8-1.3,0.6-1.3-0.6c-0.8-0.8-0.7-1.4,0.3-1.6
		c0.4-0.4,0.9-0.3,1.6,0.3C605.1,250,604.9,250.6,604.3,250.8z M637.9,285.7l-0.3-0.3l0.6,0L637.9,285.7z M707.3,353.8
		c-0.4,0-0.7-0.1-0.9-0.3l0.3-0.9l1.3,0c-0.2,0.2-0.3,0.4-0.3,0.6C707.6,353.4,707.5,353.6,707.3,353.8z M577.5,223.4l0.6,0
		c0.4,0,0.6,0.1,0.6,0.3c0,0.2-0.2,0.3-0.6,0.3c-0.2,0.2-0.4,0.2-0.6,0C577.7,223.8,577.7,223.6,577.5,223.4z M727.9,370.6
		c0.4,0.4,0.3,0.9-0.3,1.6c-0.4,0.4-0.9,0.3-1.6-0.3c-0.4-0.4-0.3-0.9,0.3-1.6C726.7,369.9,727.2,370,727.9,370.6z M655.6,300.9
		c-0.6-0.6-0.6-1.3,0-1.9c0.2-0.2,0.6,0,1.3,0.6c0.6,0.6,0.6,1,0,1.3L655.6,300.9z M694.5,337.9l0,0.6l-0.3-0.3L694.5,337.9z
		 M551.7,191.3c0.8,0.8,0.9,1.6,0.3,2.2c-0.4,0.8-1,1-1.6,0.3c-1.3-0.4-1.4-1.1-0.3-2.2C550.8,191,551.3,190.9,551.7,191.3z
		 M681.5,322.3c0.4,0.4,0.4,0.8,0,1.3l-0.6,0c-0.4-0.4-0.5-0.7-0.3-0.9c0.2-0.2,0.4-0.3,0.5-0.2
		C681.1,322.6,681.3,322.5,681.5,322.3z M740,380.2l-0.9,0.3l0.6-0.6L740,380.2z M607.1,246.1l-0.3-0.3l0.9-0.3L607.1,246.1z
		 M671.6,308.6c-0.4,0.4-0.9,0.3-1.6-0.3c-0.4-0.4-0.4-0.8,0-1.3c0.6-0.6,1.3-0.6,1.9,0C672.1,307.6,672,308.2,671.6,308.6z
		 M738.3,367.7c0.8,0.8,0.9,1.6,0.3,2.2c-0.8,0.8-1.7,0.9-2.5,0c-1.2-1.2-1.1-2.2,0.3-2.8C736.8,366.6,737.4,366.8,738.3,367.7z
		 M576.4,209.6c0.2,0.2,0.4,0.2,0.6,0l0.3-0.3c0.2,0.2,0.3,0.4,0.3,0.6c0,0.2,0.1,0.4,0.3,0.6l-0.9,0.3
		C576.6,210.4,576.4,210,576.4,209.6z M618.4,249.1l0.3,0.3l-0.3,0.3L618.4,249.1z M695.6,323.8l-0.3,0.9c-0.4,0-0.8-0.2-1.3-0.6
		c-0.4-0.4-0.2-0.6,0.6-0.6C695.1,323.4,695.4,323.5,695.6,323.8z M588.3,217l-0.3-0.3l0.3-0.3L588.3,217z M596.7,219.1
		c0.8-0.8,1.3-0.9,1.3,0c0.4,0.4,0.5,1.1,0.3,2.2c-0.6,0.6-1.3,0.6-1.9,0C595.8,220.7,595.9,220,596.7,219.1z M669,285.7
		c0.2,1,0,1.9-0.7,2.5c-0.9,1.3-1.8,1.4-2.8,0.3c-1-1-1.1-2-0.3-2.8C666.1,284.9,667.3,284.8,669,285.7z M742.1,361.3
		c0.6,0.6,0.7,1.1,0.3,1.6c-0.4,0.4-0.8,0.4-1.3,0c-1.3,0-1.4-0.5-0.3-1.6L742.1,361.3z M684.8,305.9l-0.6,0l0.3-0.3L684.8,305.9z
		 M550.4,167.1c0.4,0.8,0.4,1.7,0,2.5c-0.4,0.4-1.1,0.4-1.9,0c-0.8-0.8-0.9-1.6-0.3-2.2C548.6,167,549.4,166.9,550.4,167.1z
		 M749.6,368.2c-0.2,0.2-0.3,0.4-0.3,0.6c0,0.2-0.1,0.4-0.3,0.6l-0.6-0.6c-0.2-0.2-0.1-0.5,0.3-0.9C749,367.9,749.4,368,749.6,368.2
		z M599,215.6c0.8-0.8,1.5-1.1,1.9-0.6c0.4,0.4,0.6,1,0.6,1.9c-0.4,0.8-0.9,1.1-1.3,0.6C598.9,217.1,598.5,216.5,599,215.6z
		 M633.2,245.5c0.8,1.7,0.9,2.8,0.3,3.5c-0.6,0.6-1.5,0.4-2.5-0.6c-1-1-1.1-2-0.3-2.8C631.1,244.2,632,244.2,633.2,245.5z
		 M718.2,334.2l-0.3,0.3c-0.2-0.2-0.3-0.5-0.3-0.9c0.2,0.2,0.4,0.2,0.6,0L718.2,334.2z M686.1,299c0.6,0.6,0.6,1.3,0,1.9
		c-0.8,0.8-1.4,0.8-1.6-0.3c-0.4-0.4-0.3-0.9,0.3-1.6C685.3,298.6,685.7,298.6,686.1,299z M647.6,259.2c1.5-1.9,2.6-2.4,3.5-1.6
		c0.8,0.8,0.8,1.7,0,2.5c-1.1,1.1-1.9,1.3-2.5,0.7C647.7,259.9,647.3,259.4,647.6,259.2z M678.4,288.7c0.8-0.4,1.5,0,1.9,1.2
		c0,0.8,0.1,1.4,0.3,1.6c-0.6-0.2-1.4-0.7-2.2-1.5C677.8,289.4,677.8,288.9,678.4,288.7z M563.8,174.8c-0.2-0.2-0.1-0.5,0.3-0.9
		l0.6,0c0.4,0.4,0.5,0.7,0.3,0.9L563.8,174.8z M630.2,232.3c0.6-0.2,1.2-0.5,1.6-1c0.4-0.4,0.9-0.7,1.6-1c1-0.2,2-0.4,2.8-0.7
		c0.8-0.2,1.7,0.3,2.5,1.5c0.6,1.5,0.5,2.4-0.3,2.8c-0.8,0.4-1.7,0.9-2.5,1.3c-1.1,0.2-1.8,0.8-2.4,1.8c-0.5,0.9-1.3,1.5-2.4,1.8
		c-2.7,0.7-3.8-0.4-3.1-3.1C628,234.9,628.7,233.8,630.2,232.3z M638.9,244.2l0.3,0.9c-0.6,1.1-1.4,1.2-2.2,0.3
		c-1.3,0-1.5-0.4-0.6-1.3c0.4-0.4,0.8-0.5,1.3-0.3C638.1,244.1,638.5,244.2,638.9,244.2z M626.8,231.4c0.6,0.6,0.5,1.1-0.3,1.6
		c-0.8,0-1.4-0.1-1.6-0.3c-0.8,0-0.8-0.4,0-1.3C625.7,231,626.4,231,626.8,231.4z M659.7,266.9l-0.6,0c-0.2-0.2-0.3-0.5-0.3-0.9
		l0.6,0C659.6,266.2,659.7,266.5,659.7,266.9z M657,260.3c0.6,0.6,0.5,0.9-0.3,0.9l-0.6,0l-0.3-0.3c-0.2-0.2-0.2-0.4,0-0.6l0.3-0.3
		C656.3,259.8,656.6,259.9,657,260.3z M747.9,349.3l-1.3,0c0-0.4,0.2-0.8,0.6-1.3c0.4,0,0.7,0.1,0.9,0.3
		C748.8,349,748.7,349.3,747.9,349.3z M668.9,265.9c0.2,1,0,1.9-0.7,2.5c-0.6,0.6-1.4,0.5-2.2-0.3c-0.6-0.6-0.5-1.4,0.3-2.2
		C667.2,265.5,668,265.5,668.9,265.9z M752.2,318.9l-0.3-0.3c-1.1,1.1-2.1,2.2-3,3.3c-0.9,1.2-2.1,2.1-3.3,3
		c-1.7,1.3-3.5,2.3-5.3,3.2c-1.9,0.8-3.8,0.8-5.6-0.3c-2.5-0.8-5.1-1.9-7.7-3.2c-2.6-1.3-4.6-3.1-6.1-5.4c-1.4-2.3-3.2-4.3-5.1-6.1
		c-2-1.8-3.9-3.6-5.8-5.4c-2.3-1.9-4.3-3.8-5.9-5.9c-1.7-2.1-3.5-3.9-5.6-5.6c-4.4-3.5-8.4-7.3-12-11.4c-3.6-4.1-6.9-8.6-9.8-13.6
		c-0.8-2.1-0.9-4.3-0.3-6.6c0.6-2.7,1.9-5.1,3.8-7.2c1.9-2.1,3.9-4,6-5.7c1.3-0.8,2.3-1.9,3-3.3c0.7-1.4,1.7-2.5,3-3.3
		c2.5-1.7,5-2.7,7.5-3.2c2.5-0.4,5.1-1,7.8-1.6c4-0.6,7.5-0.3,10.5,1c3,1.3,5.6,3,7.6,5.1c3.7,2.9,7.2,6.1,10.4,9.5
		c3.2,3.4,6.4,6.9,9.5,10.4c2.3,2.3,4.5,4.7,6.7,7.3c2.2,2.6,5.4,4.1,9.5,4.5c0.4,0,0.8,0.1,1.1,0.5c0.3,0.3,0.3,0.7-0.2,1.1
		c-1.1,1.9-1.2,3.5-0.5,4.9c0.7,1.4,1.2,3,1.4,4.8c0.4,3.7,0.4,7.4-0.1,11c-0.4,3.6-1.8,6.9-4.1,10c-1.1,1.5-2.2,2.8-3.5,4.1
		C754.7,315.7,753.4,317.2,752.2,318.9z M663.3,255.2c0.8,0.4,1,0.8,0.6,1.3c-0.4,1.3-1,1.6-1.6,1c-1.3-0.4-1.5-1-0.6-1.9
		C662.4,254.9,662.9,254.8,663.3,255.2z M652.2,236.5c0.4-0.4,0.9-0.3,1.6,0.3c0,0.4-0.1,0.7-0.3,0.9c-0.8,0.8-1.4,0.8-1.6-0.3
		C651.9,237,652,236.7,652.2,236.5z M643.5,225.9c0.6-0.6,1.3-0.6,1.9,0c0.8,0.4,0.9,0.9,0.3,1.6c-0.8,0-1.4-0.1-1.6-0.3
		C642.9,227.1,642.7,226.7,643.5,225.9z M759.3,336c-1.1,0.6-1.9,0.8-2.5,0.3c-0.6-0.4-1.4-0.8-2.2-1.2c-1-1-1-2.1,0-3.1
		c0.4-0.4,0.9-0.7,1.6-1c0.6-0.2,0.8,0,0.6,0.6c0,1.3,0.6,2,1.9,2.2C760,334,760.2,334.7,759.3,336z M655.4,233.3
		c0.6,0.6,0.8,1,0.6,1.3c-0.4,0.4-0.8,0.4-1.3,0c-0.6-0.6-0.8-1.2-0.6-1.9l0.3,0.3c0.2,0.2,0.4,0.3,0.5,0.2
		C655,233,655.2,233.1,655.4,233.3z M665.7,237.9c1-0.6,2.1-0.4,3.1,0.6c0.8,0.8,1,1.2,0.6,1.3c-1.7,1.7-3,1.7-3.8,0
		C665.1,239.2,665.1,238.5,665.7,237.9z M770.3,342.5c0.6-0.6,1.2-0.7,1.6-0.3c0.6,0.6,0.7,1.1,0.3,1.6c-0.4,0.8-1,1-1.6,0.3
		C770.4,343.8,770.3,343.3,770.3,342.5z M644.5,215.5c-1.7-0.4-2.3-1-1.9-1.9c0.6-1.1,1.6-1,2.8,0.3c0.2,0.2,0.3,0.4,0.3,0.6
		c0,0.2,0.2,0.5,0.6,0.9c0.4-0.8,0.9-1.2,1.6-1l-0.3,0.3l-0.9,0.3C646.1,215.4,645.4,215.5,644.5,215.5z M666.1,232.6
		c-0.4,0-0.8,0.2-1.3,0.6c-0.4,0-0.7,0.1-0.8,0.2c-0.1,0.1-0.4,0.2-0.8,0.2c0-0.4-0.1-0.7-0.3-0.9l1.9,0c0.2-0.2,0.5-0.1,0.9,0.3
		l0.9-0.3l-0.3,0.3L666.1,232.6z M646.2,208.2c0.6,0.6,0.6,1.3,0,1.9l-0.9-0.3c-0.6-0.6-0.6-1.3,0-1.9L646.2,208.2z M774.5,334
		c0.4,0.4,0.4,0.6,0,0.6c-0.2,0.2-0.4,0.2-0.6,0c-0.6-0.6-0.5-0.9,0.3-0.9L774.5,334z M642.8,201c0.2,0.2,0.2,0.4,0,0.6
		c-0.4,0-0.7,0.1-0.9,0.3l0-0.6c0.2-0.2,0.4-0.3,0.5-0.2C642.4,201.3,642.6,201.3,642.8,201z M678.9,235.3c0.8,0,1,0.2,0.6,0.6
		c-0.4,0.4-0.9,0.6-1.3,0.6c-0.6,0.6-1,0.5-0.9-0.3C677.1,235.6,677.7,235.3,678.9,235.3z M677.7,230.9c-0.4,0.4-1,1-1.6,1.6
		c-0.6,0.6-1.4,0.3-2.2-0.9c-0.6-0.6-0.4-1.5,0.7-2.5c0.6-0.2,1.3-0.6,1.9-1.3c0.6-0.6,1.4-0.5,2.2,0.3c0.8,0.4,0.9,0.8,0.3,1.3
		C678.4,229.7,677.9,230.2,677.7,230.9z M667.1,223.4c-0.4,0-0.7-0.1-0.9-0.3c-0.2-0.2-0.1-0.5,0.3-0.9l1.3,0
		C667.7,222.6,667.5,223,667.1,223.4z M648.8,203.8c-0.6,0.6-1.4,0.5-2.2-0.3c-0.4-1.3-0.4-2.1,0-2.5c0.8-0.8,1.8-0.8,2.8,0.3
		C649.6,202.3,649.4,203.2,648.8,203.8z M687.1,235.2l0,0.6l-0.3,0.3l0-0.6L687.1,235.2z M665,211.2l0,1.3l-0.6,0.6
		c-1-0.2-1.1-0.7-0.3-1.6C664.5,211.5,664.8,211.4,665,211.2z M655.7,201.2l-1.3,0l0-0.6l0.9-0.3c0.2,0.2,0.3,0.4,0.2,0.5
		C655.4,200.9,655.5,201,655.7,201.2z M685.6,228.6L685,228l1.3,0l0.3,0.3C686.1,228.7,685.8,228.8,685.6,228.6z M656.1,192.1
		c1,1,0.9,2.2-0.3,3.5c-0.6,0.6-1.4,0.5-2.2-0.3c-1.5-1.5-1.4-2.5,0-3.1C654.4,191.3,655.3,191.3,656.1,192.1z M640.5,176.5
		c0.6,0.6,0.5,1.1-0.3,1.6c-0.8,0.8-1.5,0.6-1.9-0.6c-0.2-0.2,0-0.6,0.6-1.3C639.6,176,640.1,176.1,640.5,176.5z M671.3,208.6
		c-0.2,0.2-0.3,0.4-0.2,0.5c0.1,0.1,0,0.3-0.2,0.5l-0.9-0.3c0-0.4,0.1-0.7,0.3-0.9C671,207.7,671.3,207.8,671.3,208.6z M702.2,235.7
		c0.2,0.2,0.4,0.3,0.6,0.3c0.2,0,0.4,0.1,0.6,0.3l-0.3,0.9l-0.9-0.3L702.2,235.7z M788.1,316.5c0.8-0.4,1.6-0.3,2.2,0.3
		c0.2,1,0,1.7-0.6,1.9c-0.8,0.8-1.5,0.6-1.9-0.6C787.4,317.7,787.5,317.2,788.1,316.5z M615.4,141.9c-0.2,0.2-0.3,0.4-0.2,0.5
		c0.1,0.1,0,0.3-0.2,0.5c-0.2,0.2-0.4,0.2-0.6,0c-0.2-0.2-0.1-0.5,0.3-0.9C615,141.7,615.2,141.7,615.4,141.9z M710.4,236.2l0.3,0.3
		l0,0.6c-0.6,0.6-1,0.5-0.9-0.3L710.4,236.2z M782.9,306.2l0,0.6c-0.4,0.4-0.6,0.2-0.6-0.6C782.5,306.4,782.7,306.4,782.9,306.2z
		 M700.5,216.2c0.2,0.2,0.4,0.3,0.5,0.2c0.1-0.1,0.3-0.1,0.5,0.2l-0.3,0.3c-0.6,0.6-1,0.5-0.9-0.3L700.5,216.2z M631.4,144.6
		c0.6,0.6,0.8,1,0.6,1.3c-0.6,0.6-1.2,1-1.6,1c-0.4,0-0.6-0.4-0.6-1.3C630.5,144.9,631,144.6,631.4,144.6z M707.1,215.8
		c0.6-0.6,1.4-0.5,2.2,0.3c1.5,0.6,1.5,1.2,0,1.9c-0.2,0.2-0.7,0.3-1.6,0.3C706.9,217.5,706.7,216.6,707.1,215.8z M800.5,303.5
		c-0.2,0.2-0.2,0.4,0,0.6c0.2,0.2,0.2,0.4,0,0.6c-0.6,0.6-1.3,0.6-1.9,0l-0.3-0.9C798.8,303.4,799.5,303.3,800.5,303.5z
		 M754.2,254.6c-0.6,0.6-1.3,0.6-1.9,0c-0.8-0.8-0.9-1.6-0.3-2.2c0.8-0.8,1.6-1,2.2-0.3C755,252.9,755,253.8,754.2,254.6z
		 M767.1,256.7c0.6,0.6,0.8,1.5,0.6,2.5c-0.6,0.6-1.3,0.6-1.9,0c-0.8-0.8-0.9-1.8-0.3-2.8C765.9,256,766.4,256.1,767.1,256.7z
		 M773,263.2c0.8-0.8,1.7-0.9,2.5,0c0.6,0.6,0.6,1.3,0,1.9c-0.8,0.8-1.6,1-2.2,0.3C772.4,264.6,772.3,263.9,773,263.2z M780.7,271.6
		l0.6,0c0.4,0.4,0.2,0.6-0.6,0.6C780.9,272.1,780.9,271.8,780.7,271.6z M740.6,230.2c0.4,0,0.7-0.1,0.9-0.3l0.3-0.3
		c0.4,0.4,0.6,0.8,0.6,1.3c0,0.4-0.5,0.5-1.6,0.3C740.9,230.8,740.8,230.4,740.6,230.2z M797.3,281.8c0,0.4-0.3,0.9-1,1.6
		c-0.8,0-1.3-0.2-1.3-0.6c0-0.8,0.2-1.3,0.6-1.3c0.4,0,0.7,0,0.8,0.1C796.6,281.8,796.9,281.8,797.3,281.8z M765.6,248.8l-0.3,0.3
		l-0.3-0.3l0.3-0.3L765.6,248.8z M729.2,207.4c0.4-0.4,0.8-0.5,1.3-0.3c0.4,0.2,0.9,0.4,1.6,0.6c1.2,1.2,1.4,2.3,0.6,3.1
		c-1.1,1.1-2.1,1.1-3.1,0C728.7,210,728.6,208.9,729.2,207.4z M782.4,261.9l-1.3,0c-0.6-0.6-0.5-0.9,0.3-0.9l0.6,0
		C782.5,261.3,782.6,261.7,782.4,261.9z M622.8,101l0-0.6l0.3,0.3L622.8,101z"/>
	<path class="st1" d="M661.3,508.3l2.9,2.9c0.3,0.3,0.5,0.8,0.6,1.6c0.1,0.7,0.6,0.9,1.6,0.6l10.7,10.7c0.5,3.4,2.4,5.3,5.8,5.8
		l2.2,2.2c3.7,6.3,8.3,10.9,13.6,13.6l5.1,5.1c0.3,2.9,1.8,4.4,4.4,4.4l2.2,2.2c-0.2,0.2,0,0.8,0.5,1.9c3.1,3.7,6.4,7.2,10,10.4
		c3.6,3.2,7.1,6.5,10.7,9.7c0.2,0.2,0.6,0.2,1.2,0.2l2.9,2.9c1.3,2.9,3,5.3,5.2,7.2c2.2,1.9,4.6,3.6,7.2,5.2l3.6,3.6
		c0.5,1.1,0.9,2.4,1.3,3.8c0.4,1.4,1.4,2.5,3,3.5c1.5,0.8,2,2.3,1.7,4.6c-0.2,1.8-0.6,3.1-1.4,4.1c-0.8,1-1.7,1.9-2.6,2.9
		c-2.1,2.4-4.2,4.8-6.4,7.1c-2.2,2.3-4.6,4.4-7.3,6.1c-2.8,1.8-4.7,4.5-5.6,8.1l-2.9,2.9c-2,0.7-3.3,1.2-3.9,1.7
		c-0.7,0.5-1.5,1.5-2.5,3.2c-0.2,0.5-0.4,0.8-0.6,0.9c-0.2,0.1-0.5,0.3-0.9,0.6c-0.5,0.8-1.1,1.5-1.7,2.2c-0.7,0.7-1.1,1.5-1.5,2.4
		l-4.2,4.2c-1.6,0-3.1,0.5-4.4,1.5c-1.3,1-2.6,1.8-3.9,2.5c-4.9,1.9-9.8,2.8-14.7,2.6c-4.9-0.2-9.8-1-14.7-2.3
		c-3.9-0.7-7.7-1.6-11.3-2.8c-3.6-1.2-6.6-3.8-8.9-7.7c0-0.3-0.2-0.5-0.5-0.5c-0.3,0-0.6-0.1-0.7-0.2c-1.9-2.3-4.1-4.2-6.6-5.8
		c-2.4-1.6-4.4-3.8-5.8-6.6c-1.9-3.9-4.5-6.5-7.8-7.8c-3.4-1.5-6-3.5-7.9-6.2c-1.9-2.7-3.7-5.4-5.5-8.1c-2.1-3.7-3.8-7.5-5.1-11.4
		c-1.3-3.9-1.9-8-1.7-12.4c0-0.7,0-1.3-0.1-1.8c-0.1-0.6-0.6-0.7-1.6-0.4c-3.1,0.5-5.9,0.2-8.4-0.9c-2.5-1.1-5.1-2.1-7.7-3
		c-1.6-0.6-3.3-1.2-5-1.6c-1.7-0.4-3.1-1.2-4.3-2.3c-2.3-1.9-4.7-3.7-7.2-5.2c-2.5-1.5-4.3-3.9-5.2-7.2c-0.6-0.6-1.2-1.1-1.7-1.2
		c-2.4-1.1-4.4-2.7-5.8-4.6c-1.5-1.9-3.2-3.6-5.3-5.1c-0.8-0.5-1.3-1.3-1.6-2.3c-0.2-1.1-0.8-1.8-1.6-2.3c-2.8-2.1-5.4-4.4-7.9-6.9
		c-2.5-2.5-4.7-5.3-6.4-8.4c-2.1-3.4-4-6.8-5.7-10.1c-1.7-3.3-2.7-7.1-3-11.3c-0.2-1.1-0.1-2.3,0.2-3.4c0.3-1.1,0.3-2.2,0-3.2
		c-1-3.9-0.8-7.5,0.5-10.9c1.3-3.4,2.7-6.6,4.1-9.7c1.3-2.9,2.8-5.8,4.6-8.4c1.7-2.7,3.9-5,6.5-7c2.4-1.8,4.4-4,6-6.7
		c1.6-2.7,3.9-4.6,7-5.8l1-1c0.6-2.3,1.8-3.9,3.4-5.1c1.6-1.1,3.2-2.3,4.8-3.6c0.5-0.5,1.1-1,1.9-1.4c0.8-0.5,1.2-1,1.2-1.7
		c0.6-1.9,1.7-3.2,3.2-3.7c1.5-0.6,3.2-0.9,5-1.1c2.1-0.5,4.1-0.4,6.2,0.2c2,0.6,4,1.3,5.9,2.3l2.9,2.9c-0.2,0.8,0,1.5,0.5,1.9
		c0.5,0.5,0.9,0.9,1.2,1.2c3.2,3.6,6.5,7,9.8,10.3c3.3,3.3,6.6,6.6,9.8,9.8c1.1,1.1,2.2,1.5,3.2,1.2l8.7,8.7
		c1.8,2.8,3.9,5.3,6.4,7.7c2.5,2.3,4.9,4.8,7.2,7.4c0.8,0.8,1.5,1.1,2.2,0.7l2.2,2.2c0,2.6,0.7,4.3,2.2,5.1
		C657.7,507,659.4,507.7,661.3,508.3z M714,568.3c0.6,0,1-0.2,1-0.5v-0.5l-0.2-0.2c-0.3-0.3-0.7-0.2-1.2,0.2
		C713.2,568,713.4,568.3,714,568.3z M630.7,486c-0.2,0.2-0.2,0.3,0,0.5l0.2,0.2c0.6,0,0.7-0.2,0.2-0.7H630.7z M656,513.7
		c0.5-0.5,0.5-1,0-1.5c-0.5-0.5-1-0.5-1.5,0c-0.5,0.5-0.5,1,0,1.5c0.3,0.3,0.6,0.4,0.7,0.2C655.4,513.8,655.6,513.7,656,513.7z
		 M717.4,578.6c0.5,0.5,0.9,0.4,1.2-0.2c0-0.3-0.1-0.6-0.2-0.7c-0.5-0.5-1-0.5-1.5,0c0.2,0.2,0.2,0.3,0.2,0.5
		C717.2,578.2,717.3,578.4,717.4,578.6z M722.1,585.1c0.8,0.2,1.3,0.2,1.5,0c0.2-0.8,0-1.5-0.5-1.9c-0.3-0.3-0.7-0.2-1.2,0.2
		C721.5,584.1,721.6,584.6,722.1,585.1z M644.1,504.7c-0.5,0.5-0.5,1,0,1.5l0.7,0.2c0.5-0.5,0.5-1,0-1.5
		C644.5,504.9,644.2,504.8,644.1,504.7z M728.4,589.5l0.2,0.2c0.3,0,0.3-0.2,0-0.5L728.4,589.5z M695.8,557.9
		c-0.5,0.5-0.4,0.9,0.2,1.2l0.5,0c0.6-0.3,0.7-0.7,0.2-1.2C696.5,557.6,696.1,557.6,695.8,557.9z M736.4,601.9
		c0.8,0.2,1.3,0,1.5-0.5c0.2-0.8,0.1-1.2-0.2-1.2c-0.8-0.2-1.3,0-1.5,0.5C735.8,601,735.9,601.4,736.4,601.9z M710.9,576.9l0-0.5
		l-0.5,0.5L710.9,576.9z M642.8,510.3h0.5c0-0.3-0.1-0.4-0.2-0.2L642.8,510.3z M675.6,542.6h-0.5l0.2,0.2L675.6,542.6z M601.1,468
		l-0.2-0.2l-0.5,0.5h0.5L601.1,468z M738.8,606.7c-0.2-0.2-0.2-0.3-0.2-0.5c0-0.2-0.1-0.3-0.2-0.5c-0.6,0-1,0.2-1,0.5l0.2,0.7
		c0.3,0,0.5,0,0.6-0.1C738.3,606.8,738.5,606.7,738.8,606.7z M681.7,551.6c0.3-1.6,0-2.6-1-2.9c-0.5-0.2-1.1-0.5-1.7-1
		c-0.6-0.5-1.1-0.4-1.5,0.2c-0.6,0.6-0.7,1.3-0.2,1.9c0.5,0.6,1.1,1.3,1.7,1.9C679.9,552.6,680.7,552.6,681.7,551.6z M741,613.8
		c1,1,1.8,1.1,2.4,0.5c0.6-0.6,0.8-1.5,0.5-2.4c-0.6-0.6-1.5-0.7-2.7-0.2c-0.6,0.3-0.9,0.6-0.7,1C740.7,612.9,740.8,613.3,741,613.8
		z M720.1,590.5l0.7-0.2c0.3-0.3,0.5-0.7,0.5-1c-0.3-0.3-0.7-0.2-1.2,0.2V590.5z M610.5,481.9c0.3,0.3,0.7,0.2,1.2-0.2
		c0.3-0.3,0.2-0.7-0.2-1.2c-0.3-0.3-0.7-0.2-1.2,0.2C610,481,610,481.4,610.5,481.9z M595.7,465.1h-1c-0.3,0.3-0.4,0.6-0.2,0.7
		c0.5,0.5,0.9,0.6,1.2,0.2V465.1z M614.4,488.2c0.5-0.5,0.6-0.9,0.2-1.2c-0.6-0.3-1.1-0.3-1.5,0c-0.8,0.2-0.9,0.6-0.2,1.2
		C613.4,488.7,613.9,488.7,614.4,488.2z M579.9,454.6v-0.5l-0.2,0.2L579.9,454.6z M642.1,518.3c-0.5,1.1-0.5,1.9,0,2.4
		c0.5,0.5,1.1,0.4,1.7-0.2c0.6-0.6,0.6-1.4-0.2-2.2C643.1,517.8,642.6,517.8,642.1,518.3z M721.6,596.8l-0.2,0.2l0.5,0L721.6,596.8z
		 M691.4,569.1l0.7,0.2c0.5-0.2,0.5-0.5,0-1h-1c0.2,0.2,0.2,0.3,0.1,0.4C691.2,568.8,691.3,568.9,691.4,569.1z M603.5,480.6v-0.5
		c-0.2-0.2-0.3,0-0.5,0.5C603.2,480.5,603.3,480.5,603.5,480.6z M676.9,554.5c-0.5-0.5-0.7-0.4-0.7,0.2c-0.2,0.2-0.2,0.3,0,0.5
		c0.2-0.2,0.3-0.2,0.4-0.1c0.1,0.1,0.2,0,0.4-0.1C676.7,554.8,676.7,554.7,676.9,554.5z M651.6,532.6c0-0.7,0.2-1.2,0.5-1.7
		c0.3-0.5,0.2-1.1-0.5-1.7c-1.3-0.6-2-0.6-2.2,0.2c-0.6,1-0.4,2,0.7,3.2C650.6,533.8,651.1,533.8,651.6,532.6z M671.3,550.4h-0.5
		l0.2,0.2L671.3,550.4z M591.3,472.9c-0.6-0.6-1.5-0.7-2.7-0.2c-0.5,0.2-0.3,0.6,0.5,1.5c0.6,1.3,1.5,1.5,2.4,0.5
		C592,474.1,591.9,473.6,591.3,472.9z M643.3,529.7c-0.2,0.2-0.1,0.4,0.2,0.7l0.2-0.2c0.2-0.2,0.2-0.4,0.2-0.7
		c-0.2,0.2-0.3,0.2-0.4,0.1C643.6,529.5,643.5,529.6,643.3,529.7z M650.4,541.1c0.6,0.6,1.2,0.7,1.7,0.2c0.3-0.3,0.6-0.6,1-0.7
		c0.3-0.2,0.5-0.4,0.5-0.7c-0.2-0.5-1-0.7-2.4-0.5C650.6,539.6,650.4,540.2,650.4,541.1z M632.5,551.2c3.3-2.3,5.3-5.1,6.1-8.3
		c0.8-3.3,1.3-6.6,1.5-10c0.2-2.1-1-4.4-3.4-6.8c-2.4-2.1-4.9-4.3-7.5-6.6c-2.6-2.3-4.9-4.9-6.8-7.8c-1-1.6-2.1-3.1-3.3-4.5
		c-1.2-1.4-2.7-2.5-4.5-3.3c-1.9-1-3.5-2.2-4.6-3.6c-1.1-1.5-2.2-3-3.2-4.6l-2.4-2.4c-1.6-1.9-3.6-3.2-5.8-3.6
		c-2.3-0.5-4.5-0.9-6.8-1.2c-2.6,0-5.1,0.2-7.4,0.6c-2.4,0.4-4.4,1.8-6.2,4.3c-0.2,0.5-0.5,0.9-1,1.2c-0.5,0.3-0.9,0.7-1.2,1
		c-1.3,0.7-2.2,1.6-2.8,2.8c-0.6,1.2-1.1,2.4-1.6,3.5c-1,2.6-1.4,5.1-1.4,7.4c0.1,2.4,0.2,4.8,0.3,7.2c0,3.2,1.3,5.8,3.9,7.8
		c1.6,1.6,3.2,3.2,4.6,4.6c1.5,1.5,2.8,3,4.1,4.6c1.9,2.3,4.1,4.4,6.3,6.3c0.8,0.8,1.7,1.5,2.6,2.1c0.9,0.6,1.7,1.3,2.3,2.3
		c3.1,4.7,6.8,8.3,11.2,10.7c8.3,5,16.1,4.8,23.4-0.6c0.7-0.7,1.3-1.2,2-1.7C631.5,552.2,632,551.7,632.5,551.2z M677.3,627.4
		c1.8,1.8,3.2,2.8,4.1,3.2c1,0.3,3.2,0.8,6.8,1.4c4.9,0.6,9-0.1,12.3-2.1c3.3-2.1,6.3-4.9,8.9-8.5c2-2.6,3.2-5.5,3.8-8.7
		c0.6-3.2,0.2-6.4-1.1-9.6c-1.8-3.7-4.4-6.8-7.8-9.2c-1.9-1.3-3.2-2.5-3.6-3.6c-1.6-2.9-3.6-4.9-5.8-5.8c-2.6-1.3-4.8-3-6.7-5.2
		c-1.9-2.2-3.8-4.4-5.7-6.7c-2.1-2.8-5.4-4.7-9.9-5.9c-4.5-1.2-8.2-0.8-11.1,1.1c-2.4,1.8-4.9,3.6-7.2,5.5c-2.4,1.9-4.2,4.4-5.5,7.7
		c-0.8,1.8-1.2,3.5-1.1,5.3c0.1,1.7-0.3,3.5-1.1,5.3c1.3,1,2.1,2.2,2.4,3.6c0.3,1.5,0.7,2.9,1.2,4.4c1.1,4.4,3.5,7.4,7,9
		c2.6,1.3,4.8,3.3,6.6,6.1c1.3,1.9,2.7,3.7,4.3,5.2c1.5,1.5,3.3,3,5.2,4.3C675.4,625.3,676.7,626.4,677.3,627.4z M725.5,614.8
		c-0.2,0.2-0.2,0.3,0,0.5l0.2-0.2L725.5,614.8z M719.4,611.6c-0.5,0.5-0.5,1,0,1.5c0.5,0.5,0.9,0.6,1.2,0.2c0.6-0.6,0.6-1.3,0-1.9
		C720.3,611,719.9,611.1,719.4,611.6z M575.1,469.7c0.3,0,0.4-0.1,0.2-0.2c0.2-0.2,0.2-0.3,0.1-0.4c-0.1-0.1-0.2,0-0.4,0.1l-0.2,0.2
		L575.1,469.7z M648.7,544.3c0.5-0.5,0.4-1.1-0.2-1.7c-0.6-0.6-1.1-0.6-1.5,0c-0.3,0.6-0.2,1.2,0.2,1.7
		C647.7,544.8,648.2,544.8,648.7,544.3z M660.3,560.3c1,0.3,1.9,0.3,2.9,0c1.1-0.5,1.2-1.2,0.2-2.2c-0.6-0.6-1.5-0.7-2.7-0.2
		C660,558.7,659.9,559.5,660.3,560.3z M568.5,464.1l-0.2,0.2l0.2,0.2V464.1z M730.8,626.9h-1l-0.2,0.2l-0.2,0.2
		c0.5,0.5,0.9,0.6,1.2,0.2C730.6,627.3,730.6,627.1,730.8,626.9z M584.3,484.8l-0.2-0.2v0.5L584.3,484.8z M566.8,473.1
		c0.6,0.6,1.3,0.6,1.9,0c0.5-0.5,0.4-1.1-0.2-1.7c-0.6-0.6-1.3-0.6-1.9,0C566.1,471.9,566.1,472.5,566.8,473.1z M723.5,627.9
		l0.2,0.2c0.6,0,0.7-0.2,0.2-0.7l-0.2-0.2C723.6,627.3,723.5,627.6,723.5,627.9z M726.4,634.7c0.5-0.5,0.6-0.9,0.4-1.3
		c-0.2-0.4-0.4-0.9-0.6-1.3c-0.8-1.5-1.8-1.6-2.9-0.5c-0.6,0.6-0.6,1.4,0.2,2.2C724.6,634.8,725.6,635.2,726.4,634.7z M713.1,619.4
		l-0.2-0.2l-0.2,0.2H713.1z M654.8,562.5v-1h-0.5c0,0.3,0.2,0.6,0.7,0.7L654.8,562.5z M577.5,488.2c0.5,0.5,1.1,0.4,1.7-0.2
		c0.3-1,0.2-1.5-0.2-1.7c-0.3-0.3-0.7-0.2-1.2,0.2C577.1,487.1,577,487.7,577.5,488.2z M572.4,482.1h1c-0.2-0.2-0.2-0.3,0-0.5
		c-0.2,0.2-0.3,0.2-0.4,0.1c-0.1-0.1-0.2,0-0.4,0.1L572.4,482.1z M650.1,564.7c0.3,0.6,0,0.9-1,0.7c-1-0.2-1.1,0.2-0.2,1
		c1,0.6,2.3,0.5,3.9-0.5c0.8-0.8,0.9-1.5,0.2-2.2C651.9,562.9,650.9,563.2,650.1,564.7z M710.4,630.3c1,0.3,1.5,0.2,1.7-0.2
		c0.8-0.8,0.7-1.2-0.2-1.2c-0.8-0.8-1.4-0.7-1.7,0.2C709.8,629.4,709.9,629.8,710.4,630.3z M723,642c0.6-0.6,0.7-1.2,0.2-1.7
		c-0.5-0.5-1-0.5-1.5,0c-0.5,0.5-0.5,1,0,1.5C722.3,642.2,722.7,642.3,723,642z M568,485l-0.2-0.2l-0.2,0.2H568z M642.1,564.5
		c0.3-1,0.2-1.6-0.5-1.9c-0.8-0.8-1.5-0.9-2.2-0.2c-1,1-0.9,1.7,0.2,2.2C640.5,565.3,641.3,565.3,642.1,564.5z M722.1,645.9
		c0.6-0.6,0.6-1,0-1c-0.6-0.6-1.3-0.8-1.9-0.5c-0.5,0.5-0.6,0.9-0.2,1.2C720.5,646.3,721.2,646.3,722.1,645.9z M710.4,635.7
		c-0.2,0.5-0.3,1-0.5,1.5c-0.2,0.5,0.1,0.9,0.7,1.2c0.3,0.3,0.7,0.2,1.2-0.2c0.3-0.6,0.2-1.5-0.2-2.7
		C711.3,635.1,710.9,635.2,710.4,635.7z M648.9,576.1l-0.2,0.2h0.5L648.9,576.1z M627.5,559.1v0.5l0.2-0.2L627.5,559.1z
		 M621.9,561.3c0-0.3,0-0.5-0.1-0.6c-0.1-0.1-0.1-0.3-0.1-0.6c-0.2,0.2-0.3,0.2-0.5,0.2c-0.2,0-0.3,0.1-0.5,0.2
		c0.2,0.2,0.2,0.3,0.2,0.5c0,0.2,0.1,0.3,0.2,0.5C621.5,561.2,621.8,561.1,621.9,561.3z M631.2,580.7c0.5,0.5,1,0.5,1.5,0
		c0.3-1.3,1.3-1.9,2.9-1.9c0.6,0,1.3,0,1.8,0.1c0.6,0.1,0.9-0.4,0.9-1.3c-0.3-1.6-1.3-2.4-2.9-2.4c-1-0.3-2,0.2-3.2,1.7
		c-1.1,1.5-1.5,2.7-1.2,3.6L631.2,580.7z M622.4,565.2c0.8,0.8,1.5,0.9,2.2,0.2c1-0.3,1.1-0.8,0.5-1.5c-0.2-0.5-0.5-0.7-1-0.7
		c-0.5,0-0.9,0.2-1.2,0.5C622.4,563.9,622.3,564.4,622.4,565.2z M559.7,499.6c-1,0.3-1,0.5,0,0.5l0.2-0.2L559.7,499.6z M710.1,654.4
		c0.6-0.6,0.6-1.1-0.2-1.2c-0.2-0.2-0.3-0.2-0.5,0l-0.2,0.2c-0.5,0.5-0.6,0.9-0.2,1.2C709.3,654.9,709.7,654.8,710.1,654.4z
		 M643.3,588.5l0.2-0.7c-0.2-0.5-0.6-0.7-1.2-0.7c-0.5,0.5-0.6,0.9-0.2,1.2C642.3,588.4,642.7,588.5,643.3,588.5z M624.9,570.5h-0.5
		l0.2,0.2L624.9,570.5z M634.1,590.9c1,0.3,1.6,0.3,1.9,0c0.6-0.6,0.7-1.2,0.2-1.7c-0.5-1.1-1.2-1.2-2.2-0.2
		C633.8,589.6,633.8,590.3,634.1,590.9z M622.9,575.9c-0.5-0.5-1-0.5-1.5,0c-0.3,0.3-0.3,0.6,0,1c0,0.3,0.4,0.4,1.2,0.2
		C623,576.8,623.1,576.4,622.9,575.9z M546.1,504c0.3,0,0.6-0.1,0.7-0.2l-0.2-0.7l-0.7,0.2C545.7,503.4,545.8,503.6,546.1,504z
		 M616.1,573.9v-1c-0.2-0.8-0.6-0.9-1.2-0.2c-0.3,0.3-0.3,0.6,0,1L616.1,573.9z M587.7,545.5l-0.2,0.7l0.7,0.7l0.2-0.7L587.7,545.5z
		 M679.5,641.2c0.8-0.8,1-1.5,0.5-1.9c-0.6-0.6-1.2-0.7-1.7-0.2c-0.6,0.6-0.7,1.2-0.2,1.7C678.7,641.4,679.2,641.6,679.5,641.2z
		 M580.6,539.9l-0.2,0.2c0,0.3,0.2,0.5,0.5,0.5v-0.5L580.6,539.9z M676.4,637.1h-0.5c0.2,0.2,0.2,0.3,0,0.5l0.2-0.2L676.4,637.1z
		 M631.7,598.7c0.3,0.3,0.7,0.7,1.1,1.1c0.4,0.4,0.9,0.4,1.3-0.1c1.1-0.5,1.2-1.2,0.2-2.2c-0.8-0.8-1.8-1-2.9-0.5
		C630.9,597.5,631,598.1,631.7,598.7z M561.7,526.3h1l-0.5-0.5c-0.2-0.2-0.3-0.2-0.5,0C561.4,525.8,561.4,526,561.7,526.3z
		 M681.7,646.3l0.2-0.2c0-0.3-0.1-0.4-0.2-0.2l-0.2,0.2L681.7,646.3z M684.9,651c-0.5,0.5-0.4,0.9,0.2,1.2h1
		c0.5-0.5,0.6-0.9,0.2-1.2C685.9,650.5,685.4,650.5,684.9,651z M690,656.5c0.2-0.8,0.2-1.3,0-1.5c-0.5-0.5-0.9-0.6-1.2-0.2
		c-0.6,0.6-0.6,1.1,0,1.5C689.3,656.8,689.7,656.9,690,656.5z M661.3,628.4l0.2,0.2l0.2-0.2c0.3-0.3,0.2-0.5-0.5-0.5
		C661.5,628,661.5,628.2,661.3,628.4z M579.4,546c-0.3,0.3-0.4,0.6-0.2,0.7l0.5,0.5c0.6-0.3,0.8-0.6,0.5-1c-0.2-0.2-0.3-0.2-0.4-0.1
		C579.7,546.2,579.6,546.2,579.4,546z M601.8,572.2c0.3,0,0.6-0.2,1-0.5l-0.7,0.7c-0.3-0.3-0.6-0.6-0.7-1c-0.2-0.3-0.6-0.3-1.2,0
		c0,0.3,0.1,0.6,0.2,0.7C600.8,572.7,601.3,572.7,601.8,572.2z M675.6,647.1c0.5-0.8,0.5-1.5,0-1.9c-0.6-0.6-1.4-0.6-2.2,0.2
		c-0.3,0.6-0.2,1.2,0.2,1.7C674.7,647.4,675.3,647.4,675.6,647.1z M664.7,635.7v-0.5l-0.2-0.2l0,0.5L664.7,635.7z M621.5,591.9
		l-0.2,0.2l0.2,0.2V591.9z M542.5,514.4l-0.2-0.2l0,0.5L542.5,514.4z M570.2,543.6h0.5l0.2-0.2c0-0.7-0.2-0.7-0.7-0.2
		C570.4,543.2,570.4,543.4,570.2,543.6z M576.4,557.8c-0.1,0.1-0.3,0.1-0.6,0.1l0.2,0.2c0.2,0.2,0.3,0.2,0.5,0.2
		c0.2,0,0.3,0.1,0.5,0.2l0-1C576.7,557.7,576.5,557.7,576.4,557.8z M590.6,572.7l0.2-0.2c0.3-0.3,0.2-0.5-0.5-0.5
		c-0.2,0.2-0.2,0.3,0,0.5L590.6,572.7z M596.7,579.3c0.5-0.5,0.4-0.7-0.2-0.7c-0.2-0.2-0.4-0.1-0.7,0.2l0.2,0.7
		C596.1,579.7,596.4,579.6,596.7,579.3z M549.1,532.1c0.2-0.2,0.3-0.2,0.5,0H549.1c-0.3-0.3-0.7-0.7-1.1-1.1
		c-0.4-0.4-0.9-0.3-1.6,0.4c-0.5,0.5-0.5,1,0,1.5C547,533.5,547.9,533.3,549.1,532.1z M559.5,546l0.2,0.2h0.5L559.5,546z
		 M575.3,563.2c0-0.7-0.1-1.1-0.2-1.2c-0.5-0.5-1-0.5-1.5,0c-0.5,0.5-0.4,1.1,0.2,1.7C574.3,563.9,574.8,563.7,575.3,563.2z
		 M659.1,648l0.2,0.2h0.5c0-0.7-0.2-0.8-0.5-0.5L659.1,648z"/>
	<path class="st1" d="M575.7,579l6.6,6.6c1.1,3.7,3.3,5.9,6.6,6.6l3.6,3.6c1,1.6,2.1,3.2,3.4,4.9c1.3,1.6,3,2.8,5.1,3.6l4.4,4.4
		c0.3,1.3,0.9,2.5,1.6,3.5c0.7,1,1.9,1.6,3.5,1.6l6.6,6.6c-0.2,0.8,0,1.2,0.4,1.1c0.4-0.1,0.8,0,1.1,0.4l0.7,0.7
		c0.8,1.5,1.6,2.8,2.3,4c0.7,1.2,2.1,2,4,2.3l13.1,13.1c0,1.9,1,2.9,2.9,2.9l2.9,2.9c-0.3,0.6-0.1,1.4,0.7,2.2
		c2.3,2.6,4.6,5.2,7,7.8c2.4,2.6,4.9,5,7.5,7.3c1.5,1.1,2.8,2.3,4,3.5c1.2,1.2,2.5,2.5,3.8,3.8c2.8,2.4,4.7,5.3,5.7,8.6
		c1.1,3.3,2.3,6.5,3.8,9.6c1.9,4.5,2.6,9,2.1,13.5c-0.6,4.5-0.7,8.9-0.4,13.5c0,0.3-0.2,0.6-0.5,1c-1.8,3.4-3.2,6.8-4.3,10.3
		c-1.1,3.5-3,6.6-5.7,9.4L658,748.3c-0.5-0.5-0.9-0.6-1.2-0.2c-1.1,1.5-2.4,2.5-3.9,3.2c-1.5,0.6-3.1,1.2-4.9,1.7
		c-1.8,0.5-3.4,1.2-4.9,2.2c-1.5,1-3.2,1.2-5.3,0.7c-3.7,2.4-7.5,3.4-11.3,3c-3.8-0.4-7.7-0.9-11.5-1.6c-4.5-1-8.8-2.6-12.8-4.7
		c-4-2.2-7.7-4.7-11.3-7.7c-0.6-0.6-1.3-1.2-1.9-1.7c-0.6-0.5-1.5-0.6-2.4-0.2l-0.7-0.7c-0.3-1.6-1-3-1.9-4.1c-1-1.1-2-2.3-3.2-3.4
		c-2.4-2.4-3.8-5-4.3-7.7c-0.4-2.7-0.3-5.6,0.4-8.9c0.3-1.6,1.2-2.5,2.7-2.7h-0.5c0.8-2.4,2.7-4.3,5.6-5.6c3.1-1.5,6-1.8,8.7-1
		c2.8,0.8,5.2,2.4,7.3,4.9c2.1,2.1,4.3,4,6.4,5.7c2.2,1.7,4.7,3.1,7.4,4.3c3.9,2.3,8.3,3.2,13.1,2.9c2.4,0.2,4.7,0,6.8-0.5
		c2.1-0.5,3.8-1.9,5.1-4.1l1.2-1.2c1.9-1,3.4-2.2,4.3-3.8c0.9-1.5,1.7-3.3,2.3-5.2c1-2.9,1.3-5.6,0.9-7.9c-0.4-2.4-1.1-4.6-2.1-6.7
		c-1-2.1-2.1-4.2-3.5-6.2c-1.4-2-2.6-4.2-3.5-6.4c-1.9-0.7-3.4-1.9-4.5-3.8c-1.1-1.9-2.5-3.4-4.3-4.5c-4.2-3.2-8.2-6.9-11.9-10.9
		c-3.7-4.1-7.4-8.1-11.2-12.1c-0.8-0.8-1.9-1.6-3.2-2.4c-1.3-0.8-1.9-2.1-1.7-3.9c-1.6,0-2.8-0.5-3.6-1.5c-0.8-1-1.6-1.9-2.4-2.7
		c-2.8-2.4-5.2-5.1-7.4-7.9c-2.2-2.8-4.8-5.3-7.9-7.4c-0.6-0.3-1.4-0.7-2.2-1.2c-0.8-0.5-1.4-1.1-1.7-1.7c-0.5-1.1-1.1-2.1-1.8-2.8
		c-0.7-0.7-0.9-1.7-0.6-3c-1.3,0-2.3-0.3-3.2-1c-0.8-0.6-1.6-1.4-2.4-2.2c-1.3-1-2.4-2.1-3.4-3.4c-1-1.3-2-2.7-3.2-4.1
		c-1.9-2.3-4.1-4.3-6.4-6c-2.3-1.7-4.5-3.7-6.4-6c-2.1-2.1-4.3-3.8-6.7-5.2c-2.4-1.4-4.7-2.9-6.9-4.5c-2.1-1.5-4.2-2.1-6.3-1.9
		c-2.1,0.2-4.4,0.3-6.8,0.5c-4.9,0.3-9,2.5-12.4,6.6c-3.4,4-5,8.1-4.9,12.1c0.2,10.5,3.6,19.4,10.4,26.5l3.6,3.6
		c2.3,2.3,3.4,4.7,3.5,7.2c0.1,2.5-0.4,5.1-1.3,7.7c-0.5,1.5-1.5,2.7-3,3.8c-1.5,1.1-3.2,1.9-5.1,2.7c-1.9,0.7-3.8,1.2-5.7,1.3
		c-1.9,0.2-3.6-0.1-4.9-0.7c-4.1-2.4-7.6-5.2-10.6-8.4c-3-3.2-6-6.5-8.9-10.1c-0.6-1-1-2-1-3.2c0-1.1-0.4-2.1-1.2-2.9
		c-3.1-3.4-5-7.1-5.7-11.1c-0.7-4-1.1-7.9-1.1-11.8c-0.2-5,0.3-10,1.3-14.9c1.1-4.9,3.1-9.6,6.2-14c1.1-1.5,2.3-2.9,3.4-4.4
		c1.1-1.5,2.2-3,3.2-4.6c3.9-5.8,9.3-10,16.3-12.4c1-0.3,1.9-0.6,2.8-0.9c0.9-0.2,1.9-0.6,3-1.1c2.8-1.5,5.6-2.4,8.5-2.7
		c2.9-0.3,6-0.5,9.2-0.5c2.6,0,5.1,0.3,7.7,0.9c2.5,0.6,5,1.4,7.4,2.6c3.1,1.5,6.1,2.9,9.1,4.3c3,1.4,5.8,3.2,8.4,5.5
		c0.8,0.8,1.7,1.2,2.7,1.2l2.9,2.9c0.6,1.6,1.5,2.9,2.7,3.9c1.1,1,2.2,2.1,3.2,3.4C573.6,579,574.5,579.5,575.7,579z M590.5,601.1
		l0.2-0.7l-0.7-0.2c-1,0-1.1,0.3-0.5,1C589.8,601.4,590.2,601.4,590.5,601.1z M611.9,623.5c0.5-0.5,0.6-0.9,0.2-1.2
		c-0.3,0-0.6,0.1-0.7,0.2c-0.6,0.6-0.8,1.1-0.5,1.5C611,624.1,611.4,623.9,611.9,623.5z M667,678.6l0.2-0.2l-0.2-0.2V678.6z
		 M631.5,644.6c0.2-0.2,0.3-0.2,0.5,0l-0.2-0.2l-0.2-0.2C631.4,644.3,631.4,644.4,631.5,644.6z M657.1,674.5h0.5
		c-0.2-0.2-0.2-0.3,0-0.5c-0.5-0.5-0.7-0.4-0.7,0.2L657.1,674.5z M661.7,681.5c0.3,0,0.6-0.2,1-0.5c0-0.3-0.2-0.5-0.5-0.5
		c-0.5-0.5-0.7-0.4-0.7,0.2C661.8,681.1,661.8,681.4,661.7,681.5z M582.2,606.4c0.6,0.6,1.4,0.7,2.2,0.2c1-0.3,1.1-0.8,0.5-1.5
		c-0.6-1.3-1.5-1.5-2.4-0.5C581.8,605.4,581.7,606,582.2,606.4z M570.3,593.1c-0.6,0.6-0.6,1.1,0,1.5c0.3,0.3,0.6,0.3,1,0
		c0.5-0.5,0.5-1,0-1.5C571,592.8,570.6,592.8,570.3,593.1z M629.6,653.8c0.3,0,0.6-0.1,0.7-0.2l-0.2-0.2h-0.5
		C629.4,653.5,629.4,653.7,629.6,653.8z M556.2,580.4c0.3-0.3,0.2-0.5-0.5-0.5v0.5H556.2z M617.7,643.4l-0.2-0.7
		c-0.6-0.3-1-0.2-1,0.5c0,0.3,0.1,0.6,0.2,0.7c0.2-0.2,0.3-0.2,0.5-0.2C617.4,643.6,617.5,643.5,617.7,643.4z M621.8,653.3
		c-0.2,0.5-0.3,0.9-0.5,1.2c-0.2,0.3,0.1,0.6,0.7,1c0.3,0,0.9-0.1,1.7-0.2c1-1,1.1-1.8,0.5-2.4C623.4,652.4,622.6,652.5,621.8,653.3
		z M543.6,575.1c0.3,0,0.6-0.1,0.7-0.2c0-0.3-0.1-0.6-0.2-0.7c-0.2-0.2-0.4-0.1-0.7,0.2C543.3,574.7,543.4,574.9,543.6,575.1z
		 M617.4,649c0.3-0.3,0.2-0.5-0.5-0.5v0.5H617.4z M628.9,663.8c0.8-0.5,0.9-1.1,0.2-1.7c-0.3-0.3-0.6-0.4-0.7-0.2
		c-0.8,0.2-1.1,0.7-0.7,1.7C628.1,664,628.5,664.1,628.9,663.8z M519,557.9c0.3,0.3,0.7,0.2,1.2-0.2c0.3-0.3,0.3-0.6,0-1
		c0-1-0.4-1.1-1.2-0.2C518.9,556.6,518.9,557,519,557.9z M649.8,690c0.3,0.3,0.9,0.4,1.7,0.2c0.5-0.5,0.5-1,0-1.5
		c-0.6-0.6-1.2-0.7-1.7-0.2C649.3,689.1,649.3,689.5,649.8,690z M591,630.3c0.5-0.5,0.6-0.9,0.2-1.2c-0.5-0.5-0.9-0.6-1.2-0.2
		c-0.5,0.5-0.6,0.9-0.2,1.2C589.7,631,590.2,631.1,591,630.3z M657.1,696.8v-0.5l-0.2,0.2L657.1,696.8z M546.7,587.5v-1
		c-0.5-0.5-0.7-0.4-0.7,0.2v0.5C546.3,587.6,546.6,587.7,546.7,587.5z M669.4,717.5c-0.3,0.3-0.3,1.1,0,2.4c0.6,0.6,1.1,0.9,1.2,0.7
		c0.6-0.6,0.7-1.5,0.2-2.7C670.4,717.5,669.9,717.3,669.4,717.5z M652.4,716c0.3,0.3,0.6,0.5,1,0.5c0.5-0.5,0.6-0.9,0.2-1.2
		l-0.2-0.2c-0.2-0.2-0.3-0.2-0.5,0C652.6,715.1,652.4,715.4,652.4,716z M654.1,721.6c0.3,0,0.6-0.1,0.7-0.2l0.2-0.2
		c-0.5-0.5-0.8-0.6-1-0.5C653.8,721,653.8,721.3,654.1,721.6z M660,728.9c0.5-1.1,0.5-1.9,0-2.4c-0.2-0.5-0.6-0.6-1.2-0.5
		c-0.6,0.2-1.1,0.4-1.5,0.7c-0.6,0.6-0.6,1.4,0.2,2.2C658.3,729.7,659.2,729.7,660,728.9z M511.5,580.9c0.3-0.3,0.4-0.6,0.2-0.7
		l-0.2-0.2c-0.6,0-0.8,0.2-0.5,0.5L511.5,580.9z M495.7,569c0.3,0.3,0.6,0.4,0.7,0.2c0-0.3-0.1-0.4-0.2-0.2
		C496,568.9,495.9,568.9,495.7,569z M505.9,589.4c0.3,0.3,0.7,0.2,1.2-0.2c0.3-0.3,0.3-0.6,0-1c-0.6-0.6-1.3-0.6-1.9,0
		C505.2,588.5,505.4,589,505.9,589.4z M635.9,727.2v0.5c0.2,0.2,0.3,0.2,0.5,0c-0.2-0.2-0.2-0.3,0-0.5
		C636.2,727.4,636.1,727.4,635.9,727.2z M645.6,742.8c0.6,0,1-0.2,1-0.5l-0.2-0.2c0-0.3-0.2-0.3-0.5,0
		C645.6,742.3,645.5,742.6,645.6,742.8z M483.1,586.5c-0.2,0.8-0.1,1.2,0.2,1.2c0.3,0.3,0.7,0.2,1.2-0.2c0.3-0.3,0.2-0.7-0.2-1.2
		C483.6,586.3,483.2,586.4,483.1,586.5z M640.3,749.1c1.3,0.6,2.1,0.8,2.4,0.5c0.6-0.6,0.7-1.2,0.2-1.7c-0.5-0.5-0.8-1-1-1.5
		c-1-1-1.7-0.9-2.2,0.2C639.2,747.3,639.3,748.1,640.3,749.1z M628.9,734.3v-0.5l-0.2,0.2L628.9,734.3z M495.5,602.8
		c0.2-0.8,0.1-1.4-0.2-1.7c-0.5-0.2-1,0-1.5,0.5c-0.8,0.8-0.7,1.4,0.2,1.7C494.5,603.4,495,603.3,495.5,602.8z M489.2,596.5v0.5
		l0.2-0.2L489.2,596.5z M626.4,744.9c0.6,0.6,1.2,0.7,1.7,0.2c0.6-0.6,0.7-1.2,0.2-1.7c-0.6-0.6-1.3-0.6-1.9,0
		C625.6,743.6,625.6,744.1,626.4,744.9z M616.7,737.2c0.5,0.5,1.1,0.4,1.7-0.2v-1.5c-0.6-0.6-1.2-0.7-1.7-0.2
		C616.1,735.9,616.1,736.5,616.7,737.2z M626.9,752.7c0.3,0.3,0.6,0.2,1-0.5c0-0.7-0.1-1.2-0.2-1.7c-0.2-0.5-0.5-0.5-1,0
		C626.4,751.5,626.4,752.2,626.9,752.7z M493,617.4c-0.2-0.2-0.2-0.4-0.2-0.7c-0.3,0-0.4,0.1-0.2,0.2c-0.3,0.3-0.4,0.6-0.2,0.7
		C492.6,617.6,492.9,617.5,493,617.4z M487.9,620.5c0.3,0.3,0.8,0.5,1.5,0.5c0.5-0.5,0.5-1,0-1.5c-0.3-0.3-0.6-0.3-1,0
		C487.5,619.6,487.3,619.9,487.9,620.5z M501.1,638.5c-0.2-0.2-0.2-0.3-0.1-0.4c0.1-0.1,0-0.2-0.1-0.4l-0.5,0
		c-0.2,0.2-0.2,0.3-0.1,0.4c0.1,0.1,0,0.2-0.1,0.4H501.1z"/>
	<path class="st3" d="M639.2,318.7l5.8,5.8c1.5,2.7,3.6,4.9,6.6,6.6l2.9,2.9c1.5,3.1,3.4,5.7,5.8,8c2.4,2.3,4.8,4.5,7,6.8
		c4.5,4.5,9.2,9,13.8,13.4c4.7,4.4,9.2,9.1,13.6,14.1c0.8,0.8,1.6,1.6,2.4,2.4c0.8,0.8,1.9,1.3,3.4,1.5l2.2,2.2
		c0,2.6,1.2,3.8,3.6,3.6l2.9,2.9c0,2.3,1.2,3.5,3.6,3.6l15.8,15.8c0,0.6,0.2,1,0.5,1c0.3,0,0.6,0.2,1,0.5l3.6,3.6
		c1,3.2,3.2,5.4,6.6,6.6l3.6,3.6c-0.2,1.5,0.3,2.4,1.5,2.9c1.1,0.5,1.8,1.1,1.9,1.9c0.5,2.1,1.3,3.4,2.6,4c1.2,0.6,2.6,0.9,4,1.1
		l1.5,1.5c0.5,2.4,1.7,3.6,3.6,3.6l2.9,2.9c0.3,1.9,1.1,3.4,2.3,4.3c1.2,0.9,2.6,1.7,4.3,2.3l2.9,2.9c0.6,1.6,1.4,3,2.3,4.3
		c0.9,1.2,2.3,2,4.3,2.3l2.7,2.7c0.3,1.3,0.9,2.2,1.6,2.8c0.7,0.6,1.4,1.3,2.1,2.3c1.8,2.8,3.2,5,4.3,6.7c1.1,1.7,1.5,3.2,1.5,4.6
		c-0.1,1.4-0.7,2.8-1.8,4.3c-1.1,1.5-2.9,3.4-5.3,5.8c-1.5,1.5-3.1,2.9-5,4.3c-1.9,1.4-3.3,2.9-4.3,4.5c-1.9,2.9-4.2,5.5-6.7,7.9
		c-2.5,2.3-5.2,4.7-8.1,6.9c-1.1,1.1-1.3,2.1-0.5,2.9l-4.4,4.4c-0.6,0-1.3,0.2-1.9,0.7c-0.6,0.5-1.2,1-1.7,1.5
		c-1.6,1.9-3.5,3.4-5.7,4.3c-2.2,0.9-4.4,1.8-6.7,2.8c-0.8,0.2-1.6,0.3-2.4,0.5c-0.8,0.2-1.5-0.2-2.2-1.2c-1-2.3-1.7-2.2-2.2,0.2
		c0,0.6-0.3,1-0.9,1.1c-0.6,0.1-1.1,0.2-1.6,0.4c-1.9,0.3-3.8,0.4-5.5,0.4c-1.7-0.1-3.5-0.1-5.5-0.1c-3.9,0-7.5-0.7-10.7-2.2
		c-3.2-1.5-6.6-2.9-10-4.4c-2.6-1-4.8-2.4-6.6-4.4c-1.8-1.9-3.6-4-5.3-6.1c-1.6-2.3-3.4-4.3-5.3-6.1c-1.9-1.8-3.9-3.6-5.8-5.6
		c-1.3-1.6-2.8-3.2-4.4-4.6c-1.6-1.5-3-2.9-4.1-4.4c-1.6-1.9-3.4-3.6-5.3-5.1c-1.9-1.5-3.7-3.2-5.3-5.1c-0.8-1.1-1.7-2.3-2.6-3.5
		c-0.9-1.2-1.9-2.1-3-2.6c-1.6-0.6-2.9-1.5-3.9-2.7c-1-1.1-1.9-2.3-2.7-3.4c-0.5-1.1-1.2-2.1-2.2-2.9c-1-0.8-1.9-1.5-2.9-2.2
		c-2.4-1.8-4.7-3.6-6.8-5.6c-2.1-1.9-4-4.2-5.6-6.8c-1.9-3.2-4.1-5.6-6.6-7c-2.3-1.3-4.1-2.7-5.5-4.3c-1.4-1.5-2.8-3.4-4.3-5.5
		c-0.6-1.3-1.5-2.3-2.4-2.9c-3.4-1.8-6.2-4.1-8.3-7c-2.1-2.9-4.7-5.4-7.8-7.5c-1.1-0.8-2.3-1.5-3.6-2.2c-1.3-0.6-2.4-1.7-3.2-3.2
		c-1.6-2.6-3.4-5-5.5-7.2c-2-2.2-3-5.1-3-8.6c-0.3-1-0.7-1.7-1.2-2.2c-1-1.6-1.6-3.2-1.9-4.9c-0.3-1.6-0.6-3.2-1-4.9
		c-0.6-2.9-0.7-5.8-0.2-8.5c0.5-2.8,1-5.5,1.5-8.3c0.3-3.9,1.2-7.6,2.7-11.2c1.5-3.6,3.6-6.8,6.6-9.7c0.8-0.8,1.6-1.7,2.3-2.6
		c0.7-0.9,1.1-2,1.1-3.3l0.7-0.7c1.1-0.5,2.2-1.3,3.3-2.3c1.1-1.1,2.1-1.9,3-2.6c4.1-2.4,7.6-5.5,10.6-9.1c3-3.6,5.8-7.4,8.4-11.3
		l1.5-1.5c1.6-1,3.2-1.6,4.9-1.9c1.6-0.3,3.3-0.6,5.1-0.7c4.5-1,8,0.4,10.4,4.1c0.6,1,1.5,2,2.4,3.2
		C636.3,318.1,637.6,318.7,639.2,318.7z M680.5,365.3c0,0.3,0.1,0.6,0.2,0.7c-0.2,0.2-0.2,0.2,0,0.2c0.2,0,0.3-0.1,0.5-0.2
		c0.2-0.2,0.1-0.4-0.2-0.7C680.7,365,680.5,365,680.5,365.3z M667.9,354.1c0.3,0,0.6-0.2,1-0.5c-0.2-0.2-0.2-0.4-0.2-0.7l-0.7,0.2
		V354.1z M787,473.2l0.2,0.2l0-0.5L787,473.2z M754.7,441.4c-0.2,0.2-0.2,0.3,0,0.5c0.3,0,0.6,0.1,0.7,0.2v-1L754.7,441.4z
		 M671.6,357.3l-0.2-0.2c-0.6,0-0.8,0.2-0.5,0.5c0.2,0.2,0.3,0.2,0.5,0L671.6,357.3z M702.4,395c1,0.3,1.6,0.3,1.9,0
		c0.3-0.6,0.3-1.3,0-1.9c-0.5-0.5-1.1-0.4-1.7,0.2C702.3,393.6,702.3,394.2,702.4,395z M661.6,352.2c0.3,0,0.6-0.1,0.7-0.2
		c0-0.7-0.1-1.1-0.2-1.2c-0.2-0.2-0.4-0.1-0.7,0.2c0,0.3,0,0.5,0.1,0.6C661.6,351.7,661.6,351.9,661.6,352.2z M643.1,337.1
		c0.3,0.3,0.6,0.6,0.7,1c0.2,0.3,0.6,0.3,1.2,0c0.6-0.6,0.5-1.5-0.5-2.4c-1-1-1.7-1.2-2.2-0.7c-0.8,0.5-0.9,0.8-0.4,1.1
		C642.6,336.3,643,336.6,643.1,337.1z M728.9,426.8c0.5,0.5,1.1,0.4,1.7-0.2c0.6-1.3,0.6-2.2-0.2-2.7c-0.5-0.5-1.1-0.4-1.7,0.2
		C727.8,424.9,727.9,425.8,728.9,426.8z M771.2,467.6c0.3,0,0.6-0.2,1-0.5c0.3-0.3,0.2-0.7-0.2-1.2c-0.3,0-0.6,0.1-0.7,0.2
		C770.7,466.6,770.7,467.1,771.2,467.6z M750.8,449.1c-0.8,1.1-0.9,1.8-0.1,2.1c0.7,0.2,1.5,0.4,2.3,0.6c0.6,0,1.2,0,1.7,0
		c0.5,0,0.7-0.5,0.7-1.5c-0.2-0.8-0.5-1.2-1-1.2c-0.5,0-1.1,0-1.7,0c-1,0-1.7-0.1-2.2-0.2v-0.5C750.7,448.6,750.8,448.8,750.8,449.1
		z M656.5,352.9c0.2-0.2,0.1-0.4-0.2-0.7h-0.5l-0.2,0.7C655.8,353.3,656.2,353.3,656.5,352.9z M648.5,345.4c-0.3,0-0.5,0.1-0.6,0.4
		c-0.1,0.2,0.1,0.4,0.6,0.6c0.2,0.2,0.6,0.2,1.2,0.2c0.3-0.3,0.3-0.6,0-1C649.2,345.2,648.8,345.1,648.5,345.4z M747.9,445.3
		l-0.2-0.2v0.5L747.9,445.3z M644.3,344.2l0.2,0.2c0.3-0.3,0.4-0.6,0.2-0.7c-0.2-0.2-0.3-0.2-0.5,0V344.2z M740.8,441.1
		c-0.2-0.2-0.3-0.2-0.5,0l-0.2,0.2c-0.5,0.5-0.5,1,0,1.5l0.2-0.2l0.7-0.2C741.7,441.7,741.6,441.3,740.8,441.1z M620.8,325.5
		c1,0.3,1.7,0.1,2.2-0.7c0.5-0.5,0.5-1,0-1.5c-1-0.7-1.7-0.4-2.2,0.7C620.3,324.5,620.3,325,620.8,325.5z M733.5,434.8
		c-0.2,0.5-0.2,0.9,0,1.2c0.2,0.3,0.3,0.7,0.5,1.2c0.2,0.2,0.4,0.3,0.6,0.4c0.2,0.1,0.4,0.2,0.6,0.4c0.5-0.5,0.5-0.9,0.1-1.1
		c-0.4-0.2-0.6-0.7-0.6-1.3C734.7,434.9,734.3,434.7,733.5,434.8z M758.5,461.8c-0.2,0.5-0.1,0.9,0.2,1.2c0.3,0.3,0.6,0.3,1,0
		c0.5-0.5,0.6-0.9,0.2-1.2c-0.3-0.3-0.6-0.4-0.7-0.2C759.1,461.7,758.9,461.8,758.5,461.8z M706.1,408.3v0.5h0.5v-0.5H706.1z
		 M677.9,382.6c0.8,0.2,1.4,0.1,1.7-0.2c0.2-0.5,0.1-0.9-0.2-1.2c-0.8-0.8-1.4-0.7-1.7,0.2C677.3,381.7,677.4,382.1,677.9,382.6z
		 M658.7,362.4v-1c0.3-0.3,0.2-0.5-0.5-0.5c-0.5,0.5-0.6,1-0.5,1.5H658.7z M686.4,389.1l-0.2-0.2l0.2-0.2l0.2,0.2L686.4,389.1z
		 M772.9,479c0.8,0.2,1.3,0,1.5-0.5c0.5-0.5,0.5-1,0-1.5c-0.8-0.8-1.4-0.7-1.7,0.2C772.2,477.8,772.2,478.4,772.9,479z M614.2,319.4
		c0.3,1,0.8,1.1,1.5,0.5c0.6,0,0.6-0.3,0-1c-0.5-0.5-0.8-0.6-1-0.5C613.9,318.6,613.7,318.9,614.2,319.4z M718.5,423.2
		c0.3-0.6,0.2-1-0.5-1c-0.6,0-0.9,0.1-0.7,0.2c-0.6,0.6-0.5,1,0.5,1C717.9,423.6,718.1,423.5,718.5,423.2z M632.7,341.3
		c0.6,0.6,1.4,0.7,2.2,0.2c1-0.3,1.1-0.8,0.5-1.5c-0.5-1.1-1.2-1.2-2.2-0.2C632.2,340.1,632,340.6,632.7,341.3z M747.4,452.6
		c-0.2,0.2-0.2,0.3,0,0.5l0.2-0.2l0.2-0.2H747.4z M735.7,441.9c-0.2-0.2-0.4-0.1-0.7,0.2c0,0.3,0.1,0.6,0.2,0.7l0.7-0.2L735.7,441.9
		z M727.7,434.3l0.2-0.2l-0.2-0.2V434.3z M639,346.1v1c0.2,0.2,0.3,0.2,0.5,0c0.2-0.2,0.3-0.2,0.5,0v-1c-0.2-0.2-0.3-0.2-0.5,0
		C639.3,346.3,639.2,346.3,639,346.1z M780.4,488l0.2-0.2l0.2-0.2c-0.2-0.2-0.3-0.2-0.5,0L780.4,488z M723.8,433.4
		c-0.8,0.2-0.9,0.6-0.2,1.2l0.7,0.2c1,0,1.1-0.3,0.5-1C724.6,433,724.3,432.9,723.8,433.4z M770.5,486.8c0.8,0.8,1.5,1,1.9,0.5
		c0.8-0.8,0.9-1.5,0.2-2.2c-1-1-1.9-1.1-2.7-0.2C769.5,485.4,769.6,486,770.5,486.8z M647.7,361.2l0.2-0.7l-0.2-0.2l-0.2,0.7
		L647.7,361.2z M617.1,331.5l-0.2,0.2c0.3-0.3,0.5-0.7,0.5-1v0.5L617.1,331.5z M736.4,452.8l0.2,0.2l0.2-0.2H736.4z M621,352
		c-1.5,0.5-2.8,1.1-4.1,1.7c-1.3,0.6-2.4,1.8-3.4,3.4c-0.2,0.5-0.8,1-1.9,1.5c-3.7,2.4-6.4,5.1-7.9,7.9c-1.5,2.8-1.8,6.7-0.9,11.5
		c0.5,2.7,1.1,5.5,1.8,8.4c0.7,2.8,2.6,5,5.7,6.4c0.8,0.2,1.5,0.6,1.9,1.5c0.5,0.8,1,1.6,1.5,2.4c1.1,2.4,2.7,4.1,4.6,5.1
		c3.2,1.9,6,4.4,8.3,7.3c2.3,2.9,4.9,5.5,7.8,7.8c1,1,1.1,1.9,0.5,2.9c-0.6,1-0.8,1.5-0.5,1.7c0.3,0.2,0.9,0.2,1.7,0
		c1.8-0.5,2.9,0.2,3.4,1.9c1.1,1.8,2.8,3.2,4.9,4.1c2.1,1,3.3,2.8,3.6,5.3c-0.3,0.3,0,0.5,1,0.5c3.4,2.1,6.4,4.7,9.1,7.7
		c2.7,3,5.3,5.9,7.9,8.9c3.2,3.2,6.6,6.5,10.1,9.8c3.5,3.3,6.9,6.5,10.3,9.6c1.8,1.8,3.5,3.6,5.2,5.5c1.7,1.9,3.6,3.5,5.7,5
		c2.9,2.3,5.5,4.7,7.9,7.4c2.4,2.7,4.8,5.3,7.4,7.9c1,1,1.9,1.5,2.7,1.7c2.8,0.8,5.5,0.9,8.3,0.2c2.8-0.7,5.5-1.1,8.3-1.3
		c0.3,0,0.7-0.2,1.2-0.7c2.6-2,5.1-4,7.5-6c2.4-2,4.3-4.6,5.8-7.7c1.5-3.4,1.7-6.7,0.5-9.8c-0.8-1.5-1.6-3-2.3-4.5
		c-0.7-1.5-1.9-2.8-3.5-3.8c-4.2-3.2-8-6.9-11.3-11.1c-3.3-4.1-7-7.9-11.1-11.3c-3.2-2.6-6.4-5.5-9.6-8.6s-6-6.6-8.4-10.3
		c-0.2-0.8-0.6-1.3-1.5-1.5c-1.8-0.2-3.2-0.9-4.3-2.1c-1.1-1.2-2.1-2.5-3-3.8c-1.1-1.8-2.5-3.4-4-5c-1.5-1.5-3-3-4.5-4.5
		c-2.4-2.1-4.7-4.3-6.7-6.4c-2-2.2-4.3-4.3-6.7-6.4c-2.9-2.6-5.5-5.3-7.8-8c-2.3-2.8-4.8-5.3-7.5-7.8c-3.1-2.4-5.9-5.1-8.5-8
		c-2.6-2.9-5.3-5.7-8.3-8.3c-2.6-1.9-5.1-3.9-7.6-6c-2.4-2.1-5.7-2.8-9.9-2.2c0.3-1,0.3-1.6-0.2-1.7c-0.3,0-0.5,0.2-0.5,0.5
		C619.6,351.2,620,351.6,621,352z M614.5,337.6c-0.6,0.6-0.6,1.4,0.2,2.2c0.5,0.5,1,0.5,1.5,0c0.8-0.8,0.8-1.5,0-1.9
		C615.5,337.2,614.9,337.1,614.5,337.6z M766.3,490c0.3-0.3,0.6-0.4,0.7-0.2c0-0.7-0.2-1-0.5-1c-0.2,0.2-0.4,0.2-0.7,0.2
		c0.2,0.2,0.2,0.3,0.2,0.5C766.1,489.6,766.2,489.8,766.3,490z M771.4,495.1c0.5,0.5,0.7,0.4,0.7-0.2l0-0.5h-1
		C771.2,494.7,771.3,494.9,771.4,495.1z M612.8,348.1l0.2,0.2l0.2-0.2L612.8,348.1z M755.9,493.6c0.3,0.3,0.6,0.4,0.7,0.2l0.2-0.2
		v-0.5c-0.3,0-0.6-0.1-0.7-0.2c-0.2,0.2-0.2,0.3-0.1,0.4C756.1,493.3,756,493.5,755.9,493.6z M606.7,347.3c-0.3,1-0.2,1.5,0.2,1.7
		c0.5,0.5,1,0.5,1.5,0c0.6-0.6,0.7-1.2,0.2-1.7C608,346.7,607.3,346.7,606.7,347.3z M606.4,355.8c0.6,0.6,1.2,0.7,1.7,0.2
		c0.5-0.5,0.6-1.1,0.2-1.7c-0.3-0.6-0.8-0.6-1.5,0C606.3,355,606.1,355.5,606.4,355.8z M743.2,500.9c0.8-0.2,1.4,0.2,1.7,1
		c0.3,0.8,0.8,1.1,1.5,0.7c0.6-0.6,0.7-1.3,0.2-1.9c-0.5-0.7-0.9-1.1-1.2-1.5c-0.6-1-1.5-0.9-2.7,0.2
		C742.1,500.1,742.3,500.6,743.2,500.9z M751.5,512.6c0.6,0.6,1,0.6,1,0c0.3-0.3,0.3-0.6,0-1c-0.5-0.5-0.9-0.6-1.2-0.2
		C750.9,511.7,751,512.1,751.5,512.6z M597.5,366.8c0.5,0.5,1,0.5,1.5,0c0.5-0.5,0.5-1,0-1.5c-0.5-0.5-1.1-0.4-1.7,0.2
		C597.2,366.2,597.3,366.6,597.5,366.8z M744.9,513.3v0.5l0.2-0.2L744.9,513.3z M584.6,358.8l0.5,0.5c0.6,0,0.7-0.2,0.2-0.7
		c-0.2-0.2-0.3-0.2-0.5,0L584.6,358.8z M623,408.8c-0.2-0.2-0.4-0.1-0.7,0.2c0.3,0.3,0.6,0.4,0.7,0.2V408.8z M719.2,506v0.5l0.2-0.2
		L719.2,506z M668.9,458.6c0.2,0.2,0.4,0.1,0.7-0.2l0-0.5c-0.2-0.2-0.3-0.2-0.5,0C668.8,457.9,668.7,458.1,668.9,458.6z
		 M673.7,470.3c0.8,0.2,1.4,0.1,1.7-0.2c1.1-0.5,1.4-1.1,0.7-1.7c-0.2-0.8-0.8-1-1.9-0.5C673.4,468.7,673.3,469.5,673.7,470.3z
		 M596.5,389.6c0-0.3-0.2-0.5-0.5-0.5c-0.3,0-0.6,0.1-0.7,0.2l0.2,0.7C595.8,390.1,596.2,389.9,596.5,389.6z M669.4,464l0.2-0.2
		h-0.5L669.4,464z M680.1,479c0.6,0,1.1-0.2,1.5-0.5c0-0.7-0.1-1.1-0.2-1.2c-0.3-0.6-0.8-0.6-1.5,0C679.5,478,679.6,478.5,680.1,479
		z M701.7,503.6c-0.5,0.5-0.4,1.1,0.2,1.7h1.5c0.6-0.6,0.7-1.2,0.2-1.7C703,502.9,702.3,502.9,701.7,503.6z M643.4,445.3
		c0.5-0.5,0.6-0.9,0.2-1.2c-0.6-0.6-1.3-0.8-1.9-0.5c-0.5,0.5-0.5,1,0,1.5C641.8,445.5,642.4,445.6,643.4,445.3z M708.7,511.6h0.5
		v-0.5L708.7,511.6z M597.9,402.3c0,0.6,0.2,0.7,0.7,0.2c0-0.3,0.1-0.6,0.2-0.7c-0.2-0.2-0.4-0.2-0.7-0.2
		C598,401.7,597.9,401.9,597.9,402.3z M626.1,435.3c0.2-0.5,0.5-0.8,1-1c0.5-0.2,0.6-0.4,0.2-0.7c-0.8-0.8-1.8-0.6-2.9,0.5
		c-1.1,0.5-1.3,1.1-0.5,1.9c0.5,0.5,0.9,0.6,1.2,0.2C625.5,435.9,625.8,435.6,626.1,435.3z M653.6,461.3c-0.3,0.3-0.4,0.9-0.2,1.7
		c0.5,0.5,0.9,0.6,1.2,0.2c0.5-0.5,0.5-1,0-1.5C654.2,461.5,653.9,461.3,653.6,461.3z M682,496.5c-0.6,0.6-0.6,1.1,0,1.5
		c0.5,0.5,0.9,0.6,1.2,0.2c0.6-0.6,0.6-1.2-0.2-1.7C682.7,496.2,682.3,496.2,682,496.5z M624.2,443.1c0.6-0.6,0.6-1.1-0.2-1.2
		c-0.3,0-0.6,0.1-0.7,0.2c-0.5,0.5-0.5,1,0,1.5C623.9,443.6,624.2,443.4,624.2,443.1z M686.4,507.7l0.2,0.2l0.2-0.2H686.4z
		 M691.5,513.8l-0.2-0.2c-0.6,0-0.7,0.2-0.2,0.7c0.2,0.2,0.3,0.2,0.5,0C691.3,514.1,691.3,513.9,691.5,513.8z"/>
	<path class="st1" d="M383.8,581.9l-1.1,0.9l-1.1,0.9l-5.5,4.7c-1.4,0.4-2.6,0.7-3.5,1.1c-0.9,0.4-1.5,1.5-1.6,3.3l-10,8.5
		c-3.1,1.4-6,2.9-8.6,4.5c-2.6,1.6-4.6,4.2-5.8,7.8l-4.4,3.8c-1.4,0.4-2.5,0.8-3.2,1.5c-4.1,2.7-8.2,4.3-12.3,4.8
		c-4.1,0.5-8.3-0.6-12.7-3.2c-0.9-0.1-1.7-0.4-2.3-0.9c-0.6-0.5-1.4-0.8-2.3-0.9l-4.7-5.5c-1.5-4.2-4.9-8.2-10.1-11.8l-5.7-6.6
		c0.2-2.7-1.4-4.6-4.7-5.5l-1.9-2.2c-0.1-1.6-0.7-3-1.7-4.3l-14.6-17c-0.6-0.7-1.4-1.6-2.2-2.6c-0.8-1-1.8-1.4-3-1.3l-11.4-13.3
		c0.8-1.1,0.4-2.5-1.1-4.2c-3.7-5.3-5.6-9.7-5.5-13.2c0-3.4,1.6-7.6,4.7-12.4c0.3-0.7,0.6-1.3,0.8-2c0.3-0.7,0.3-1.4,0.2-2.1
		l6.6-5.7c1.6,0.8,2.9,1.1,4.1,1c1.2-0.1,2.3-0.3,3.5-0.4c3.9,0.1,7.6,0.6,11.1,1.7c3.5,1.1,6.4,3,8.7,5.7c2.7,3.7,5.5,7.2,8.3,10.8
		c2.8,3.5,5.9,6.9,9,10.2c3.2,3.2,6.2,6.6,9,10.2c2.8,3.5,6.2,6.6,10.2,9.2c4.1,3.3,8.2,4.3,12.2,3c4-1.3,7.9-2.8,11.5-4.5
		c3.7-1.7,7.1-3.9,10.3-6.6c3.7-3.6,7.5-6.9,11.4-9.8c3.9-2.9,7.7-6.2,11.4-9.8c2-2.1,4.3-4.1,6.8-5.9c2.6-1.8,4.7-3.8,6.5-6.2
		c3.6-5.2,5.5-10.7,5.5-16.3c0.1-5.6-1.7-11.1-5.5-16.4c-2.5-3.9-5.3-7.6-8.4-11.3c-3.2-3.7-6.2-7.2-9.2-10.7
		c-5.5-6.4-7-12.9-4.6-19.5c2.5-6.6,6.4-11.2,11.9-13.7c4.3-1.5,8.9-1.7,14-0.5c5.1,1.2,9.5,3.8,13.4,7.7c4.1,3.8,7.7,7.9,10.9,12.4
		c3.2,4.5,7,8.5,11.3,12.1c1.7,1.5,3.3,2.5,4.8,2.9c1.5,0.5,3.1,0.8,4.9,0.9c2,0.4,4,0.5,5.8,0.4c1.8-0.1,3.6-0.6,5.3-1.7
		c2.4-1.2,4.7-2.5,6.8-4c2.2-1.4,4-3.3,5.6-5.4c1.8-2.8,4-4.7,6.6-5.7c2.6-1,4.6-2.2,6.1-3.7c1.5-1.5,3-3.1,4.5-4.8
		c1.1-1.8,2.1-2.8,3-3.2c4.8-2.4,8.9-5.6,12.3-9.6c3.4-4,7.2-7.6,11.3-10.7c3.9-2.9,6.3-6.2,7.3-9.8c1-3.6,1.4-7.5,1.2-11.6
		c-0.3-1.9-0.6-3.5-1-4.9c-0.3-1.4-1.3-2.7-2.8-4c-4.1-3.8-7.4-7.9-9.9-12.3c-2.5-4.4-6.1-8.3-10.7-11.7c-0.6-0.7-0.9-1.3-0.9-1.8
		c-0.6-1.7-1.3-2.8-2.3-3.5c-1-0.7-2-1.6-3.1-2.8c-3-3.4-5.6-7.1-7.9-11.1c-2.3-4-3-8.6-1.9-13.8c0.4-2.5,1.2-4.7,2.2-6.7
		c1.1-2,2-4,2.9-6l2.2-1.9c0.9,0.1,2.3-0.1,4.2-0.4c4.3-1.5,8.2-2.4,11.8-2.7c3.6-0.3,7.2,1.2,10.9,4.4c0.4,0.5,1,0.9,1.6,1.2
		c0.7,0.3,1.5,0.2,2.4-0.2l5.7,6.6c0.9,3.1,2.4,5.8,4.5,8.3c2.1,2.5,4.1,4.8,6,7c1.5,1.7,2.9,2.4,4.3,2.1l5.7,6.6
		c0.6,6.7,3.8,10.4,9.5,11.1l2.8,3.3c-0.2,2.7,1.1,4.2,3.8,4.4l4.7,5.5c-0.6,1.3-0.3,2.3,0.6,3c1,0.7,1.7,1.5,2.1,2.4
		c2.5,3.9,5.3,7.5,8.7,10.8c3.3,3.4,5.5,7.6,6.4,12.7c0.3,2.8,0.3,5.1,0.2,6.9c-0.1,1.8-1.1,3.7-2.8,5.6c-1,1.3-1.6,2.5-1.8,3.5
		c-0.2,1-0.4,2.1-0.8,3.2l-7.7,6.6c-3.3,0.7-5.8,2.1-7.7,4.4c-1.9,2.3-3.6,4.5-5.2,6.7l-6.6,5.7c-4.8,2.8-9.2,6-13.3,9.5
		c-4.1,3.5-8.3,6.9-12.7,10.2c-1.2,1.1-1.8,2.4-1.7,4l-8.8,7.6l-2.1-0.2c-3.9,2.5-7.5,5.3-11,8.5c-3.5,3.2-6.9,6.2-10.3,9.2
		c-1,0.8-1.9,1.6-2.8,2.4c-0.9,0.7-1.2,1.9-1.1,3.5L462,514.7c-5.2,1.4-8.5,4.3-10,8.5l-4.4,3.8c-3.9,0.4-6.1,2.3-6.6,5.7l-3.3,2.8
		c-3.1,1.8-6.1,3.6-8.8,5.4c-2.8,1.7-5,4.4-6.6,7.9l-8.5,7.3c-3.4-0.5-5.2,1.1-5.5,4.7l-2.2,1.9c-0.7-0.3-1.3-0.6-2-0.8
		c-0.7-0.3-1,0-1.1,0.9c-0.8,1.5-1.7,2.7-2.8,3.4c-1.1,0.7-2.3,1.5-3.8,2.3c-2.1,1-2.9,2.5-2.4,4.6l-4.4,3.8
		C386.6,576.9,384.8,578.5,383.8,581.9z M468,503.1c-1,0.8-1.2,1.6-0.5,2.4c0.4,0.5,1,0.4,1.7-0.2c1.2-1.1,1.3-1.7,0.2-2.1
		C469,502.8,468.5,502.7,468,503.1z M447.3,521.6c-1.5-0.8-2.7-0.9-3.4-0.3s-0.7,1.4,0.2,2.4c0.4,0.5,1.3,0.6,2.7,0.2
		C447.5,523.3,447.7,522.5,447.3,521.6z M434.5,526.8c0.4,0.5,1,0.4,1.7-0.2l-0.3-1.1c-0.4-0.5-1-0.4-1.7,0.2
		C434.2,526.2,434.3,526.5,434.5,526.8z M501.6,469.8l0.4-0.3c-0.4-0.5-0.8-0.6-1-0.4l-0.4,1C500.9,470.6,501.3,470.5,501.6,469.8z
		 M384.6,561.9c-0.7,0.6-0.8,1.3-0.2,2.1c0.8,1,1.6,1.2,2.4,0.5c0.7-0.6,0.8-1.3,0.2-2.1C386.6,562,385.8,561.8,384.6,561.9z
		 M399.5,551.7l0.1-1.4l-0.4,0.3c-0.2,0.2-0.3,0.4-0.2,0.5c0.1,0.1,0,0.3-0.2,0.5L399.5,551.7z M484.3,475.1c0.4,0.5,1,0.4,1.7-0.2
		c0.5-0.4,0.4-1-0.2-1.7c-0.4-0.5-1-0.4-1.7,0.2C483.6,473.8,483.7,474.3,484.3,475.1z M502.2,456.5c-0.3,1.1-0.4,1.8-0.2,2.1
		c0.6,0.7,1.3,0.8,2.1,0.2s0.8-1.3,0.2-2.1C504.1,456.4,503.4,456.3,502.2,456.5z M322,611.3c-0.5,0.4-0.6,0.8-0.4,1l0.3,0.4
		l0.7,0.1c0-0.5,0.2-0.8,0.4-1c-0.2-0.2-0.4-0.3-0.5-0.2C322.3,611.6,322.2,611.5,322,611.3z M369.6,569.7l-0.1,1.4l1,0.4
		c0.7-0.6,0.9-1.2,0.5-1.7c-0.2-0.2-0.4-0.3-0.7-0.1C370,570,369.8,570,369.6,569.7z M498.1,460.6c-0.2-0.2-0.6-0.2-1.1,0.3
		c0.4,0.5,0.5,0.8,0.3,1.1l1.1-0.3C498.6,461.5,498.6,461.1,498.1,460.6z M462.7,491.7l0.7-0.6c-0.4-0.5-0.8-0.6-1-0.4l-0.4,0.3
		L462.7,491.7z M441,500.7c-1.2,1.1-1.4,2.1-0.6,3.1c0.4,0.5,1,1.2,1.7,2c0.7,0.9,1.6,1.1,2.5,0.7c1.5-1.3,1.5-2.8,0-4.5
		C444.1,500.4,442.9,500,441,500.7z M506.4,446.4c-0.4,0-0.7,0.4-0.8,1.3c-0.1,1.4,0.5,2.1,1.9,2.2c1.4,0.1,1.7-0.6,0.8-2
		C508,447,507.4,446.5,506.4,446.4z M532.4,422.2c-0.9-0.1-2.1,0.5-3.6,1.8c-2.1,1-2.4,1.9-0.9,2.7c0.8,1,2.1,0.7,3.8-0.7
		C532.5,425.3,532.7,424.1,532.4,422.2z M331.7,592c1.1,0.8,2.1,0.7,3.1-0.1c0-0.5-0.1-0.8-0.3-1.1c-1.1-1.2-2.1-1.4-3.1-0.6
		C331,590.7,331.1,591.3,331.7,592z M397.7,535.4c-1.5-0.8-2.8-0.8-3.8,0.1c-0.7,0.6-0.8,1.3-0.2,2.1c1.8,1,3,1.3,3.7,0.6
		C398,537.7,398,536.8,397.7,535.4z M355.9,568.7c1.1,1.2,2,1.5,2.7,0.9c1-0.8,1.4-1.8,1.3-3c-0.1-1.2,0.2-2.3,0.9-3.4
		c-0.6-0.7-1.6-0.9-3.1-0.6C356,564.1,355.4,566.1,355.9,568.7z M505.5,440.2c-0.2,0.2-0.2,0.6,0.3,1.1c0.2-0.2,0.4-0.3,0.5-0.1
		c0.1,0.1,0.3,0.1,0.5-0.1c0.2-0.2,0.2-0.6-0.3-1.1C506.2,439.9,505.8,440,505.5,440.2z M515.6,430.3c-0.7,0.6-0.9,1.2-0.5,1.7
		c0.6,0.7,1.2,0.9,1.7,0.5c0.2-0.2,0.4-1,0.5-2.4C516.9,429.6,516.3,429.6,515.6,430.3z M365.9,559.5l-0.7-0.1l0.3,0.4L365.9,559.5z
		 M519.4,425c-0.2,0.2-0.3,0.4-0.1,0.7l0.7,0.1l0.1-0.7C519.9,424.8,519.7,424.8,519.4,425z M371.5,549.6c-0.9-0.1-1.2,0.1-0.7,0.6
		l0.6,0.7l0.7-0.6C372.2,549.4,371.9,549.1,371.5,549.6z M548.4,393.8c-0.5,0.4-0.7,1.2-0.5,2.4c0.8,1,1.7,1.3,2.7,0.9
		c1-0.8,1.1-1.8,0.2-2.7C549.9,393.3,549.1,393.2,548.4,393.8z M381.1,540.6c0.2,0.2,0.2,0.5-0.1,0.7l0.7,0.1l0.1-0.7
		C381.5,540.9,381.3,540.9,381.1,540.6z M422.1,504.8l-0.7-0.1c0.4,0.5,0.5,0.8,0.3,1.1l0.7,0.1C423.1,505.2,423,504.9,422.1,504.8z
		 M451.6,479.5l-0.1,0.7C452,480.2,452,480,451.6,479.5z M339.3,573.3c-0.7,0.6-0.8,1.3-0.2,2.1c0.4,0.5,1,0.4,1.7-0.2
		s0.9-1.2,0.5-1.7C340.7,572.7,340.1,572.7,339.3,573.3z M462.1,467.9c-1,0.8-1.3,1.5-0.8,2c0.6,0.7,1.2,0.9,1.7,0.5
		c0.7-0.6,0.9-1.2,0.5-1.7C463.3,467.5,462.8,467.3,462.1,467.9z M315.4,593.9c0.8,1,1.8,1,2.7,0.2c0.7-0.6,0.7-1.4-0.2-2.4
		c-0.8-1-1.8-1.1-2.7-0.2C314.5,592.1,314.5,592.9,315.4,593.9z M556.3,385.1c-0.7,0.6-0.8,1.3-0.2,2.1s1.3,0.8,2.1,0.2
		c1-0.8,1.2-1.6,0.5-2.4C558,384.2,557.2,384.3,556.3,385.1z M493,442l0.3,0.4l-0.4,0.3l-0.3-0.4L493,442z M399.9,519.3
		c-1,0.8-1,1.3-0.1,1.4c0.4,0.5,0.9,0.5,1.4,0.1c1-0.8,0.9-1.4-0.2-1.7C400.8,518.8,400.4,518.9,399.9,519.3z M526.2,409
		c-0.6-0.7-1.2-0.9-1.7-0.5c-0.8,1.5-0.9,2.7-0.3,3.4c0.8,1,1.6,1.2,2.4,0.5C527.4,411.4,527.2,410.2,526.2,409z M422.4,500l0.3,0.4
		l0.1-0.7L422.4,500z M301.7,601.8c0,0.5,0.1,0.8,0.3,1.1l1.1-0.3l-0.3-1.1C302.5,601.3,302.2,601.4,301.7,601.8z M371,542.3
		l-0.1,0.7c0.2,0.2,0.6,0.4,1,0.4l0.1-0.7c-0.2-0.2-0.4-0.3-0.5-0.2C371.4,542.6,371.2,542.5,371,542.3z M304.5,587.2
		c-0.8,1.5-0.9,2.7-0.3,3.4c1.3,1.5,2.3,1.4,3.1-0.1c0.7-0.6,0.8-1.8,0.3-3.4C306.8,586.1,305.7,586.1,304.5,587.2z M301.2,581.1
		c-0.2,0.2-0.4,0.5-0.4,1l1,0.4c1.2-0.1,1.3-0.7,0.5-1.7C301.8,580.8,301.4,580.9,301.2,581.1z M292,589c0.6,0.7,1.3,0.8,2.1,0.2
		c0.5-0.4,0.5-0.9,0.1-1.4c0-0.5-0.4-0.7-1.3-0.8C292.3,587,292.1,587.6,292,589z M530.7,385.2c1-0.8,1.2-1.6,0.5-2.4
		c-1.1-0.8-2.1-0.7-3.1,0.1c-0.6,1.3-0.4,2.3,0.5,2.8C529.1,386.3,529.8,386.1,530.7,385.2z M410.6,474.3c-1,0.8-1.2,1.6-0.5,2.4
		c0.8,1,1.6,1.2,2.4,0.5c0.7-0.2,0.9-1,0.5-2.4C412.6,474.3,411.8,474.2,410.6,474.3z M517,380.4l-0.3-0.4l-0.4,0.3L517,380.4z
		 M296.1,566.2c0,0.5,0.2,0.9,0.6,1.4c0.2-0.2,0.6-0.3,1.1-0.3c-0.2-0.2-0.3-0.5-0.3-0.7c0-0.2-0.1-0.5-0.3-0.7l-0.4,0.3
		C296.5,566.5,296.3,566.5,296.1,566.2z M392.6,484.7c0-0.5,0.2-0.8,0.4-1c-0.4-0.5-0.8-0.6-1-0.4c-0.9-0.1-1.2,0.4-0.8,1.3
		L392.6,484.7z M517,371.4c-0.7,0.2-1,0.8-0.8,2c0.6,0.7,1.2,1.1,1.6,1.2c1.2-0.1,1.6-0.9,1.2-2.3
		C518.8,371.6,518.1,371.3,517,371.4z M397,471.9l0.3,1.1c0.6,0.7,1,0.7,1.1-0.3c0.2-0.2,0.2-0.6-0.3-1.1
		C397.6,471.6,397.2,471.7,397,471.9z M506.7,370.6c-0.7,0.6-0.8,1.3-0.2,2.1l2.1,0.2c0.7-0.2,1-0.4,0.9-0.8
		c-0.1-0.4-0.4-0.5-0.8-0.6C508.3,371,507.6,370.7,506.7,370.6z M285.4,552.3c0.9,0.1,1.7-0.1,2.5-0.5c0.7-0.4,1.4-0.7,2.1-0.9
		c1-0.8,1-1.9-0.1-3.1c-1.3-1.5-2.2-1.1-2.8,1.2c-0.3,0.7-0.8,1.1-1.5,1.3C284.9,550.5,284.8,551.1,285.4,552.3z M270.2,557.7
		c-0.7,0.6-0.9,1.2-0.5,1.7c-0.1,1.4,0.5,1.5,1.7,0.5c1-0.8,1.2-1.6,0.5-2.4C271.5,557,270.9,557.1,270.2,557.7z M394,452
		c-0.5,0.4-0.6,0.8-0.4,1c0.4,0.5,0.8,0.6,1,0.4c0.5,0,0.8-0.1,1.1-0.3c0.2-0.2,0-0.5-0.6-0.7c-0.2-0.2-0.4-0.3-0.5-0.2
		C394.4,452.3,394.2,452.3,394,452z M494.3,357c-0.6-0.7-1.2-0.9-1.7-0.5c-0.5,0.4-0.5,0.9-0.1,1.4c0,0.5,0.4,0.7,1.3,0.8
		C494.6,358,494.7,357.5,494.3,357z M384.4,442.3l1,0.4l0.1-0.7c-0.4-0.5-0.9-0.8-1.3-0.8C384.4,441.5,384.5,441.9,384.4,442.3z
		 M504.9,339.5l0.7,0.1l-0.3-0.4L504.9,339.5z M253.3,530.6c0.7,0.3,1.4,0.1,2.1-0.5c0-0.5-0.2-0.9-0.6-1.4
		c-0.9-0.1-1.5,0.2-1.8,0.9C252.8,529.7,252.9,530.1,253.3,530.6z M487.5,319.9c0.2-0.2,0.4-0.3,0.5-0.1c0.1,0.1,0.3,0.1,0.5-0.1
		l0.1-0.7c-0.4-0.5-0.8-0.6-1-0.4C487.1,319,487,319.4,487.5,319.9z"/>
	<path class="st2" d="M986.2,467.5l-0.6,4.1c-1.4,1.9-2.2,3.9-2.1,6.1c0,2.2-0.2,4.3-0.8,6.3c-0.2,1.6-0.6,3.1-1,4.5
		c-0.4,1.4-0.2,2.9,0.7,4.5l-1.3,8.8c-1.3,1-1.5,2-0.5,3.1l-0.8,5.1c-1.8,1.3-2.1,3-0.8,5.1l-1.2,8.2c-2.7,2.4-3.1,5.4-1.4,9.2
		l-0.5,3.1c-1.6,1.4-2.3,2.8-2.1,4.4c0.2,1.5,0.5,3,0.7,4.5l-0.6,4.1c-1.1,1-1.8,1.9-2.2,2.8c-0.4,0.9,0,2,1.2,3.3l-0.3,2
		c-1,0.8-1.5,1.4-1.3,1.9c-0.1,2.1-0.3,4.1-0.7,6c-0.4,1.9-0.7,3.8-1,5.6c-0.1,0.7,0.2,1.3,0.8,1.9l-0.2,1c-0.6,1.1-1.1,2-1.3,2.9
		c-0.2,0.9-0.1,1.9,0.4,3.2l-1.2,7.8c-2.5,4.3-3.1,8.3-1.9,12.2l-2.2,14.3c-1.2,0.5-1.7,1.5-1.5,2.9c0,1.8-0.3,3.7-0.9,5.6
		c-0.5,1.9-0.9,3.7-1.2,5.6c-0.5,1.8-1,3.7-1.4,5.7c-0.4,2-1.1,3.9-2.1,5.6c-2.2,4.1-5.2,8.1-8.8,12.2c-1.4,1.4-2.6,2.8-3.6,4.3
		c-1,1.5-2.3,2.8-3.9,3.9c-1.3,0.7-2.5,1.2-3.7,1.3c-1.2,0.2-2.3,0.6-3.3,1.4c-5.3,4.3-11.5,6.2-18.6,5.8c-0.9,0.1-1.9,0.1-2.8,0.1
		c-0.9,0-1.7,0.4-2.3,1.2l-5.1-0.8c0.1-0.5,0.1-1,0.1-1.6c0-0.6-0.3-0.8-0.8-0.6c-1.2,0.3-2.3,0.3-3.3,0.2c-1-0.2-2,0.1-3.1,0.9
		l-2-0.3c-0.5-1-1.6-1.6-3.2-1.9c-4.2-1.6-7.9-3.5-11.3-5.9c-3.3-2.4-6.8-4.7-10.4-7.1c-0.9-0.4-1.6-1.2-2.1-2.4
		c-0.5-1.2-1.1-2.3-1.8-3.2c-0.7-0.9-1.4-1.9-2.2-2.9c-2.9-3.7-4.8-7.7-5.6-12c-0.8-4.3-1.6-8.7-2.3-13.2c-0.6-3.3-0.5-6.6,0.5-9.8
		c1-3.2,1.7-6.5,2.2-9.9c0.7-2.9,1.3-5.8,1.8-8.6c0.5-2.8,0.8-5.6,0.8-8.4c0-4.6,0.7-9.2,1.9-13.8c1.3-4.6,1.7-9.2,1.2-13.9
		c1.6-3,2.5-6.2,2.5-9.5c0.1-3.4,0.4-6.6,1.1-9.7c0.3-1.8,0.7-3.7,1.2-5.7c0.5-2,0.6-4.1,0.3-6.2c0-1.4,0.4-2.8,1.4-4.3
		c1-2.2,1.4-4.3,1-6.5c-0.1-4,0.3-7.7,1-11.3c0.8-3.6,1.2-7.3,1.4-11.3c0.1-2.1,0.6-4,1.6-5.8c1-1.8,1.4-3.7,1.2-5.6
		c0-1.6,0.1-3.2,0.2-4.7c0.1-1.5,0.5-3.1,1.3-4.8c0.7-1.3,0.9-2.5,0.6-3.7c-0.8-3.6-0.6-7,0.7-10.3c1.3-3.3,2-6.6,2.1-10.1
		c0.1-1.8,0.3-3.7,0.9-5.6c0.5-1.9,0.9-3.9,1.2-5.9c0.5-1.6,0.9-3.2,1.4-4.8c0.5-1.7,1.4-3,2.7-3.9c1.6-1.2,3.1-2.3,4.5-3.5
		c1.5-1.2,3.1-2,5.1-2.4l1,0.2c0.3,1,0.9,1.5,1.7,1.5c0.8,0,1.6,0.1,2.2,0.2c4,0.9,7.2,2.9,9.5,6.3c2.3,3.4,3.1,7.1,2.5,11.2
		c-1.2,6.5-2.3,13-3.3,19.3c-1,6.3-1.7,12.8-2.3,19.5c-0.3,1.8-0.6,3.7-0.9,5.8c-0.3,2-0.8,3.9-1.6,5.7c-0.7,1.7-1.1,2.9-1.2,3.5
		c-0.1,0.6,0.2,1.7,0.9,3.4c0.2,0.5,0.3,0.9,0.5,1.3c0.2,0.4,0.2,0.8,0.2,1.2c0,3.2,1,5.7,3,7.4c2.1,1.7,4.4,3,7.1,3.9
		c3.7,1.7,7.4,2.5,11.1,2.4c3.7-0.1,7.4,0,11.1,0.3c0.5-0.2,0.8-0.3,1-0.5c0.2-0.2,0.4-0.4,0.6-0.6c1.7-2.3,3.5-4.7,5.3-7.2
		c1.8-2.5,2.6-5.4,2.4-8.7c0.1-0.7,0.3-1.1,0.5-1.3c1.1-1.2,1.7-2.6,1.8-4.1c0.1-1.5,0.1-3.1-0.1-4.7c-0.3-2.4,0.4-4,2.1-4.9
		c0.5-0.4,1-0.8,1.4-1.2c0.4-0.4,0.4-1,0.1-1.7c-1.9-2.8-2.4-5.6-1.7-8.4c0.8-2.8,1.8-5.6,3.2-8.4c0.4-0.9,0.5-1.8,0.4-2.7
		c-0.7-2.7-0.9-5.3-0.3-8c0.5-2.7,1.1-5.4,1.8-8.1c0.3-2.3,1.8-4.4,4.3-6.5c2.5-2,4.9-3.1,7.3-3.2c2.8,0,5.4,0.2,7.7,0.7
		c2.4,0.5,4.7,1.8,6.9,4c1,1.1,1.8,2.1,2.3,3.1c0.5,1,0.9,2.2,1.2,3.7c0.4,3.5,0.3,7-0.4,10.4c-0.6,3.4-1.4,6.7-2.4,10.1
		c-0.5-0.1-0.8,0-1.1,0.2c0.3-0.2,0.6-0.3,1.1-0.2c0.4,0.7,0.3,1.6,0,2.6C984.8,466,985.1,466.8,986.2,467.5z M973.1,535l-0.7,0.2
		c-0.3,0.2-0.2,0.5,0.2,1.1c0.5,0.1,0.7-0.1,0.8-0.6C973.1,535.5,973,535.2,973.1,535z M982.2,470.4l0.3,0.1L982.2,470.4
		c0-0.2,0.1-0.4,0.3-0.7c0.2-0.2,0.2-0.4,0.3-0.7c0.1-0.9-0.1-1.4-0.8-1.5c-0.6-0.8-0.9-0.7-1.1,0.2c-0.8,0.6-0.6,1.2,0.4,1.8
		c0.2,0.3,0.3,0.4,0.5,0.4C981.9,470,982.1,470.1,982.2,470.4z M971.9,508.4c0.4,0.7,0.8,1,1.3,0.9c0.7,0.1,1.1-0.2,1.2-0.9
		c0.1-0.7-0.3-1.1-1.2-1.2C972.5,507.1,972.1,507.5,971.9,508.4z M965.7,551.3c-0.1,0.5,0.2,0.7,0.9,0.8l0.3,0.1l0.4-0.3
		c0-0.2-0.1-0.6-0.5-1.1C966.4,550.7,966,550.8,965.7,551.3z M953.6,628.3c1.2-0.3,1.7-0.7,1.6-1.2l-0.3-0.4
		C954.2,626.9,953.8,627.4,953.6,628.3l-1.4-0.2l0.3,0.4c0.2,0,0.4,0,0.5-0.1C953.2,628.3,953.4,628.3,953.6,628.3z M979.5,449.4
		c0.5,0.1,0.7-0.2,0.8-0.9c-0.1-0.7-0.5-1.1-1.2-1.2c-1.1-0.2-1.4,0.1-0.8,0.9C978.2,449.3,978.6,449.7,979.5,449.4z M957,576.7
		c-0.1,0.5,0.1,0.8,0.4,0.9c0.3,0.2,0.7,0.4,1.1,0.7c0.8,0.6,1.3,0.7,1.4,0.2c-0.1-0.7-0.8-1.4-2.1-2.1
		C957.5,576.6,957.2,576.7,957,576.7z M953,611.9l-0.7,0.2c-0.1,0.5,0,0.7,0.2,0.7l0.7,0.1C953.3,612.5,953.2,612.1,953,611.9z
		 M963.1,536.6c-0.2,0-0.4,0.2-0.4,0.6c-0.3,0.2-0.3,0.4-0.1,0.5c0.2,0.1,0.4,0.1,0.7-0.1l0.4-0.6
		C963.8,536.8,963.6,536.7,963.1,536.6z M946,646.6c0.2,0.3,0.3,0.5,0.2,0.7l0.4-0.3c0.1-0.5-0.1-0.7-0.6-0.8L946,646.6z
		 M972.7,462.3c-0.1,0.7,0.1,1.1,0.5,1.1c0.5,0.1,0.7-0.1,0.8-0.6c0.3-0.2,0.2-0.6-0.2-1.1C973.1,461.7,972.8,461.8,972.7,462.3z
		 M970.9,474.2c0,0.2,0,0.4,0.1,0.5c0.1,0.1,0.1,0.3,0.1,0.5l0.7-0.2c0.1-0.5,0-0.7-0.2-0.7L970.9,474.2z M951.1,599.1
		c0.7,0.1,1.2-0.1,1.5-0.5c0.1-0.9-0.1-1.3-0.9-1.2c-0.7-0.1-1.1,0.1-1.1,0.5L951.1,599.1z M956.3,553.6c0.3,1.2,0.8,1.6,1.5,1.3
		c0.5-0.4,0.8-0.7,0.8-0.9c0.6-0.6,0.3-1-0.9-1.2C956.9,552.7,956.4,553,956.3,553.6z M968.7,483.9c0-0.2,0-0.4-0.1-0.5
		c-0.1-0.1-0.1-0.3-0.1-0.5c-0.5-0.1-0.8,0-1.1,0.2c-0.1,0.7,0.1,1.1,0.5,1.1c0.2,0,0.3,0,0.4-0.1
		C968.4,483.9,968.5,483.9,968.7,483.9z M963.5,509.2c0-0.2,0.3-0.3,0.7-0.2c0.6-0.6,0.4-1-0.5-1.1l-0.8,0.6L963.5,509.2z
		 M941.1,653.5c0.1-0.9-0.2-1.2-0.9-0.8c-0.7-0.1-1.1,0.1-1.1,0.5c-0.1,0.9,0.3,1.3,1.2,1.2C940.7,654.5,941,654.2,941.1,653.5z
		 M965,478.5l0.2,0.7c0.5,0.1,0.7,0,0.7-0.2l0.1-0.7c-0.2,0-0.4,0-0.5,0.1C965.4,478.5,965.2,478.5,965,478.5z M949.8,576.3
		l-0.1,0.3c0.4,0.3,0.8,0.3,1,0.2c0.1-0.5-0.1-0.7-0.6-0.8C950.1,576.2,950,576.3,949.8,576.3z M941.6,620.9c0.2,0,0.3,0.2,0.3,0.4
		c0,0.2,0.1,0.4,0.3,0.4c0.4,0.5,0.6,0.3,0.8-0.6c0.1-0.5,0-0.8-0.2-1.1C942.5,620,942.1,620.3,941.6,620.9z M953.2,544.5l0.2,0.7
		c0.5,0.1,0.8,0,1.1-0.2c0.1-0.5-0.1-0.7-0.6-0.8c-0.2,0-0.3,0-0.4,0.1C953.6,544.5,953.4,544.5,953.2,544.5z M957.7,514.9
		c-0.1,0.5,0,0.7,0.2,0.7c0.6,0.8,0.9,0.8,1,0.2l0.1-0.7c0-0.2-0.1-0.4-0.3-0.4c-0.2,0-0.4,0-0.5,0.1
		C958.1,514.9,957.9,515,957.7,514.9z M944.5,571.7c-0.5-0.1-0.9-0.3-1.5-0.6c-0.5-0.3-0.9,0-1,0.9c0,1.4,0.6,1.9,1.7,1.6
		c1.1-0.3,1.9-0.1,2.5,0.7c0.2,0.5,0.4,0.6,0.8,0.5c0.4-0.2,0.6-0.5,0.7-0.9c0-1.2-0.4-1.9-0.9-2
		C946.2,571.6,945.5,571.6,944.5,571.7z M944.9,585.6l-0.6-0.8l-0.4,0.3c-0.1,0.5,0,0.7,0.2,0.7
		C944.6,585.9,944.8,585.8,944.9,585.6z M948.5,557l0.4-0.3c0.1-0.5,0-0.7-0.2-0.7c-0.4-0.3-0.7-0.1-0.8,0.6
		C947.9,556.8,948.1,556.9,948.5,557z M946.9,544.6c-0.2,1.4,0.4,2.1,1.7,2.3c0.9,0.1,1.4-0.4,1.6-1.5c-0.2-1.7-0.8-2.6-1.7-2.7
		C947.7,542.6,947.1,543.2,946.9,544.6z M951.9,527.9c-0.9,0.1-1.5,0.5-1.6,1.2s-0.4,1.2-0.9,1.6c-0.3,0.2-0.3,0.4-0.1,0.5
		c0.2,0.1,0.3,0.1,0.4-0.1c0.5-0.4,1-0.7,1.5-1c0.5-0.3,0.9-0.8,1.3-1.7L951.9,527.9z M954.4,509.2l0.3,0.1l-0.3-0.4L954.4,509.2z
		 M960.9,455.6l0.3,0.4l0.3,0.1c0.1-0.5,0-0.7-0.2-0.7L960.9,455.6z M945.3,548.5l0.4-0.3l-0.3-0.4L945.3,548.5z M941.5,543.7
		c-0.9-0.1-1.4,0.4-1.6,1.5c-0.1,0.9,0.4,1.4,1.5,1.6c0.9-0.1,1.5-0.8,1.7-2.2C942.8,543.9,942.2,543.6,941.5,543.7z M889.6,606
		c-2.5,8.7-1,16.6,4.3,24c2.8,4.1,6.7,6.4,11.5,6.8c4.8,0.4,9-0.2,12.4-1.8c3.8-2,6.9-4.4,9.3-7.3c2.4-2.9,3.8-6.5,4.3-10.8
		c0.4-2.5,0.9-5,1.5-7.6c0.6-2.6,0.8-5.2,0.5-7.7c-0.3-2.6,0.1-5,1.3-7.3c1.2-2.3,1.6-4.8,1.3-7.6c-0.5-5.9,0.4-11.6,2.6-17.3
		c0.6-1.1,0.8-2.2,0.5-3.4c-0.5-1.2-0.6-2.5-0.3-3.7c0.3-1.2,0.6-2.5,0.8-3.9c0.5-1.8,0.7-3.5,0.5-5.3c-0.2-1.8-0.9-3.3-2.1-4.7
		c-2-2.2-4.1-4.2-6.2-6c-2.2-1.8-4.9-2.4-8.2-1.8c-0.7,0.1-1.7-0.1-3-0.8c-4.2-1.3-8-1.3-11.3,0c-3.3,1.3-6.5,3.4-9.5,6.2
		c-0.5,0.4-0.9,1-1.1,1.7c-0.2,0.8-0.4,1.5-0.5,2.2c0,1.8-0.2,3.8-0.4,5.9c-0.2,2.1-0.5,4-1.1,5.7c-1.1,4.2-2,8.4-2.8,12.4
		c-0.7,4.1-1.3,8.3-1.7,12.6c-0.3,3.2-0.6,6.4-1.1,9.7C890.6,599.6,890.1,602.9,889.6,606z M922.9,654.2c0,0.2,0.1,0.4,0.3,0.4
		c0.2,0,0.4-0.1,0.4-0.3c0-0.2-0.1-0.4-0.3-0.4C923.3,654.2,923.1,654.3,922.9,654.2z M920.5,649.3c-0.7-0.1-1.1,0.3-1.2,1.2
		c-0.1,0.7,0.3,1.1,1.2,1.2c0.7,0.1,1.1-0.3,1.2-1.2C921.8,649.9,921.4,649.5,920.5,649.3z M940.4,517.1l0.1-0.3l-0.4,0.3
		L940.4,517.1z M914.5,661.6c0.9-0.1,1.5-0.6,1.6-1.5c-0.3-1-0.7-1.5-1.2-1.6c-1.1-0.2-1.6,0.3-1.3,1.5
		C913.5,661,913.8,661.5,914.5,661.6z M934.6,531.9c0.7-0.4,1.2-0.8,1.2-1.2c0.1-0.9-0.4-1.4-1.5-1.6c-0.7-0.1-1.1,0.2-1.2,0.9
		C933,531.1,933.5,531.7,934.6,531.9z M917.1,642.5l-0.1,0.3l0.3,0.1L917.1,642.5z M914.4,646.3c0.7,0.1,1.1-0.1,1.1-0.5
		c0.1-0.7-0.2-1.1-0.9-1.2c-0.5-0.1-0.7,0.2-0.8,0.9C913.7,646,913.9,646.2,914.4,646.3z M910.5,655.8l0.9,1.2
		c0.5,0.1,0.7-0.2,0.8-0.9c-0.2-0.3-0.3-0.5-0.2-0.7c0-0.2-0.2-0.4-0.6-0.4c-0.3,0.2-0.4,0.3-0.4,0.5
		C910.9,655.5,910.8,655.6,910.5,655.8z M928.9,514.7c-0.1,0.5,0.3,1,1.2,1.6c0.5,0.1,0.7-0.1,0.8-0.6c0.3-0.4,0.1-0.9-0.5-1.5
		C929.7,514.1,929.2,514.3,928.9,514.7z M907.9,659.6l0.1-0.7c-0.2,0-0.4,0.1-0.4,0.3L907.9,659.6z M925.3,534
		c-0.1,0.9,0,1.4,0.5,1.5c0.7,0.1,1.1-0.2,1.2-0.9s-0.1-1.1-0.5-1.1c-0.2,0-0.4,0.1-0.6,0.3C925.7,533.9,925.5,534,925.3,534z
		 M904,650.6l0.1-0.3l-0.4,0.3L904,650.6z M900.4,656.3l-0.1,0.3l0.7,0.1l0.1-0.3L900.4,656.3z M900.4,640c0.4,0.7,0.9,1.2,1.5,1.3
		c0.5-0.4,0.7-0.8,0.5-1.3c0.1-0.9-0.3-1.2-1.3-0.9C900.8,639,900.5,639.3,900.4,640z M903.8,540.1c0.5-0.2,0.8-0.7,0.9-1.6
		c0.2-1.1-0.2-1.5-1.2-1.2c-0.5,0.2-0.7,0.4-0.6,0.8c0.1,0.4,0.1,0.8,0,1.2C903.3,539.8,903.6,540,903.8,540.1z M905.2,526.7
		c-1,0.3-1.6,0.6-1.9,0.8c-0.5,0.4-0.6,0.6-0.3,0.7c0.3,0.1,0.6,0.1,0.8,0.1c0.9,0.1,1.5-0.1,1.9-0.8L905.2,526.7z M903.6,530
		l-0.1,0.3l0.3,0.4c0.5-0.4,0.6-0.6,0.1-0.7L903.6,530z M901.8,523.8c0.9,0.1,1.5-0.2,1.9-1.1l0.1-0.7c-1.4-0.2-2.2,0.1-2.6,1
		L901.8,523.8z M901.8,505.4c-0.9-0.1-1.4,0.1-1.5,0.8c-0.3,0.6-0.1,1.3,0.8,1.9c0.9,0.1,1.4-0.2,1.6-1.2
		C903,506.2,902.7,505.7,901.8,505.4z M880.9,644.7l-0.1,0.3l0.4-0.3L880.9,644.7z M902.2,500.6c0.7,0.1,1.1-0.1,1.1-0.5
		c0.1-0.7-0.2-1.1-0.9-1.2s-1.1,0.2-1.2,0.9C901.2,500.2,901.5,500.4,902.2,500.6z M889.3,574c0.3,1,0.6,1.5,0.8,1.5
		c0.7,0.1,1.1-0.2,1.2-0.9c0.2-1.1-0.1-1.5-0.9-1.2C889.7,573.4,889.3,573.5,889.3,574z M876.6,643.3c0.2,0.3,0.4,0.4,0.6,0.4
		c0.5,0.1,0.7-0.2,0.8-0.9c-0.2-0.3-0.4-0.4-0.6-0.4C876.8,642.3,876.5,642.6,876.6,643.3z M887.3,564c-0.5,0.2-0.9,0.2-1.2,0.2
		s-0.5,0.1-0.6,0.6c-0.1,0.7,0.3,0.9,1.3,0.5c1.1,0.2,1.8-0.1,1.9-0.8C888.7,564.3,888.2,564.1,887.3,564z M894.4,515
		c0.4,0.5,0.7,0.8,0.9,0.8l0.8-0.6c0.1-0.7-0.1-1.1-0.5-1.1C895.4,514.1,895,514.4,894.4,515z M890.4,527.9c0.3,1,0.8,1.5,1.5,1.6
		s1.1-0.3,1.2-1.2c0.1-0.9-0.1-1.4-0.8-1.5C891.4,526.7,890.8,527.1,890.4,527.9z M882.4,589.6l-0.1,0.3l0.7,0.1
		c0.2,0,0.3,0,0.4-0.1c0-0.1-0.2-0.2-0.7-0.3L882.4,589.6z M902.9,457.2c-0.1,0.5,0,0.6,0.3,0.4l0.1-0.3L902.9,457.2z M878.1,608.5
		l0.1-0.7c-0.2,0-0.4,0.1-0.4,0.3l-0.1,0.3L878.1,608.5z M886,549.9l-0.3-0.1l-0.4,0.3l0.7,0.1L886,549.9z M894.5,489.3l0.3,0.1
		l-0.3-0.4L894.5,489.3z M898.4,455.1c-0.6-0.6-1-0.4-1.1,0.5c-0.1,0.5,0,0.7,0.2,0.7c0.6,0.8,0.9,0.7,1.1-0.2
		C899.1,455.6,899,455.2,898.4,455.1z M878.1,572c0.4,0.5,0.8,0.8,1.3,0.9l0.4-0.6c0.1-0.7-0.1-1.1-0.5-1.1
		C878.6,571,878.2,571.3,878.1,572z M898.5,442.6c-0.5,0.4-0.4,0.6,0.2,0.7l0.3,0.1l0.1-0.7L898.5,442.6z M868.9,634.8
		c-0.6-0.6-1-0.4-1.1,0.5l0.2,0.7c0.6,0.3,1,0.3,1.1-0.2C869.6,635.3,869.5,635,868.9,634.8z M882.5,543.1c-0.3,0.2-0.4,0.5-0.5,1
		c0.2,0.3,0.4,0.4,0.6,0.4c0.3-0.2,0.4-0.5,0.5-1C882.7,543.5,882.5,543.3,882.5,543.1z M884.7,519.4c0,0.2,0.2,0.4,0.6,0.4
		c0-0.2,0.2-0.3,0.4-0.3l-0.3-0.4C885.1,518.7,884.8,518.8,884.7,519.4z M880,527.4c-0.1,0.9,0.2,1.4,1.2,1.6
		c0.9-0.1,1.5-0.5,1.6-1.2c-0.1-0.9-0.6-1.5-1.5-1.6C880.6,526.1,880.2,526.5,880,527.4z M867,626.9c-0.7-0.1-1.1,0.1-1.1,0.5
		c0,0.2,0,0.4,0.1,0.5c0.1,0.1,0.1,0.3,0.1,0.5c0.7,0.1,1.1-0.2,1.2-0.9C867,627.4,866.9,627.1,867,626.9z M877.8,514.6
		c0.7,0.1,1.1-0.1,1.1-0.5c0.6-0.8,0.4-1.3-0.5-1.5c-0.6-0.8-0.9-0.7-1.1,0.2C877.1,513.4,877.2,514,877.8,514.6z M869.8,569.6
		c-0.2-0.3-0.4-0.4-0.6-0.4l-0.1,0.3c0,0.2,0,0.5,0.2,0.7c0-0.2,0.1-0.3,0.2-0.3C869.7,570,869.7,569.9,869.8,569.6z M867.1,573.4
		c-0.3,0.2-0.6,0.3-0.9,0.2s-0.4,0.2-0.3,0.7c0,0.2,0.1,0.4,0.3,0.6c0.2,0.1,0.3,0.1,0.4-0.1c0.9,0.1,1.4-0.1,1.5-0.8
		C868.1,573.7,867.8,573.5,867.1,573.4z M885.7,444.8l-0.7,0.2c-0.8,0.6-0.8,0.9-0.2,1c0.2,0.3,0.6,0.2,1.1-0.2c0-0.2,0-0.4-0.1-0.5
		C885.7,445.3,885.6,445.1,885.7,444.8z M870.5,537.8l-0.1,0.7c0.5,0.1,0.7,0,0.7-0.2l-0.3-0.4L870.5,537.8z M863.5,583.3l0.4-0.3
		c-0.2-0.5-0.4-0.6-0.6-0.4C863.3,582.8,863.3,583,863.5,583.3z"/>
	<g>
		<g>
			<path class="st4" d="M181.7,526.5h-2.1c-2.8-0.9-5.6-1.9-8.4-2.8c-2.8-0.9-5.6-1.2-8.4-0.7c-10.3,0.9-19.9-0.3-28.7-3.9
				c-8.9-3.5-17.3-8.1-25.2-13.7c-5.6-4.2-11.5-8.2-17.5-11.9C85.2,489.8,81,484,78.6,476l-0.7-0.7c-4.7-4.2-7.7-9.2-9.1-15.1
				c-1.4-5.8-3-11.3-4.9-16.5c-1.4-3.7-2.7-7.7-3.9-11.9c-1.2-4.2-2.5-8.2-3.9-11.9v-4.2c2.3-5.1,3.2-10,2.5-14.7
				c-0.7-4.7-1.5-9.3-2.5-14v-10.5c2.8-1.9,2.8-4,0-6.3v-10.5c1.4-5.1,2.3-10,2.8-14.7c0.5-4.7-0.5-9.6-2.8-14.7v-16.8
				c1.4-0.5,2.1-1.2,2.1-2.1c0-0.9,0-1.9,0-2.8v-33c0-2.8-0.7-4.7-2.1-5.6v-21c2.3-4.7,2.3-8.9,0-12.6v-12.6c1.9-2.8,1.9-4.7,0-5.6
				v-10.5c2.8-2.8,3.7-5.6,2.8-8.4c-0.9-2.8-1.9-5.6-2.8-8.4v-10.5c1.9-5.1,3-10,3.5-14.7c0.5-4.7-0.7-9.6-3.5-14.7v-22.4
				c2.3-0.5,3.6-1.5,3.9-3.2c0.2-1.6,0.6-3.2,1.1-4.6c2.3-8.9,4.7-17.5,7-25.9c2.3-8.4,6.5-16.4,12.6-23.8c2.3-3.3,4.7-6.5,7-9.8
				c2.3-3.3,4.9-6.3,7.7-9.1c6.5-6.1,13.2-11.1,20-15.1c6.8-4,14.4-6.9,22.8-8.8c7.9-1.4,15.4-3.5,22.4-6.3h16.8
				c0.5,0.5,0.7,0.9,0.7,1.4c0,0.5,0.5,0.7,1.4,0.7c10.3,0.9,20.1,3.4,29.5,7.4c9.3,4,18.2,8.8,26.6,14.4c7,5.1,12.7,11.2,17.2,18.2
				c4.4,7,9.2,13.8,14.4,20.3c0,0.5,0.2,0.9,0.7,1.4c2.3,8.9,4.3,17.9,6,27c1.6,9.1,2,18.4,1.1,27.7c-0.9,10.3-1.1,20.5-0.3,30.5
				c0.7,10.1,0.8,20.2,0.3,30.5c0,3.3,0.7,5.4,2.1,6.3V218c-1.4,2.8-2.1,6.3-2.1,10.5c0,6.6-0.1,13.2-0.3,20
				c-0.2,6.8-0.1,13.4,0.3,20c0,3.3-0.2,6.4-0.7,9.5c-0.5,3,0.5,6,2.8,8.8v6.3c-4.2,8.9-4.2,18.5,0,28.7v8.4
				c-0.9,3.7-1.9,7.6-2.8,11.6c-0.9,4-1.2,7.8-0.7,11.6c0.9,6.6,1.3,13.2,1.1,20c-0.2,6.8-0.4,13.4-0.4,20c0,3.7,0.1,7.5,0.4,11.2
				c0.2,3.7,1.1,7.5,2.5,11.2v4.2c-2.3,2.3-3,5.9-2.1,10.5c0.9,5.6,0.2,11-2.1,16.1c-2.3,5.1-4.8,9.9-7.4,14.4
				c-2.6,4.4-5.3,9-8.1,13.7c-5.6,10.8-12.9,19.4-21.7,25.9c-8.9,6.6-18.2,12.4-28,17.5c-2.3,0.9-4.6,1.9-6.7,2.8
				c-2.1,0.9-4.3,1.2-6.7,0.7C189.7,521.1,185.4,522.8,181.7,526.5z M62.5,223.6c-0.9,0-1.4,0.5-1.4,1.4c0,0.9,0.2,1.4,0.7,1.4
				c1.4,1.4,2.1,1.2,2.1-0.7C63.9,224.3,63.4,223.6,62.5,223.6z M68.8,176.6c-0.9,0-1.4,0.7-1.4,2.1c0.5,0.5,0.9,0.7,1.4,0.7
				c0.9,0,1.4-0.7,1.4-2.1C69.7,176.9,69.3,176.6,68.8,176.6z M70.2,302.1c-1.9,0-2.1,0.7-0.7,2.1c0,1.9,0.7,2.3,2.1,1.4
				c0.9,0,1.4-0.7,1.4-2.1C72.1,302.1,71.2,301.7,70.2,302.1z M75.8,260.8c-0.9-1.9-2.3-2.6-4.2-2.1c-1.9,0.9-2.6,2.3-2.1,4.2
				c0.9,0.9,2.1,1.4,3.5,1.4C74.9,263.3,75.8,262.2,75.8,260.8z M76.5,413.6h-0.7v0.7h0.7V413.6z M78.6,245.3
				c-0.9,0.9-1.4,1.6-1.4,2.1l1.4,0.7c1.4,0,1.9-0.7,1.4-2.1C79.6,246,79.1,245.8,78.6,245.3z M80,372.2c0-0.9-0.2-1.4-0.7-1.4
				c-0.9-0.9-1.4-0.7-1.4,0.7v0.7c0,0.5,0.2,0.7,0.7,0.7C79.1,372.9,79.6,372.7,80,372.2z M87,158.4c0-1.4-0.5-2.3-1.4-2.8
				c-1.9,0-2.8,0.7-2.8,2.1c-0.9,1.4-0.5,2.1,1.4,2.1C86.1,160.7,87,160.3,87,158.4z M84.9,185c0.5,0,0.9-0.2,1.4-0.7
				c0-0.9-0.5-1.4-1.4-1.4l-0.7,0.7C84.2,184.6,84.5,185,84.9,185z M87.8,348.4c0,0.5-0.1,0.8-0.4,1.1c-0.2,0.2-0.3,0.6-0.3,1.1
				c0,0.9,0.5,1.4,1.4,1.4c1.9,0,2.6-0.7,2.1-2.1C90.6,348.9,89.6,348.4,87.8,348.4z M87.8,386.3c0.9,0.9,1.6,1.4,2.1,1.4l1.4-1.4
				c0-1.4-0.5-2.1-1.4-2.1C88.5,384.2,87.8,384.9,87.8,386.3z M92,376.5l-1.4-1.4l-0.7,0.7l1.4,1.4C91.7,377.6,92,377.4,92,376.5z
				 M92.7,133.1c-0.5,0-0.7-0.1-0.7-0.3c0-0.2-0.2-0.4-0.7-0.4c-0.9,0.9-1.2,1.6-0.7,2.1c0.5,0,0.9,0.2,1.4,0.7
				c0-0.5,0.1-0.8,0.3-1.1C92.5,134,92.7,133.6,92.7,133.1z M96.2,274.8c-0.5,0.5-1.3,0.6-2.5,0.4c-1.2-0.2-1.5,0.1-1.1,1.1
				c0,2.3,1.4,3.5,4.2,3.5c1.9,0,2.8-0.9,2.8-2.8C100.6,274.5,99.4,273.8,96.2,274.8z M96.9,398.9c0-1.4-0.5-2.1-1.4-2.1
				c-1.4,0-2.1,0.5-2.1,1.4c0,1.4,0.7,2.1,2.1,2.1C96.4,400.3,96.9,399.8,96.9,398.9z M102.5,445.9c0-2.3-0.7-3.5-2.1-3.5
				c-1.4,0-2.1,1.2-2.1,3.5c0,2.3,0.7,3.5,2.1,3.5c0.9,0,1.4-0.4,1.4-1.1S102,446.8,102.5,445.9z M107.4,193.4
				c0-1.4-0.7-2.1-2.1-2.1c-2.3,0-3.5,0.9-3.5,2.8c-0.9,1.4-0.2,2.1,2.1,2.1C106.2,196.2,107.4,195.3,107.4,193.4z M103.9,72.1
				c-1.4,0-1.6,0.5-0.7,1.4c0,0.5,0.2,0.7,0.7,0.7l1.4-1.4C104.8,72.8,104.3,72.6,103.9,72.1z M108.8,129.6c3.3-1.9,3.3-4.4,0-7.7
				c-1.9-1.9-3.3-2.3-4.2-1.4c-2.3,1.4-2.1,3,0.7,4.9c1.4,0.5,2.6,2.1,3.5,4.9V129.6z M106.7,405.2v-0.7H106c-0.9,0-0.9,0.5,0,1.4
				L106.7,405.2z M107.4,424.8c0-0.9-0.2-1.4-0.7-1.4c-0.5,0-0.9,0.2-1.4,0.7v0.7c0,0.5,0.2,0.7,0.7,0.7
				C106.4,425.1,106.9,424.8,107.4,424.8z M113.7,496.4h0.7c0.5,0,0.7-0.2,0.7-0.7c0-0.9-0.2-1.6-0.7-2.1c-1.4,0-2.1,0.5-2.1,1.4
				L113.7,496.4z M115.1,98.1c0.5,0,0.7-0.5,0.7-1.4l-0.7-0.7l-1.4,1.4C114.2,97.8,114.6,98.1,115.1,98.1z M114.4,329.5h-0.7
				c0.5,0.5,0.7,0.9,0.7,1.4h0.7C115.1,329.9,114.9,329.5,114.4,329.5z M116.5,56.7c1.4-0.5,2.1-1.2,2.1-2.1c0-1.4-0.5-2.1-1.4-2.1
				c-1.9,0-2.8,0.9-2.8,2.8C115.3,56.2,116,56.7,116.5,56.7z M117.9,400.3c-1.4,4.2-1.4,8,0,11.2c2.8,6.1,5.5,12.2,8.1,18.2
				c2.6,6.1,5.8,11.9,9.5,17.5c2.4,3.7,5.5,6.7,9.5,8.8c4,2.1,8.1,3.6,12.4,4.6c11.8,3.3,22,2,30.7-3.9c8.7-5.8,15.7-13.2,20.8-22.1
				c1.9-2.8,3.5-6.1,4.9-9.8c1.4-3.7,1.6-6.8,0.7-9.1c-2.3-6.5-3-12.9-2.1-18.9c0.9-6.1,1.6-12.2,2.1-18.2c0.5-7,0.1-14.3-1.1-21.7
				c-1.2-7.5,0.1-14.7,3.9-21.7c1.4-1.4,1.2-2.1-0.7-2.1c-3.7-0.9-5.1-2.5-4.2-4.6c0.9-2.1,1.2-4.3,0.7-6.7c0-2.8,0.5-5.5,1.4-8.1
				c0.9-2.6,0.9-5,0-7.4c-0.9-4.2-1.1-8.4-0.4-12.6s0.4-8.2-1.1-11.9c-0.5-0.9-0.5-2.1,0-3.5c0.5-1.4,1.2-2.6,2.1-3.5
				c1.9-1.9,2.8-3.3,2.8-4.2c0-0.9-1.2-1.9-3.5-2.8c-0.9-0.5-1.4-2.1-1.4-4.9c0.9-5.6,1.8-11.2,2.5-16.8c0.7-5.6-0.1-11.4-2.5-17.5
				c-0.9-1.4-1.3-3-1.1-4.9c0.2-1.9,0.6-3.5,1.1-4.9c1.9-3.3,2.3-7.7,1.4-13.3c-0.5-7.9-0.7-15.5-0.7-22.8c0-7.2-0.2-14.8-0.7-22.8
				c-0.5-5.1-0.5-9.9,0-14.4c0.5-4.4,0.2-9.2-0.7-14.4c-0.9-5.6-2-11.2-3.2-16.8c-1.2-5.6-4.4-10.3-9.5-14c-1.9-1.4-3.8-3-5.7-4.9
				c-1.9-1.9-4-3.3-6.4-4.2c-5.2-2.3-10.5-4.1-15.9-5.3c-5.4-1.2-11.2-0.1-17.3,3.2c-11.8,6.1-20.9,13.8-27.2,23.1
				c-6.4,9.4-9.5,20.8-9.5,34.4c0,4.2-0.5,8.3-1.4,12.3c-0.9,4-0.9,7.8,0,11.6c1.4,6.1,2.1,12.2,2.1,18.2c0,6.1-0.2,12.4-0.7,18.9
				c0,2.8,0.4,5.6,1.1,8.4s0.6,5.6-0.4,8.4c-1.9,5.6-2.5,11.3-1.8,17.2c0.7,5.9,1.3,11.8,1.8,17.9c0.5,6.6,0.7,13.2,0.7,20
				c0,6.8-0.5,13.4-1.4,20c-0.9,6.1-1.2,12-0.7,17.9c0.5,5.9,0.7,11.8,0.7,17.9c0,10.8,0.2,21.6,0.7,32.6
				C119.1,378.7,118.8,389.5,117.9,400.3z M120,455.7c1.4,0.9,2.1,0.5,2.1-1.4c-0.5-1.4-1.4-2.3-2.8-2.8c-1.4,0-2.1,0.7-2.1,2.1
				S118.1,455.7,120,455.7z M134,46.9c-0.9-2.3-1.9-3.5-2.8-3.5c-1.4,0-2.1,0.7-2.1,2.1c0,2.3,0.9,3.5,2.8,3.5
				C133.3,49.9,134,49.2,134,46.9z M145.2,48.3c-0.5-0.5-1.2-0.7-2.1-0.7c-0.5,0.5-0.5,0.7,0,0.7c0,0.5,0.2,0.9,0.7,1.4L145.2,48.3z
				 M144.5,32.9h-0.7h-0.7l0.7,0.7L144.5,32.9z M145.2,480.9c-1.4,0-2.1,0.9-2.1,2.8c0,1.4,0.7,2.3,2.1,2.8c1.9,0,2.8-0.9,2.8-2.8
				C148.1,481.9,147.1,480.9,145.2,480.9z M164.2,56c0,0.5-0.1,0.7-0.4,0.7c-0.2,0-0.3,0.2-0.3,0.7c0,0.5,0.2,0.7,0.7,0.7
				c0.5-0.5,0.9-0.7,1.4-0.7L164.2,56z M169.1,483.7c1.9-0.9,2.8-1.6,2.8-2.1c0-1.9-0.9-2.8-2.8-2.8c-1.4,0-2.1,0.7-2.1,2.1
				C167,482.8,167.7,483.7,169.1,483.7z M181.7,469c-2.8,0-4.2,0.7-4.2,2.1c-0.9,1.4-0.5,2.1,1.4,2.1c2.3-0.9,3.5-1.6,3.5-2.1
				c0-0.5-0.1-0.7-0.3-0.7c-0.2,0-0.4-0.2-0.4-0.7V469z M192.2,58.1c-1.4,0-2.6,1.2-3.5,3.5c-0.9,3.3-0.2,5.1,2.1,5.6
				c2.3,1.4,3.5,0.7,3.5-2.1c0-0.9-0.2-2.1-0.7-3.5C193.2,60.2,192.7,59.1,192.2,58.1z M196.4,37.1c0,1.9,0.7,2.3,2.1,1.4
				c0.5-0.5,0.7-0.9,0.7-1.4c0-1.4-0.5-2.1-1.4-2.1C196.9,35,196.4,35.7,196.4,37.1z M207,469.7c0,0.9,0.7,1.4,2.1,1.4
				s2.1-0.9,2.1-2.8c-0.9-0.9-1.6-1.4-2.1-1.4C207.7,466.9,207,467.8,207,469.7z M216.1,452.2c0-0.9-0.7-1.4-2.1-1.4
				c-0.5,0.5-0.7,0.9-0.7,1.4c0,1.4,0.5,2.1,1.4,2.1C215.6,454.3,216.1,453.6,216.1,452.2z M218.2,110c-0.9,0.9-0.9,1.4,0,1.4v-0.7
				V110z M219.6,211.7h0.7l-0.7-0.7V211.7z M225.9,128.9c-0.9,0-1.4,0.5-1.4,1.4c0,0.5,0.1,0.8,0.3,1.1c0.2,0.2,0.4,0.6,0.4,1.1
				c1.4,0.9,2.1,0.5,2.1-1.4C227.7,130.6,227.3,129.9,225.9,128.9z M230.8,114.2c0.5-1.4,0-2.1-1.4-2.1s-2.1,0.7-2.1,2.1
				c0,1.9,0.7,2.3,2.1,1.4C230.3,115.6,230.8,115.1,230.8,114.2z M237.1,336.5c-0.5-1.9-1.6-2.8-3.5-2.8c-1.9-0.9-2.8-0.2-2.8,2.1
				c0,2.3,1.2,3.5,3.5,3.5C235.2,339.3,236.2,338.4,237.1,336.5z M235,369.4c-1.4,0.9-2.1,1.6-2.1,2.1c0,1.4,0.7,2.1,2.1,2.1
				c1.4,0,2.1-0.9,2.1-2.8C236.2,369.9,235.5,369.4,235,369.4z M235,300.7l-0.7,0.7h0.7V300.7z M236.4,201.2l0.7-0.7
				c-0.5,0-0.7-0.1-0.7-0.3c0-0.2-0.2-0.4-0.7-0.4H235L236.4,201.2z M236.4,412.2v0.7h0.7L236.4,412.2z M240.6,234.1l-0.7-1.4
				c-0.9,0-1.4,0.2-1.4,0.7c-0.5,0.5-0.7,0.9-0.7,1.4c0,0.5,0.5,0.5,1.4,0c0.5,0,0.7-0.1,0.7-0.4
				C239.9,234.2,240.1,234.1,240.6,234.1z M249.7,210.3c0-1.9-0.7-2.8-2.1-2.8c-2.8-0.9-4.2-0.2-4.2,2.1c-0.5,0.9,0,1.9,1.4,2.8
				C247.6,212.4,249.3,211.7,249.7,210.3z M247.6,438.2c-0.5,0-0.8-0.1-1.1-0.3c-0.2-0.2-0.6-0.4-1.1-0.4l-0.7,1.4
				c0.5,0.5,1.2,0.7,2.1,0.7C246.9,439.1,247.2,438.6,247.6,438.2z M246.9,222.9c-1.4,0.5-1.6,1.2-0.7,2.1c0,0.9,0.5,1.4,1.4,1.4
				c0.9,0,1.4-0.7,1.4-2.1C248.1,223.4,247.4,222.9,246.9,222.9z M251.1,190.6c1.4-0.5,2.1-1.2,2.1-2.1c0-1.9-0.9-2.3-2.8-1.4
				c-0.9,0-1.4,0.7-1.4,2.1C250,190.2,250.7,190.6,251.1,190.6z M260.2,119.1c-0.9-1.9-1.9-2.8-2.8-2.8c-1.4,0-2.1,0.7-2.1,2.1
				c0,1.9,0.9,2.8,2.8,2.8c0.9-0.5,1.4-0.8,1.4-1.1C259.5,119.9,259.8,119.6,260.2,119.1z M258.1,294.4c1.4-0.5,2.1-1.2,2.1-2.1
				c0-1.9-0.9-2.8-2.8-2.8c-0.9,0-1.4,0.7-1.4,2.1C256,293.5,256.7,294.4,258.1,294.4z M260.9,417.1v-0.7h-0.7
				c-0.5,0-0.7,0.1-0.7,0.4c0,0.2,0.2,0.3,0.7,0.3H260.9z M268.7,329.5c-0.9,0-1.8-0.1-2.5-0.4c-0.7-0.2-1.3,0.1-1.8,1.1
				c0,1.4,0.9,2.1,2.8,2.1c0.9,0,1.9,0,2.8,0c0.9,0,1.4-0.5,1.4-1.4C271.9,329.9,271,329.5,268.7,329.5z M268.7,249.5l-1.4-1.4
				c-0.9-0.9-1.4-0.5-1.4,1.4c0,0.9,0.2,1.4,0.7,1.4C267,251.4,267.7,250.9,268.7,249.5z"/>
		</g>
	</g>
</g>
</svg>
